<svg width="47" height="148" viewBox="0 0 47 148" fill="none" xmlns="http://www.w3.org/2000/svg">
<path d="M43.9727 146.057C44.7225 146.354 44.0013 146.117 44.1437 146.189C44.2584 146.247 44.7164 146.364 44.4405 146.328C44.7972 146.388 46.3247 146.834 46.4008 146.843L46.3989 146.842C46.4411 146.848 46.3657 146.717 46.0752 146.652C45.1684 146.445 45.7846 146.698 43.9727 146.057ZM44.9912 146.815C44.5805 146.733 45.5809 147.053 45.7056 147.035C45.6893 147.021 45.0693 146.832 44.9912 146.815ZM45.0897 146.738C44.775 146.671 45.4544 146.882 45.6652 146.927C45.6896 146.912 45.1393 146.75 45.0897 146.738ZM25.6296 2.04279C25.6495 2.08204 25.677 2.12267 25.6594 2.14436C25.5481 2.2808 25.4973 2.1538 25.4864 2.15546C25.4137 2.16989 25.0713 2.54726 24.9742 2.61216C25.0704 2.64773 25.2624 2.34749 25.3333 2.30478C25.5644 2.17034 25.0951 2.58965 25.3125 2.54456C25.2299 2.57821 25.155 2.60431 25.0762 2.63437C25.0221 2.78552 25.194 2.66986 24.8898 2.9149C24.8021 2.91031 25.0978 2.73586 25.0156 2.74441C24.9667 2.74974 24.7965 2.8979 24.7812 2.891C24.7661 2.87969 24.9306 2.75634 24.8878 2.75696C24.7909 2.76239 24.2915 3.30503 24.7248 2.95081C24.6079 3.05773 24.6357 3.20006 24.5094 3.2646C24.4273 3.30583 24.678 2.84178 24.147 3.37384C24.1751 3.42691 24.3784 3.18558 24.3897 3.1802C24.4029 3.17919 24.4501 3.31297 24.4473 3.32439C24.4319 3.36763 23.8304 3.82586 23.7528 3.98644C23.7454 3.88991 23.321 4.36185 23.2518 4.39326C23.2346 4.3994 23.2536 4.32039 23.2357 4.33007C23.1237 4.39312 22.9313 4.68092 22.8202 4.78485C22.6949 4.90192 22.6825 4.85843 22.6754 4.86435C22.6206 4.91731 22.6839 4.8975 22.6491 4.92893C22.5946 4.97849 22.243 5.30452 22.2195 5.31819C22.214 5.31946 22.2392 5.23588 22.1568 5.29876C22.1426 5.31018 22.1868 5.3432 21.9388 5.53567C21.6385 5.76856 22.0886 5.30858 21.9332 5.37186C21.8076 5.59475 21.7583 5.5301 21.7134 5.57912C21.6963 5.59821 21.6195 5.76024 21.4808 5.87929C21.5863 5.79928 21.6883 5.72221 21.7955 5.64047C21.7053 5.73789 21.5124 5.89122 21.4414 5.97331C21.4074 6.01296 21.477 6.02718 21.3918 6.10181C21.3722 6.11705 21.2123 6.078 21.4725 5.92633C21.4572 5.87401 21.3738 5.99193 21.3156 6.02557C21.3057 6.02997 21.223 5.99642 21.1947 6.08973C21.19 6.11209 21.5081 6.14587 20.9742 6.39295C20.9581 6.3992 20.9836 6.33698 20.9666 6.34403C20.953 6.35111 20.8562 6.45324 20.8417 6.4606C20.8279 6.46606 20.8559 6.3976 20.838 6.40481C20.7425 6.44617 20.7322 6.62906 20.8773 6.48598C20.8373 6.54331 20.7969 6.60162 20.7566 6.65917C20.746 6.53763 20.6588 6.70977 20.5858 6.77126C20.1193 7.16207 20.3792 6.8445 20.2805 6.88852C20.1214 6.95991 20.3268 7.00022 20.1082 7.12773C20.0908 7.13554 20.2628 6.88949 19.8535 7.30693C19.9202 7.25131 19.9867 7.19551 20.053 7.14015C20.0785 7.24333 19.8175 7.3431 19.7989 7.35652C19.6172 7.50062 19.7551 7.42341 19.4685 7.61273C19.4428 7.62984 19.408 7.69109 19.3516 7.72564C19.1179 7.86875 19.5979 7.46825 19.5857 7.42798C19.5801 7.40812 19.0794 7.85762 19.0658 7.8813C19.0184 7.9758 19.308 7.69142 19.2824 7.77938C19.2667 7.81631 18.526 8.42287 18.3931 8.56451C18.2396 8.72905 18.2482 8.89157 18.1523 8.78427C18.1982 8.93169 18.093 8.89554 18.0722 8.91503C17.822 9.15162 17.8225 9.15415 17.5905 9.33882C17.5395 9.37952 17.5252 9.44765 17.5034 9.45783C17.4905 9.46268 17.4782 9.41291 17.4197 9.44522C17.3374 9.49186 16.9564 9.88502 16.9404 9.93232C16.9267 9.97766 17.1227 9.7885 17.1131 9.85205C16.9666 9.98486 16.8158 10.1023 16.6686 10.2354C16.6081 10.2905 16.6581 10.2849 16.6316 10.3087C16.6154 10.3223 16.3892 10.4846 16.39 10.4698C16.3962 10.4319 17.0716 9.86893 16.8639 9.98135C16.8235 10.0037 16.7481 10.1577 16.7136 10.0801C16.1309 10.6091 15.5454 11.1364 14.9579 11.6605C15.3421 11.4141 15.6933 11.0418 16.056 10.7372C16.1057 10.6954 16.2676 10.5457 16.2744 10.5944C15.9759 10.8659 15.5813 11.1754 15.3046 11.4468C15.2975 11.4552 15.3542 11.4551 15.3231 11.4893C15.2634 11.5542 15.0103 11.691 14.9843 11.7334C14.983 11.7402 15.1345 11.6751 15.1176 11.7301C15.0738 11.8719 14.9346 11.7581 14.8539 11.8293C14.7907 11.886 14.4193 12.3121 14.2781 12.3604C14.1291 12.4111 14.5715 12.0692 14.5101 12.0594C14.189 12.2693 13.9299 12.5526 13.6501 12.7793C13.6464 12.7798 13.6618 12.7216 13.5989 12.7678C13.4871 12.8499 13.4918 12.9129 13.4456 12.9626C13.395 13.0165 13.1926 13.1753 13.1781 13.212C13.1778 13.2166 13.2471 13.2231 13.2567 13.2197C13.3557 13.1649 13.3449 13.0881 13.3518 13.08C13.3796 13.0536 13.4252 13.0488 13.4511 13.0253C13.4936 12.9864 13.5029 12.9472 13.5598 12.8968C13.5989 12.8624 13.5899 12.929 13.6272 12.8953C13.6417 12.8802 13.7282 12.6745 13.8108 12.7437C13.8344 12.7698 12.6022 13.8516 12.4599 13.9314C12.5594 13.8329 12.6594 13.7339 12.7593 13.6346C12.5597 13.8401 12.2413 13.9916 12.302 14.1052C11.4925 14.7829 10.6743 15.4559 9.85116 16.1138C9.71022 16.2377 9.84374 16.2359 9.58274 16.4092C9.63075 16.3391 9.67869 16.2692 9.72448 16.2007C9.61145 16.3129 9.07484 16.7722 8.97771 16.8246C8.96382 16.8308 8.90149 16.7872 8.75865 16.8881C8.63146 16.9781 8.6447 17.0368 8.58526 17.095C8.53547 17.1435 8.4656 17.1787 8.45068 17.1935C8.43998 17.2049 8.45431 17.2355 8.42822 17.2626C8.34416 17.3483 8.36625 17.2144 8.33447 17.3742C8.36061 17.3598 8.38731 17.3448 8.4123 17.3312C8.3054 17.4312 8.17252 17.5915 8.36082 17.4813C8.39316 17.4623 8.34888 17.4555 8.37081 17.439C9.22752 16.8003 8.58788 17.3638 8.25127 17.5512C8.19799 17.6515 7.75641 17.9413 7.74187 17.963C7.73151 17.988 7.82753 17.9651 7.74847 18.0637C7.72601 18.0899 7.13504 18.4817 7.3795 18.3849C7.42948 18.3657 7.70122 18.1527 7.77198 18.1031C7.66797 18.3058 7.22086 18.4469 7.17357 18.4839C7.01007 18.6195 7.55779 18.3194 7.17392 18.6065C6.88259 18.8228 7.12115 18.571 6.99064 18.6271C6.91672 18.6598 6.63114 18.9489 6.5817 18.8642C6.45967 18.9352 6.55625 18.9316 6.5443 18.9445C6.52961 18.9583 6.28853 19.0868 6.2294 19.1505C6.2235 19.1586 6.27762 19.1822 6.27099 19.1916C6.259 19.2082 6.03192 19.3469 6.01952 19.3495C6.013 19.3493 6.04005 19.2794 6.01333 19.2839C5.97985 19.2915 5.7781 19.4337 5.75887 19.4311C5.73284 19.4257 5.99555 19.2701 5.92715 19.2557C5.81081 19.3467 5.61153 19.4344 5.50357 19.4548C5.53081 19.4512 5.6467 19.3793 5.68288 19.3513C5.62765 19.3015 5.37739 19.4605 5.49352 19.4552C5.42245 19.4634 5.45044 19.4262 5.40468 19.4206C5.39192 19.42 5.31419 19.4662 5.29319 19.4643C5.29112 19.4622 5.35429 19.3911 5.33091 19.3884C5.286 19.3857 5.06342 19.5278 5.0503 19.5432C5.01046 19.5902 5.20197 19.5032 5.23543 19.5181C5.23963 19.5213 5.11424 19.6675 5.11511 19.6729C5.13467 19.7277 5.28801 19.5874 5.29506 19.6429C5.25705 19.6787 5.2191 19.7142 5.18207 19.7489C5.36917 19.6986 5.68961 19.4663 5.79529 19.4673C5.53488 19.6142 5.26395 19.7804 5.33543 19.8917C5.36416 19.9399 5.49019 19.9023 5.49363 19.9167C5.503 19.9707 5.3238 20.014 5.32036 20.0189C5.31753 20.0242 5.31716 20.0288 5.31865 20.0313C5.33386 20.0569 5.55587 19.9475 5.5788 19.9489C5.61002 19.9582 5.56468 20.1035 5.57633 20.1221C5.58569 20.1223 5.75127 20.0477 5.71838 20.1124C5.68366 20.1791 5.5495 20.2621 5.54562 20.2689C5.53166 20.3047 5.78037 20.1785 5.79808 20.1832C5.8052 20.187 5.69806 20.3023 5.69975 20.3157C5.7031 20.3281 5.81578 20.2912 5.87632 20.2991C5.92086 20.3051 5.84778 20.3757 5.86373 20.3714C5.87451 20.3688 6.11149 20.2199 6.12675 20.2157C6.14707 20.2116 6.11381 20.2735 6.12475 20.2771C6.14323 20.2801 6.20755 20.2245 6.20607 20.24C6.20869 20.2508 5.97221 20.5383 5.99017 20.5644C6.02097 20.6093 6.27366 20.3053 6.09088 20.6703C6.08663 20.6739 6.01022 20.7044 6.00905 20.7066C5.98664 20.7663 6.24393 20.6794 5.96113 20.8398C6.51747 20.5777 6.06865 20.8703 6.19293 20.9005C6.24035 20.9123 6.45186 20.7972 6.46033 20.7979C6.46322 20.8482 6.37848 20.8617 6.36763 20.8941C6.36733 20.9097 6.57168 20.8349 6.54702 20.886C6.53513 20.9122 6.33704 21.0308 6.32722 21.0399C6.26568 21.1116 6.37441 21.0808 6.36991 21.1077C6.36498 21.1267 6.25042 21.1989 6.24656 21.204C6.24619 21.2111 6.43306 21.161 6.47814 21.1557C6.51175 21.1524 6.4287 21.2324 6.44931 21.2274C6.57779 21.1942 6.75925 20.9604 6.60827 21.2213C6.59834 21.2372 6.51716 21.2842 6.51128 21.2894C6.48042 21.3552 6.63768 21.2628 6.68383 21.2718C6.76039 21.2893 6.5195 21.4038 6.72809 21.3193C6.60601 21.4392 6.5261 21.4867 6.3608 21.5747C6.8221 21.3264 7.0685 21.3405 6.55721 21.6543C6.71555 21.5545 6.74284 21.6338 6.79181 21.6054C6.82504 21.5857 7.00956 21.3729 7.00371 21.5927C7.00396 21.6187 6.84379 21.6869 6.91383 21.6975C7.24545 21.4736 6.94019 21.7157 6.93938 21.7231C7.00682 21.8122 7.77094 21.2102 7.9085 21.127C8.07504 21.0311 8.26788 20.9993 8.29945 20.978C8.40914 20.9018 8.29484 20.9299 8.30988 20.9001C8.32601 20.8708 8.68484 20.7173 8.70315 20.6997C8.754 20.6417 8.66517 20.6434 8.66697 20.6371C8.73237 20.5532 9.16425 20.2926 9.27911 20.1936C9.29458 20.2234 9.05992 20.3965 9.23821 20.3328C9.44645 20.2578 9.37253 20.1325 9.37242 20.1231C10.1522 19.5545 10.9158 18.9729 11.6723 18.3819C11.7121 18.4498 11.1803 18.7905 11.1745 18.8073C11.1515 18.9023 11.9784 18.2563 12.0664 18.1503C11.9988 18.225 11.9311 18.2994 11.864 18.3734C12.0517 18.3391 12.2752 18.0148 12.4876 17.8957C12.5554 17.8579 12.4626 17.9751 12.4639 17.9781C12.5543 17.9504 12.6489 17.8411 12.5374 17.8706C12.7336 17.771 12.6792 17.752 12.8066 17.6452C12.8116 17.6427 12.7817 17.7104 12.8917 17.641C12.9467 17.606 13.1975 17.4051 13.2523 17.401C13.2739 17.4021 13.2323 17.6124 13.1416 17.5318C12.9036 17.7981 13.0192 17.5603 12.9133 17.6486C12.8979 17.6623 12.9753 17.686 12.6834 17.879C12.8101 17.9327 13.0716 17.6077 13.1322 17.5772C13.261 17.5125 12.8439 17.9274 12.7006 17.9211C12.7985 17.9634 12.676 17.9577 12.5768 18.0415C12.4685 18.133 12.5335 18.1166 12.4738 18.1643C12.3103 18.2949 12.3374 18.1886 12.2367 18.3444C12.2556 18.0934 11.9846 18.512 11.9078 18.6338C12.0873 18.5051 12.2725 18.3711 12.4507 18.2418C12.4469 18.2571 12.4434 18.2729 12.4397 18.2882C12.484 18.2513 12.5288 18.2138 12.5733 18.1766C12.5604 18.1751 12.5473 18.174 12.5344 18.1725C12.8059 18.034 12.8227 17.9331 12.8412 17.9168C13.0872 17.71 13.3662 17.4859 13.6162 17.2829C13.6531 17.2529 13.6684 17.3198 13.9082 17.0633C13.9843 16.9817 13.8737 17.0106 13.975 16.937C14.1779 16.9372 14.1117 16.8595 14.1475 16.8296C14.251 16.7449 14.3353 16.7167 14.3461 16.7089C14.4787 16.6065 14.6628 16.4478 14.8058 16.3358C14.8087 16.334 14.761 16.424 14.8446 16.3399C14.8742 16.3095 15.0563 15.9414 15.3414 15.7753C15.2839 15.8379 15.2251 15.9015 15.1667 15.9647C15.235 15.8878 15.7969 15.4754 15.6958 15.6185C15.6329 15.7068 15.3676 15.7864 15.4121 15.8843C15.5709 15.713 16.5826 14.924 16.6452 14.8385C16.6535 14.827 16.5682 14.8556 16.5792 14.8404C16.5907 14.8265 16.8169 14.6448 16.8392 14.6091C16.8519 14.5882 16.74 14.6557 16.7395 14.6401C16.7413 14.6272 17.0117 14.38 17.0557 14.3981C16.9759 14.4437 16.7927 14.6176 16.9166 14.5595C16.9325 14.5515 16.9813 14.4751 17.0011 14.4648C17.1814 14.3801 16.736 14.7418 16.6669 14.8006C16.979 14.6078 17.3631 14.1977 17.7048 13.9518C17.8104 13.815 17.4796 14.0731 17.6057 13.9268C17.8649 13.6263 17.7216 13.8896 17.7301 13.8913C17.8283 13.8544 17.9587 13.491 18.0536 13.6006C18.1486 13.4902 18.102 13.5062 18.2682 13.3884C18.2546 13.4134 18.2414 13.4388 18.2278 13.4637C18.454 13.3802 18.6763 12.9075 18.6384 12.9186C18.5373 12.949 18.3935 13.1624 18.3763 13.175C18.3501 13.1932 18.1879 13.1396 18.0136 13.463C17.8434 13.4789 18.383 13.0566 18.1029 13.2085C18.2706 13.0793 18.8804 12.462 19.0037 12.412C19.0185 12.409 19.032 12.5245 19.1593 12.3487C19.2203 12.2641 19.035 12.4227 19.0549 12.3758C19.1194 12.2303 20.6123 10.9849 20.8919 10.7412C20.9092 10.7256 20.8833 10.708 20.9006 10.6928C20.9556 10.6456 21.1829 10.5062 21.2715 10.4091C21.1076 10.6295 21.5013 10.2875 21.5963 10.1949C21.74 10.0548 21.6953 10.0222 21.752 9.95647C21.9746 9.69998 22.4465 9.45128 22.5608 9.18871C22.6296 9.28656 22.8602 8.8434 23.0148 8.70305C23.135 8.59425 23.3694 8.48959 23.2331 8.67633C23.4447 8.47908 23.6827 8.29386 23.8839 8.12219C23.9173 8.09371 23.8493 8.10873 23.9073 8.06045C23.9128 8.05621 23.9436 8.07453 23.9947 8.03339C24.4143 7.69469 24.1707 7.81545 24.2303 7.73255C24.2635 7.6863 24.2907 7.65449 24.3117 7.63278C24.0781 7.83524 23.7951 8.0713 23.7261 8.13216C23.7332 8.0242 24.253 7.67646 24.3683 7.5445C24.3723 7.53989 24.3303 7.52326 24.3335 7.51862C24.3572 7.4949 24.4611 7.40592 24.5485 7.34149C24.5148 7.39966 24.4822 7.45533 24.4509 7.50771C24.4173 7.53747 24.3826 7.57026 24.3458 7.60222C24.3734 7.58386 24.3864 7.59326 24.3934 7.6057C24.2868 7.78193 24.2055 7.91142 24.1786 7.96806C23.9875 8.37098 24.1839 8.05647 24.1563 8.15189C24.128 8.24669 23.5015 9.3809 23.482 9.43299C23.3981 9.65381 23.5451 9.46052 23.5378 9.48272C23.4425 9.75676 22.7005 11.2459 22.509 11.687C22.4881 11.6536 22.8829 10.8013 22.5858 11.3126C22.2388 11.9108 22.3517 12.0126 22.3506 12.0316C21.0097 14.9136 19.7026 17.7922 18.4366 20.6754C18.3841 20.6004 19.2636 18.7538 19.2791 18.6982C19.3364 18.4134 17.9273 21.6096 17.7773 22.0351C17.8939 21.7244 18.0098 21.4143 18.1262 21.1062C17.8165 21.5913 17.4342 22.7655 17.0862 23.4786C16.9761 23.704 17.1272 23.2658 17.1297 23.2503C16.9837 23.5024 16.8253 23.9413 17.0049 23.6397C16.6852 24.2741 16.771 24.1992 16.5606 24.704C16.5502 24.7283 16.6075 24.5008 16.4252 24.8927C16.3392 25.0769 15.916 26.0819 15.8304 26.2061C15.7956 26.253 15.8813 25.6907 16.0182 25.6745C16.4243 24.56 16.2155 25.3454 16.3915 24.922C16.4183 24.8578 16.2942 24.9766 16.7735 23.9323C16.5765 24.0842 16.1408 25.3422 16.0383 25.5499C15.8276 25.9713 16.5257 24.1582 16.7512 23.874C16.5997 23.9887 16.7931 23.7432 16.9579 23.3493C17.1382 22.9186 17.0322 23.0938 17.1315 22.8626C17.4041 22.2286 17.3492 22.523 17.5229 21.9708C17.4667 22.5669 17.944 21.062 18.0815 20.6291C17.7789 21.296 17.4645 21.9976 17.1753 22.6443C17.1827 22.6026 17.1897 22.5604 17.1971 22.5188C17.123 22.6939 17.0489 22.8699 16.9748 23.0459C16.9954 23.0215 17.0161 22.9969 17.0368 22.9725C16.5921 23.8535 16.5593 24.1066 16.5283 24.1809C16.1288 25.1386 15.6481 26.281 15.2478 27.2482C15.1882 27.3925 15.172 27.2696 14.7803 28.348C14.6556 28.6924 14.8306 28.3904 14.6664 28.7729C14.3504 29.207 14.4485 29.2372 14.3902 29.3812C14.2228 29.7933 14.0915 30.0358 14.0751 30.075C13.8641 30.5846 13.5637 31.3495 13.3372 31.9092C13.3393 31.8941 13.4047 31.632 13.2782 31.9819C13.2311 32.113 12.9376 33.3145 12.4973 34.3044C12.5881 34.0377 12.6787 33.7707 12.7699 33.5051C12.6633 33.8157 11.7924 35.9718 11.9527 35.4274C12.0511 35.0906 12.4571 34.3355 12.3944 34.21C12.1355 34.9423 10.5973 38.9231 10.5143 39.2462C10.5026 39.2889 10.6299 39.0369 10.6123 39.0979C10.5968 39.1487 10.2578 40.0611 10.2261 40.189C10.2077 40.2628 10.3738 39.8649 10.3734 39.9021C10.3658 39.9471 9.97192 41.0887 9.90853 41.1436C10.0253 40.8648 10.2959 40.0642 10.1125 40.4694C10.0888 40.5223 10.0155 40.8095 9.98695 40.8728C9.72167 41.4603 10.38 39.6554 10.4825 39.3777C10.0201 40.4881 9.4523 42.2794 8.97072 43.5768C8.8217 44.1191 9.29278 42.807 9.1135 43.4177C8.74298 44.6854 8.9533 43.7344 8.9357 43.7716C8.79523 44.0702 8.61834 45.1868 8.48069 45.1459C8.34909 45.6078 8.41531 45.4664 8.18356 46.1043C8.20202 46.0165 8.2203 45.9283 8.23885 45.8405C7.9193 46.5294 7.63181 48.1093 7.68462 48.0017C7.82284 47.7121 8.0143 46.9037 8.03893 46.8341C8.0746 46.735 8.30387 46.5032 8.54189 45.3744C8.78343 44.9603 8.03214 47.1213 8.42376 46.1543C8.18511 46.8232 7.37314 49.5852 7.21213 49.972C7.19214 50.0158 7.1655 49.7694 7.00298 50.464C6.92609 50.794 7.16785 50.015 7.14361 50.1698C7.04271 50.6455 5.18297 56.8535 4.89136 58.0556C4.87093 58.1325 4.90787 58.113 4.88765 58.1886C4.82432 58.4223 4.55703 59.2634 4.46414 59.6862C4.63176 58.8034 4.19523 60.4896 4.09693 60.9218C3.94502 61.5765 4.00709 61.5493 3.94964 61.834C3.72743 62.9303 3.21569 64.5944 3.14865 65.4727C3.04137 65.4018 2.88792 66.9576 2.75097 67.6485C2.64137 68.1898 2.4102 68.9597 2.50745 68.2202C2.32677 69.1546 2.11797 70.1437 1.95301 71.0273C1.92613 71.172 1.9962 70.9785 1.94897 71.2264C1.9441 71.2489 1.90376 71.2756 1.86286 71.4882C1.52898 73.2517 1.75087 72.4038 1.71568 72.738C1.69693 72.9246 1.68097 73.0625 1.66665 73.1629C1.83945 72.1341 2.06461 70.9478 2.12406 70.6297C2.14551 70.9157 1.70863 72.9104 1.63895 73.5035C1.63715 73.5228 1.68891 73.4606 1.6859 73.4812L1.6864 73.482C1.65189 73.7044 1.42299 75.104 1.41759 74.8101C1.41604 74.7305 1.51228 74.083 1.64079 73.3159C1.59834 73.5206 1.57667 73.3608 1.56873 73.3953C1.47289 73.8381 1.35234 74.9303 1.30251 75.3245C1.2909 75.4132 1.26272 75.4034 1.26039 75.4178C1.21625 75.7734 1.32111 75.6405 1.18216 75.9921C1.19723 76.6479 1.36992 74.7914 1.42213 74.9302C1.442 75.0481 0.880416 79.117 0.813144 79.1082C0.82038 79.1241 0.825321 79.1822 0.825035 79.2978C0.822609 79.5589 0.695355 80.689 0.661366 80.8918C0.654532 80.9245 0.574241 80.9041 0.569444 80.9455C0.555336 81.0533 0.490272 82.4626 0.403596 82.9819C0.41448 82.698 0.427368 82.4132 0.440528 82.1287C0.297347 83.8397 0.30109 83.5733 0.318799 83.0018C0.320792 82.9735 0.319602 82.9454 0.321365 82.9184C0.337833 82.4795 0.370141 81.9165 0.365444 81.8961C0.334526 81.8626 0.102669 84.7646 0.222133 84.2124C0.235698 84.1358 0.301891 82.7906 0.306363 83.4595C0.306011 83.5785 0.231385 84.4353 0.235151 84.4821C0.252429 84.785 0.437466 82.9116 0.479199 83.1449C0.390202 83.5973 0.376437 84.185 0.330187 84.7063C0.309147 84.9433 0.266067 84.9999 0.263511 85.0292C0.227367 85.4661 0.283742 85.2234 0.274332 85.3695C0.267608 85.4515 0.133996 86.3046 0.267907 86.15C0.0604146 89.0255 0.126542 86.9306 0.233616 85.1869C0.154608 85.732 0.125001 86.8274 0.0979989 87.3178C0.0878383 87.4931 0.0498528 87.3883 0.0315404 87.6849C-0.0175393 88.302 -0.00272071 91.1998 0.0322458 91.9644C0.0413568 91.4949 0.0885104 91.6324 0.0901134 91.9947C0.0923279 92.3559 0.0264329 92.0539 0.0209345 92.1246C0.0120273 92.213 0.0844854 93.8983 0.0923612 94.1776C0.0695015 92.9026 0.122985 93.1894 0.168323 94.2688C0.175098 94.1126 0.182356 93.9561 0.189999 93.7999C0.190942 94.4351 0.3301 95.7559 0.33508 96.1194C0.335097 96.175 0.284667 95.9751 0.284634 96.0062C0.28597 96.3252 0.405009 97.4083 0.398168 97.4644C0.390194 97.5057 0.321722 97.0441 0.319437 97.218C0.31952 97.2575 0.406589 97.7035 0.433876 98.1458C0.443954 98.31 0.398431 98.2154 0.400085 98.2569C0.414974 98.6027 0.455845 98.3948 0.508753 99.0244C0.548798 99.4853 0.525798 99.8357 0.621995 100.467C0.308573 98.391 0.530744 100.141 0.622222 101.013C0.637185 101.151 0.553032 101.044 0.700176 101.868C0.578665 100.089 0.82501 102.354 0.908811 102.831C0.913728 102.857 0.957861 102.861 0.994884 103.088C0.997409 103.107 0.963879 103.086 0.996003 103.298C1.31862 105.315 1.13308 104.022 1.22755 104.399C1.26736 104.561 1.41077 105.541 1.46484 105.802C1.47704 105.861 1.5018 105.829 1.54839 106.06C1.63117 106.47 1.67977 106.844 1.73786 107.114C1.7457 107.146 1.7901 107.136 1.89437 107.653C1.92398 107.798 1.94573 107.964 1.88369 107.762C1.67497 107.091 1.47756 105.792 1.28853 105.026C1.11024 104.33 1.54144 106.55 1.5756 106.662C1.58387 106.701 1.51491 106.271 1.61384 106.706C1.6981 107.077 1.77335 107.782 1.9294 108.337C1.9428 108.384 2.11871 108.8 2.12031 108.785C2.11526 108.756 1.96342 108.079 2.00788 108.173C2.01485 108.193 2.12042 108.619 2.14958 108.672C2.1861 108.737 2.40873 108.878 2.43703 108.969C2.5091 109.201 2.42856 109.059 2.47122 109.211C2.56039 109.539 2.93059 110.653 2.88311 110.706C2.82536 110.521 2.76771 110.335 2.71174 110.15C3.00097 111.187 2.85126 110.754 2.88158 110.904C2.91611 111.064 2.95676 111.006 3.06679 111.352C3.0884 111.436 3.53389 112.865 3.51248 112.86C3.28342 112.05 3.31628 112.362 3.30269 112.329C3.25319 112.19 3.23312 111.999 3.1736 111.811C2.76013 110.485 3.11137 111.84 3.001 111.533C2.96278 111.427 2.92875 111.202 2.9134 111.155C2.86366 111.008 2.82195 111.016 2.79579 110.916C2.73591 110.684 2.87123 110.932 2.87116 110.917C2.84472 110.699 2.56769 109.894 2.64822 110.421C2.53865 110.122 2.60557 110.063 2.50793 109.829C2.31496 109.362 2.52806 110.083 2.57439 110.282C2.7388 110.994 2.82627 111.196 3.12722 112.183C3.23611 112.537 3.34002 112.973 3.39383 113.137C3.42676 113.245 3.89526 114.169 3.70871 114.27C3.86465 114.641 4.21758 115.181 4.36296 115.567C4.49258 115.911 4.38122 115.832 4.3903 115.864C4.4062 115.917 4.58015 116.33 4.62869 116.474C4.68484 116.642 4.62422 116.573 4.72268 116.837C4.97044 117.495 5.03733 117.447 5.07009 117.511C5.46152 118.253 5.21466 117.963 5.28247 118.136C5.33617 118.306 6.43053 120.474 6.66078 120.933C6.57686 120.742 6.49397 120.549 6.41259 120.357C6.62484 120.667 6.74251 121.052 6.82167 121.018C6.73417 121.151 7.18252 121.785 7.2944 121.988C7.33707 122.067 7.31352 122.074 7.3681 122.173C7.58023 122.562 8.10739 123.414 8.22526 123.625C8.72225 124.544 7.26921 122.307 7.17549 122.115C7.3692 122.487 8.58104 124.541 7.95475 123.639C7.85769 123.499 7.75668 123.21 7.71042 123.126C7.39892 122.565 7.6046 123.024 7.57613 122.987C7.5249 122.917 7.35954 122.525 7.29876 122.43C7.2789 122.398 7.35172 122.632 7.04992 122.099C7.14878 122.391 8.06172 123.859 8.17874 124.054C8.2179 124.121 7.85572 123.757 8.7406 124.951C8.72321 124.942 8.70514 124.932 8.68775 124.923C9.13393 125.618 9.60877 126.318 10.0849 126.984C10.0506 126.898 9.81865 126.499 10.1491 126.975C10.339 127.246 10.157 127.079 10.1717 127.102C10.273 127.382 13.7028 131.556 14.4494 132.227C14.6877 132.484 15.3497 133.209 15.4057 133.263C15.7158 133.585 16.9063 134.67 17.1428 134.883C17.283 135.014 17.1198 134.923 17.2493 135.036C17.3697 135.142 17.273 135.002 17.3094 135.032C17.5944 135.297 19.8948 137.292 20.5255 137.697C20.1485 137.438 18.4828 135.976 18.5446 135.979C18.565 135.991 18.9843 136.303 19.0598 136.383C19.2223 136.473 19.6446 136.952 19.929 137.148C19.9604 137.169 19.8777 137.032 20.3682 137.4C20.5382 137.528 20.953 137.904 21.4394 138.198C22.0368 138.721 25.5626 140.954 25.8186 141.144C25.8068 141.142 25.3053 140.86 25.632 141.09C26.0763 141.401 25.7214 141.05 26.2687 141.367C26.3741 141.434 27.8149 142.277 27.8643 142.307C28.2765 142.614 26.9797 141.916 26.9972 141.93C27.0377 141.979 28.0907 142.586 28.1395 142.605C28.1757 142.619 27.3512 142.065 28.3872 142.673C28.2609 142.616 28.1347 142.558 28.0091 142.5C28.4957 142.792 28.5745 142.764 28.6973 142.827C29.081 143.02 29.452 143.321 30.126 143.537C30.3031 143.593 30.0467 143.425 30.0687 143.431C30.284 143.496 30.4889 143.72 30.8254 143.796C30.8458 143.798 30.1746 143.418 31.3979 144.017C31.3099 143.983 31.2218 143.948 31.1341 143.914C31.2928 144.015 32.5751 144.632 32.7147 144.688C33.1913 144.892 32.8025 144.655 33.2761 144.876C32.936 144.81 34.3904 145.463 34.3395 145.367C34.5122 145.533 35.8083 146.008 36.4236 146.245C36.808 146.398 37.5922 146.736 37.721 146.779C37.875 146.831 37.8493 146.762 38.1298 146.853C38.2157 146.881 39.0177 147.221 39.7115 147.4C39.8487 147.436 40.16 147.442 39.9204 147.334C39.5057 147.149 38.7037 146.941 38.7115 146.884C38.7641 146.842 39.8051 147.25 40.1049 147.343C41.4699 147.768 40.7099 147.441 40.7503 147.435C40.8567 147.423 41.6007 147.669 41.6343 147.674C41.7671 147.698 41.2552 147.492 41.2518 147.46C41.2553 147.423 41.9938 147.592 41.8353 147.527C41.6052 147.435 40.932 147.271 40.8883 147.253C40.3594 147.037 41.1272 147.205 41.3466 147.232C41.4106 147.239 41.1719 147.138 41.2245 147.151C42.0299 147.355 41.3521 147.321 41.8827 147.481C42.3416 147.617 41.8066 147.389 41.7873 147.376C41.8155 147.382 42.3776 147.558 42.4728 147.567C42.5082 147.57 41.089 146.995 41.1687 146.966C41.6263 147.13 42.0893 147.291 42.5565 147.45C42.6115 147.4 41.9263 147.231 41.8571 147.202C41.7225 147.144 42.116 147.236 42.1107 147.213C42.1011 147.196 41.6652 147.007 42.0811 147.121C42.2252 147.161 42.5098 147.3 43.0468 147.418C41.2528 146.792 42.5187 147.153 42.5779 147.148C42.6336 147.142 41.7933 146.82 42.8353 147.158C42.9183 147.053 42.8233 147.113 42.5331 146.999C42.1795 146.857 43.025 147.086 41.6979 146.691C41.7919 146.662 42.8509 147.004 42.9111 147.017C42.9593 147.027 42.7322 146.926 42.8193 146.943C43.859 147.146 43.1535 146.981 43.4661 147.002C43.4991 147.006 44.4584 147.266 43.7342 147.037C42.4147 146.616 41.8561 146.513 41.6928 146.274C42.6665 146.515 43.8196 146.985 44.1211 147.076C44.5796 147.215 44.1143 147.039 44.1736 147.046C44.1973 147.05 44.591 147.169 44.5973 147.167C44.9112 147.122 42.8347 146.641 42.2241 146.412C42.398 146.447 42.5732 146.481 42.7481 146.514C42.5193 146.441 42.2911 146.368 42.0647 146.293C43.1604 146.602 42.1068 146.292 41.8729 146.099C41.8204 146.056 42.513 146.327 41.7297 145.998C42.3278 146.178 42.1458 146.095 42.679 146.298C42.6759 146.252 41.4755 145.812 41.016 145.629C42.7035 146.14 41.6939 145.979 43.1933 146.365C43.4512 146.502 42.748 146.272 42.8034 146.298C43.0005 146.394 43.4992 146.497 44.0604 146.784C44.1507 146.83 43.7263 146.764 44.3345 146.942C44.4023 146.961 44.7867 147.025 44.8004 147.023C44.7591 146.972 44.3756 146.873 44.3594 146.852C44.3485 146.833 44.7737 146.967 44.7784 146.964C44.8016 146.921 44.4254 146.842 44.4835 146.843C44.614 146.847 46.1787 147.196 44.1603 146.636C45.8161 147.179 44.3533 146.753 43.7176 146.537C43.5554 146.482 43.5217 146.441 43.2928 146.36C42.9981 146.256 42.6473 146.159 42.4961 146.105C42.3346 146.047 43.2838 146.282 41.9345 145.867C42.6333 146.027 43.8373 146.476 44.5477 146.634C45.9761 146.952 43.6035 146.237 43.3707 146.148C43.3077 146.125 43.5338 146.155 43.4932 146.139C43.4206 146.116 42.106 145.717 41.9892 145.642C41.8715 145.57 42.4645 145.799 42.5157 145.78C42.5349 145.765 41.0049 145.218 41.8485 145.481C42.4296 145.664 43.4951 146.092 43.7111 146.055C42.8355 145.779 41.9766 145.493 41.1351 145.198C41.6089 145.32 42.0877 145.439 42.5704 145.555C41.6081 145.233 40.776 144.994 39.9126 144.63C42.0695 145.263 39.286 144.311 39.1998 144.254C39.1958 144.245 40.099 144.471 40.229 144.497C39.5058 144.212 37.1376 143.278 38.5553 143.696C38.3019 143.628 37.7497 143.344 37.7355 143.33C37.8279 143.313 39.1206 143.844 38.9271 143.719C38.6976 143.574 38.3238 143.511 37.9491 143.358C36.0456 142.564 36.6663 142.525 34.8114 141.761C34.8513 141.769 34.8914 141.776 34.9313 141.783C32.9491 140.921 30.8493 139.882 28.9951 138.834C28.3057 138.356 26.3111 137.068 25.4051 136.449C25.2155 136.326 24.2963 135.738 24.2244 135.693C24.0911 135.617 24.7713 136.105 24.4467 135.91C24.3852 135.883 22.8446 134.771 22.9829 134.809C23.156 134.935 23.6825 135.354 23.7795 135.41C24.3905 135.833 19.7874 132.271 19.677 132.015C19.7801 132.088 19.8842 132.161 19.988 132.233C19.7201 132.004 19.437 131.756 19.1622 131.51C19.2623 131.622 19.3635 131.733 19.4651 131.844C19.144 131.563 18.7363 131.164 18.4468 130.9C18.3994 130.857 18.4911 130.999 18.3817 130.895C18.2719 130.791 18.3285 130.773 18.1761 130.615C18.0018 130.44 17.1887 129.664 16.9273 129.379C15.9522 128.34 14.9914 127.173 14.0865 126.042C14.9881 127.247 14.0132 126.084 13.7748 125.737C13.7253 125.658 13.7933 125.621 12.9019 124.42C12.3377 123.636 12.7183 124.453 11.8828 123.076C12.6495 124.05 11.9585 123.047 11.4515 122.226C11.3589 122.085 10.652 120.947 10.3706 120.428C10.2729 120.252 10.1654 119.953 10.0384 119.716C9.95079 119.552 9.85944 119.441 9.73227 119.197C9.13927 118.056 8.59882 116.914 8.08291 115.734C8.25921 116.475 7.80023 115.218 7.77293 115.157C7.62034 114.888 8.15055 116.172 7.91609 115.675C7.61874 114.966 7.33799 114.249 7.07283 113.525C7.30778 114.11 6.88484 112.704 6.7603 112.46C6.88092 112.535 5.58598 109.153 5.50994 108.59C5.49174 108.477 5.72736 109.194 5.27133 107.5C5.22331 107.316 5.20649 107.393 5.18612 107.296C5.17403 107.237 5.19669 106.858 5.05241 106.498C5.00305 106.365 5.11419 107.259 4.73077 105.328C4.98739 106.076 4.26727 102.632 4.16739 101.975C4.20185 102.102 4.23706 102.229 4.27223 102.355C4.13253 101.723 4.15591 101.602 4.13308 101.46C4.04196 100.888 3.90253 100.098 3.84504 99.5566C3.77852 98.9233 3.8468 98.9135 3.74772 98.1752C3.77981 98.3497 3.81281 98.5248 3.84615 98.6987C3.79034 98.1882 3.74032 97.6749 3.69514 97.1605C3.70223 98.3568 3.66783 96.9069 3.66493 96.8067C3.65687 96.6552 3.63456 96.8746 3.62054 96.6216C3.61958 96.5955 3.65804 96.6301 3.63528 96.2422C3.59013 95.4303 3.5544 95.5597 3.53516 95.2183C3.5341 95.1871 3.57113 95.2939 3.54942 94.7026C3.49341 92.8169 3.52234 94.7133 3.52408 94.786C3.52437 94.8782 3.34938 94.2465 3.48964 95.8378C3.44158 95.3052 3.38053 95.2521 3.37512 95.1921C3.36966 95.1392 3.33386 94.2134 3.33483 94.1541C3.33689 93.6943 3.39392 94.0944 3.39786 94.0062C3.39897 93.9324 3.30997 92.8065 3.42939 92.5376C3.30602 91.9978 3.32734 92.8529 3.34308 93.758C3.32351 93.8885 3.27014 92.9045 3.26997 92.8442C3.24278 91.5565 3.35109 92.266 3.4054 91.9846C3.43417 91.8362 3.36535 91.312 3.45447 91.7961C3.45262 90.636 3.41098 91.3356 3.40263 91.2631C3.39122 91.1509 3.41397 90.7505 3.41133 90.6962C3.40665 90.6218 3.37773 90.8791 3.36774 90.5868C3.3663 90.538 3.41708 90.0655 3.43952 90.6748C3.43446 89.8614 3.47869 89.927 3.39585 89.6502C3.56562 89.0903 3.30714 89.2391 3.30156 89.0174C3.28987 88.4277 3.41314 88.5983 3.42066 88.5689C3.46196 88.3554 3.47505 86.7147 3.5171 86.3055C3.41623 86.4637 3.45996 87.6088 3.4361 87.8626C3.3491 88.7101 3.43184 86.6622 3.2953 87.2757C3.33678 87.0174 3.37936 86.7587 3.42296 86.5003C3.37248 86.0216 3.30345 86.6887 3.39903 85.423C3.47369 85.2196 3.34105 86.3167 3.40326 86.0993C3.43851 85.9697 3.4853 85.2384 3.50239 85.2227C3.52135 85.2101 3.46282 85.8706 3.49742 85.7691C3.56605 85.5446 3.66822 83.1156 3.51313 84.9604C3.54639 84.4458 3.4408 84.1704 3.51206 83.7251C3.56047 83.4384 3.602 85.0789 3.76417 82.6321C3.70927 82.578 3.66734 83.6096 3.66219 83.6355C3.65165 83.6694 3.53631 83.4769 3.5314 83.4429C3.5122 83.3256 3.8059 80.8214 3.80353 80.2959C3.85371 80.5071 4.0271 78.4198 4.08394 78.1922C4.09779 78.1334 4.11542 78.3626 4.12837 78.301C4.20634 77.9011 4.26766 76.7955 4.33871 76.2858C4.41687 75.7184 4.44812 75.7927 4.45265 75.7619C4.48689 75.5118 4.43082 75.7063 4.45303 75.5547C4.48433 75.3244 4.72309 73.7564 4.74526 73.6692C4.75079 73.6463 4.75474 73.91 4.81922 73.5682C4.83101 73.5091 4.76754 73.5368 4.96368 72.5235C5.20335 71.3017 4.88472 73.3851 5.0287 72.8861C5.08215 72.0855 5.15993 72.1235 5.1909 71.9093C5.20166 71.834 5.23091 71.2719 5.34625 70.6751C5.25562 71.1022 5.167 71.5298 5.08057 71.9569C5.14228 71.5328 5.30645 70.7156 5.35913 70.3649C5.3846 70.1942 5.30304 70.3225 5.37428 69.9557C5.38999 69.8791 5.58352 69.5913 5.34106 70.5463C5.37479 70.6299 5.4287 70.1661 5.48297 69.9568C5.49125 69.9252 5.59582 69.814 5.59832 69.5344C5.59945 69.4685 5.22259 70.1265 5.75607 68.3385C5.7734 68.281 5.76137 68.4891 5.77893 68.434C5.79128 68.3924 5.87312 67.9295 5.88826 67.8776C5.90351 67.8261 5.88985 68.0562 5.90888 67.9961C6.00729 67.682 5.96781 67.2341 5.84031 67.8982C5.87014 67.6739 5.9013 67.4493 5.9322 67.2249C5.97796 67.4794 6.03186 66.8827 6.1009 66.5773C6.54806 64.6202 6.32372 65.9452 6.42936 65.6162C6.60171 65.0865 6.3453 65.4629 6.57674 64.6698C6.59907 64.5984 6.44356 65.5798 6.84315 63.6809C6.7749 63.9592 6.70651 64.2378 6.63979 64.5163C6.58404 64.3342 6.87976 63.5117 6.89787 63.4447C7.0873 62.7064 6.93229 63.1984 7.24759 62.1093C7.27591 62.012 7.30595 61.7923 7.3694 61.5853C7.63227 60.7259 7.11354 62.742 7.1404 62.8066C7.15664 62.8038 7.68041 60.672 7.69645 60.5875C7.73819 60.2615 7.43045 61.5648 7.4455 61.3068C7.44675 61.2038 8.28334 58.1297 8.4422 57.5082C8.61647 56.7892 8.58388 56.4339 8.72365 56.4682C8.64391 56.2293 8.78627 56.0774 8.81135 55.9861C9.11155 54.883 9.1118 54.8799 9.40026 53.9441C9.46408 53.7379 9.4761 53.5486 9.50484 53.4769C9.52176 53.436 9.542 53.5278 9.61779 53.3231C9.7211 53.0367 10.2071 51.2799 10.2263 51.1386C10.242 51.0014 9.9887 51.8701 9.9964 51.7044C10.1852 51.0754 10.3833 50.4775 10.5785 49.8473C10.6593 49.5861 10.5894 49.7103 10.6243 49.5982C10.6388 49.5499 10.9513 48.6606 10.9508 48.6985C10.9393 48.7997 10.048 51.5739 10.3272 50.8579C10.3807 50.7189 10.4738 50.198 10.5268 50.3022C11.2897 47.8171 12.1115 45.3062 12.9598 42.8452C12.4021 44.2419 11.908 45.8528 11.4074 47.3517C11.3386 47.5566 11.1192 48.2515 11.1065 48.1588C11.5124 46.8765 12.0651 45.3038 12.4598 44.0849C12.4724 44.0459 12.3889 44.1755 12.4333 44.0291C12.5165 43.7541 12.8808 42.8928 12.9209 42.7343C12.9244 42.7122 12.7025 43.197 12.7269 43.0342C12.7909 42.6115 12.9934 42.5691 13.112 42.2292C13.203 41.9628 13.7553 40.1808 13.967 39.7658C14.19 39.3229 13.5287 41.0628 13.6199 40.953C14.0955 39.7768 14.4848 38.5804 14.9157 37.4557C14.9234 37.436 14.8931 37.6201 14.9927 37.3712C15.1659 36.9385 15.1607 36.8054 15.2334 36.5909C15.3119 36.359 15.6282 35.5576 15.6526 35.4426C15.6539 35.4304 15.5439 35.5728 15.5331 35.5969C15.3785 35.9389 15.393 36.0883 15.3815 36.1205C15.3379 36.2411 15.2689 36.3507 15.2285 36.4607C15.1623 36.6418 15.1458 36.75 15.0572 36.9894C14.9962 37.1542 15.014 36.98 14.9558 37.1397C14.9337 37.2022 14.7943 37.8634 14.6728 37.8872C14.6293 37.8725 16.5508 32.7763 16.7969 32.2689C16.6325 32.7149 16.4701 33.1583 16.3124 33.5937C16.6247 32.7142 17.1413 31.6559 17.0551 31.535C18.3645 28.2537 19.727 25.001 21.1483 21.7371C21.3937 21.1523 21.1795 21.4342 21.6202 20.496C21.5357 20.7507 21.4511 21.0071 21.3663 21.2637C21.5686 20.7548 22.471 18.6439 22.6612 18.2662C22.6838 18.2215 22.7804 18.1859 23.0319 17.6448C23.2548 17.1658 23.24 17.0666 23.3463 16.8069C23.4356 16.5896 23.557 16.3566 23.5835 16.2914C23.6034 16.242 23.582 16.2083 23.6294 16.09C23.7806 15.7157 23.731 16.0506 23.7981 15.6426C23.7539 15.7291 23.7102 15.8166 23.6659 15.9034C23.854 15.4541 24.0835 14.835 23.7644 15.4717C23.7098 15.5809 23.7829 15.4994 23.745 15.5822C22.2377 18.8757 23.3827 16.2016 23.9498 15.0905C24.0275 14.8037 24.8461 13.1041 24.8631 13.0472C24.8859 12.9655 24.719 13.2333 24.863 12.8449C24.8983 12.7494 25.947 10.574 25.5198 11.3343C25.4322 11.4893 24.9507 12.552 24.8277 12.8125C25.0195 12.1569 25.8041 10.8285 25.8733 10.6743C26.153 10.0428 25.2283 11.8374 25.8802 10.4246C26.4117 9.27702 25.9677 10.3784 26.2011 9.95236C26.2804 9.80671 26.5048 9.28594 26.6857 8.90606C26.6946 9.02202 26.6869 9.18187 26.7324 9.30462C26.737 9.31658 26.8334 9.42414 26.8406 9.42315C26.8422 9.41697 26.8063 9.21392 26.8334 9.23756C26.8374 9.24437 26.8686 9.36554 26.8873 9.37939C26.9104 9.39513 27.1006 9.40593 27.1119 9.43191C27.1401 9.49822 27.0894 9.46322 27.1035 9.50742C27.1339 9.60255 27.2701 9.92367 27.2117 9.95002C27.1941 9.89573 27.1765 9.84138 27.1589 9.78709C27.2304 10.096 27.1721 9.97178 27.1717 10.0182C27.1713 10.0679 27.2212 10.0419 27.2524 10.1441C27.2603 10.1712 27.3562 10.5969 27.3336 10.6005C27.3088 10.3523 27.2642 10.4566 27.26 10.4466C27.245 10.4057 27.2691 10.3424 27.2542 10.2863C27.148 9.89129 27.1897 10.3056 27.1509 10.216C27.138 10.1853 27.1534 10.1145 27.1488 10.1001C27.1324 10.0573 27.0904 10.0662 27.0859 10.0364C27.0765 9.96763 27.1509 10.0263 27.1572 10.0246C27.1785 9.95346 27.072 9.72289 27.0461 9.88962C27.0001 9.80502 27.075 9.77451 27.0258 9.7107C26.928 9.58372 26.9979 9.79384 27.0023 9.85433C27.018 10.071 27.063 10.1258 27.1272 10.4223C27.1502 10.5287 27.1447 10.6628 27.1549 10.7127C27.1618 10.7444 27.3668 11.003 27.163 11.0638C27.2117 11.1722 27.3924 11.3162 27.4161 11.4348C27.4369 11.5405 27.3567 11.5268 27.3554 11.5369C27.355 11.5536 27.3928 11.6791 27.3934 11.7246C27.3939 11.7777 27.3596 11.7603 27.3685 11.843C27.3907 12.0484 27.4645 12.0243 27.4745 12.0435C27.5904 12.2665 27.4579 12.1902 27.4627 12.245C27.4688 12.3002 27.6815 12.9709 27.6917 13.1227C27.6917 13.0603 27.6913 12.9977 27.6913 12.9353C27.7643 13.0287 27.7177 13.1592 27.8011 13.1404C27.6728 13.1958 27.8168 13.3897 27.8303 13.4562C27.8353 13.4821 27.8117 13.4865 27.8187 13.5188C27.8465 13.6453 27.9365 13.9233 27.9426 13.9953C27.9671 14.3018 27.6942 13.574 27.6729 13.5125C27.7047 13.6324 27.8441 14.3099 27.7017 14.0184C27.6796 13.9732 27.7185 13.8725 27.7142 13.8449C27.6837 13.6599 27.6659 13.8157 27.6572 13.8027C27.6432 13.7796 27.6646 13.6478 27.6505 13.618C27.6454 13.6097 27.6133 13.6867 27.5689 13.5154C27.5434 13.613 27.705 14.0895 27.7102 14.1566C27.7115 14.1799 27.5749 14.0647 27.7784 14.4559C27.7678 14.4534 27.7568 14.4502 27.7463 14.4478C27.8012 14.6808 27.8572 14.9141 27.9121 15.1471C27.9273 15.1161 27.9367 14.9754 27.969 15.1416C27.9874 15.2365 27.9232 15.1804 27.923 15.1883C27.9315 15.2775 28.3274 16.7736 28.3957 17.0657C28.419 17.1655 28.4501 17.4505 28.4547 17.4716C28.4829 17.5988 28.6202 18.0363 28.6374 18.1268C28.6478 18.1828 28.5948 18.1411 28.6087 18.1894C28.6221 18.2344 28.6485 18.1791 28.654 18.1908C28.6968 18.3007 28.8637 19.1744 28.9521 19.3695C28.9096 19.2476 28.8306 18.6071 28.8607 18.6099C28.8667 18.6154 28.9322 18.7554 28.9262 18.7903C28.973 18.8334 28.9151 19.0372 28.9596 19.1285C28.9651 19.1381 29.0118 19.0822 29.0655 19.2507C29.084 19.3094 29.0793 19.4756 29.169 19.6188C29.2023 19.8514 29.5768 21.021 29.5357 21.1182C29.5294 21.1113 29.4696 20.9639 29.4728 21.0795C29.4773 21.2375 29.5572 21.0745 29.6114 21.247C29.6201 21.2756 29.7304 21.7588 29.7285 21.7809C29.7024 21.9422 29.5716 21.5361 29.5625 21.5331C29.5483 21.5545 29.6248 21.906 29.6335 21.9229C29.6416 21.9354 29.6529 21.6257 29.7087 21.9803C29.6886 21.9432 29.668 21.9059 29.6479 21.8688C29.6696 22.0367 29.732 22.038 29.7457 22.0766C29.788 22.1965 29.7333 22.3521 29.8925 22.5211C29.9347 22.5656 29.9454 22.4723 29.9514 22.4769C30.0064 22.5295 29.9225 22.6355 30.0243 22.7097C30.0316 22.7111 30.0244 22.4882 30.1206 22.8672C30.1064 22.8428 30.092 22.8182 30.0779 22.7938C30.075 22.8522 30.1622 23.2396 30.1797 23.2925C30.2298 23.4417 30.2507 23.2958 30.283 23.4503C30.1846 23.3712 30.2922 23.837 30.3489 23.7953C30.286 23.8808 30.4467 24.2605 30.4957 24.4457C30.5265 24.5627 30.5532 24.8107 30.5667 24.8469C30.5832 24.8908 30.6337 24.8635 30.6666 24.9419C30.6759 24.9646 30.6984 25.2191 30.8088 25.4188C30.8307 25.4575 30.9442 25.5207 30.9478 25.4382C30.9538 25.2964 30.8169 25.0662 30.8716 25.055C30.9307 25.0455 30.9807 25.3893 31.0112 25.4778C31.1505 25.8816 31.1536 25.6352 31.1744 25.6351C31.2269 25.6514 31.2836 25.8791 31.2904 25.8888C31.3186 25.9236 31.3144 25.7539 31.3414 25.7436C31.3772 25.7326 31.4977 25.9339 31.4975 25.8813C31.4964 25.8053 31.3908 25.6177 31.3897 25.6034C31.3827 25.4283 31.524 25.6351 31.5812 25.6881C31.5987 25.704 31.6004 25.623 31.6081 25.6379C31.7253 25.8651 31.5036 25.7185 31.5558 25.8761C31.6013 26.0136 31.6108 25.8283 31.6153 25.8235C31.6211 25.8323 31.6671 26.0007 31.6932 26.0227C31.7061 26.0309 31.7007 25.5611 31.753 25.5663C31.7785 25.7113 31.8041 25.8566 31.8296 26.0016C31.8947 25.9969 31.7971 25.804 31.7978 25.7806C31.8001 25.7354 31.862 25.8449 31.8808 25.8358C31.8926 25.8285 31.9025 25.6795 31.9525 25.7998C31.9699 25.8415 31.949 25.9439 32.0337 26.0903C31.9522 25.5292 32.0825 25.8951 32.1095 25.9086C32.1357 25.9188 32.1216 25.644 32.1929 25.9646C32.3181 25.9476 32.2295 25.9473 32.2279 25.8516C32.2264 25.735 32.3311 25.9795 32.1983 25.5827C32.2611 25.5913 32.3398 25.9179 32.3488 25.9342C32.3567 25.948 32.366 25.8694 32.3821 25.8927C32.5691 26.1693 32.4666 25.9726 32.5592 26.0429C32.5681 26.0512 32.6661 26.3296 32.621 26.1084C32.5383 25.7043 32.4157 25.5578 32.571 25.4469C32.7204 25.7231 32.7004 26.1085 32.7211 26.1999C32.7529 26.3371 32.7524 26.1894 32.7663 26.2014C32.7709 26.2064 32.7979 26.3244 32.8014 26.3271C32.9543 26.3781 32.6702 25.7989 32.6441 25.6C32.6769 25.6466 32.7098 25.6936 32.7425 25.7403C32.7256 25.67 32.7083 25.5989 32.6913 25.5286C32.8155 25.8525 32.7102 25.5372 32.7955 25.4267C32.8146 25.4037 32.8288 25.6302 32.832 25.364C32.8941 25.5448 32.9005 25.481 32.9128 25.6558C32.9544 25.6407 32.9077 25.2529 32.892 25.0986C33.0725 25.6102 32.8402 25.3515 33.0379 25.7836C33.0063 25.8794 32.9621 25.6631 32.9576 25.6814C32.9424 25.7527 33.0293 25.8888 32.9647 26.0956C32.9535 26.1282 32.8678 26.0206 32.9165 26.2016C32.922 26.2214 32.9955 26.3212 33.0018 26.3236C33.0348 26.299 32.9932 26.1893 33.0063 26.1788C33.0198 26.1707 33.0436 26.2983 33.0482 26.3005C33.0953 26.2923 33.0391 26.1897 33.0575 26.2017C33.0989 26.2306 33.3146 26.6627 33.1331 26.0691C33.2071 26.5829 33.0979 26.1461 33.0687 25.946C33.0613 25.8952 33.0856 25.8752 33.0773 25.8021C33.0668 25.7083 33.0268 25.6055 33.0197 25.5568C33.0125 25.5046 33.1514 25.7754 33.0264 25.364C33.1455 25.5596 33.1704 25.9516 33.269 26.1483C33.4683 26.5449 33.3085 25.8269 33.2985 25.7498C33.2965 25.7304 33.3482 25.7845 33.3489 25.7732C33.347 25.7507 33.228 25.3506 33.2487 25.302C33.2696 25.255 33.2843 25.4496 33.3196 25.4552C33.3436 25.4582 33.2589 24.96 33.3406 25.2198C33.3969 25.3991 33.3946 25.7567 33.5026 25.7907C33.4425 25.5207 33.3829 25.2502 33.3229 24.9803C33.3958 25.1178 33.4688 25.2557 33.5418 25.3932C33.477 25.0897 33.3708 24.8398 33.3498 24.5412C33.6368 25.1943 33.3883 24.3067 33.3962 24.2816C33.4037 24.2761 33.5655 24.5218 33.5939 24.5616C33.5691 24.3129 33.4025 23.5814 33.6255 23.9777C33.5806 23.908 33.5969 23.7095 33.6026 23.7048C33.6594 23.7163 33.7294 24.1304 33.7586 24.0541C33.7924 23.9635 33.6931 23.873 33.6688 23.7529C33.545 23.137 33.8523 23.2364 33.656 22.6371C33.6684 22.6468 33.6812 22.6562 33.6936 22.6659C33.5105 22.0061 33.3273 21.3462 33.1442 20.6865C33.1596 20.4062 33.0341 19.7019 32.9392 19.3647C32.9197 19.2958 32.7925 18.9721 32.7786 18.9487C32.7528 18.9065 32.812 19.1645 32.7559 19.0555C32.7442 19.0323 32.5829 18.4697 32.6383 18.498C32.6597 18.5609 32.6874 18.7653 32.7064 18.7951C32.8398 19.0022 32.3378 17.2748 32.3447 17.1745C32.3692 17.2094 32.3941 17.2444 32.4186 17.2793C32.3834 17.1707 32.3477 17.0613 32.3125 16.9526C32.3109 17.0006 32.3094 17.0496 32.3079 17.0975C32.2674 16.9726 32.233 16.7988 32.1909 16.684C32.1838 16.6663 32.1595 16.7245 32.1464 16.6799C32.1332 16.6347 32.1867 16.6302 32.1753 16.5626C32.1624 16.4865 32.0405 16.1544 32.0114 16.0361C31.9031 15.5938 31.8197 15.1408 31.6865 14.7039C31.7645 15.1699 31.6096 14.7199 31.5934 14.5878C31.5904 14.5586 31.6856 14.5381 31.5462 14.0872C31.4573 13.7998 31.3901 14.1023 31.3348 13.5993C31.524 13.949 31.4235 13.5834 31.3525 13.2897C31.3398 13.2377 31.2227 12.8347 31.1813 12.6538C31.1672 12.5918 31.1934 12.4854 31.1741 12.4034C31.1608 12.347 31.1231 12.311 31.1033 12.2273C31.0107 11.8363 30.9155 11.4521 30.8076 11.0643C30.738 11.3242 30.7075 10.8991 30.6968 10.8824C30.6392 10.7996 30.7358 11.2204 30.6724 11.0607C30.6175 10.8275 30.5623 10.5941 30.5075 10.3609C30.5712 10.5464 30.5502 10.0808 30.488 10.0098C30.6095 10.0172 30.1222 8.97582 30.1174 8.79927C30.1168 8.76326 30.229 8.97516 30.0704 8.45548C30.0532 8.39947 30.0253 8.42849 30.0206 8.39874C30.018 8.38033 30.0981 8.24431 30.0096 8.1438C29.9771 8.10729 29.9739 8.39435 29.8522 7.79419C30.0219 8.00262 29.704 6.95654 29.6272 6.76862C29.6518 6.80379 29.6761 6.83965 29.7007 6.87483C29.6122 6.69241 29.6402 6.64767 29.6273 6.60482C29.5748 6.43211 29.4767 6.20091 29.4388 6.03724C29.3947 5.84606 29.4628 5.82784 29.3802 5.61286C29.4085 5.66155 29.4367 5.71026 29.465 5.75896C29.4226 5.60656 29.3803 5.45396 29.3378 5.30157C29.3374 5.67873 29.3139 5.22809 29.3086 5.19732C29.3004 5.15111 29.2801 5.22491 29.2655 5.14796C29.2659 5.14047 29.3012 5.13998 29.2761 5.02456C29.2223 4.77854 29.1878 4.82776 29.1623 4.72514C29.1611 4.71655 29.1998 4.73872 29.1629 4.56218C29.1439 4.47133 29.1295 4.40982 29.1202 4.37047C29.1642 4.28626 29.2132 4.19497 29.2331 4.16896C29.2302 4.18466 29.1246 4.46288 29.1641 4.41363C29.2401 4.31709 29.6406 3.47319 29.6683 3.40004C29.7436 3.19847 29.3923 3.87058 29.3361 3.9165C29.3356 3.90316 29.5527 3.32199 29.5555 3.30244C29.5212 3.24278 29.2457 3.9059 29.2339 3.81374C29.302 3.64763 29.3703 3.48225 29.4375 3.3182C29.2974 3.55926 29.1235 3.90192 28.9526 4.2419C28.9459 4.21741 28.9381 4.19162 28.9328 4.16498C29.1219 3.74409 29.2321 3.4456 29.1678 3.41312C29.1313 3.39562 29.0042 3.59025 28.9349 3.69185C28.9305 3.67267 28.9249 3.65565 28.921 3.6399C28.9979 3.46003 29.1876 3.14189 29.1949 3.12295C29.1997 3.10611 29.2005 3.09674 29.1985 3.09465C29.1829 3.08574 29.0316 3.36037 28.9072 3.59012C28.8563 3.40485 28.8619 3.56884 28.8509 3.55095C28.8323 3.51924 28.8244 3.39311 28.8175 3.37869C28.8074 3.35869 28.7988 3.44135 28.7668 3.35662C28.7621 3.33989 28.7752 3.19111 28.8437 3.36536C28.7753 3.12411 28.8213 3.13344 28.7177 3.07211C28.7839 2.9523 28.7315 2.93783 28.6711 2.93498L28.1396 0L25.6296 2.04279ZM43.8202 145.967C43.9385 146.039 45.368 146.476 45.3541 146.43C45.3242 146.39 44.0423 146.038 43.8202 145.967ZM42.2588 146.483C41.933 146.436 43.6079 147.019 43.9399 147.06C43.6023 146.935 42.8485 146.73 42.5473 146.618C42.5125 146.605 42.7401 146.556 42.2588 146.483ZM43.0464 146.244C43.0202 146.259 43.5549 146.432 43.6051 146.443C43.914 146.514 43.2484 146.295 43.0464 146.244ZM41.1726 146.529C41.0039 146.392 41.3776 146.546 41.5056 146.572C41.6222 146.596 41.71 146.578 41.9511 146.681C41.6906 146.631 41.4309 146.58 41.1726 146.529ZM40.5031 144.59C40.4855 144.606 41.1322 144.835 41.1648 144.844C41.5096 144.935 40.7318 144.659 40.5031 144.59ZM37.4201 146.313C37.3777 146.274 37.8657 146.438 37.9708 146.487C38.132 146.563 37.4897 146.377 37.4201 146.313ZM38.6845 143.667C39.5366 144.047 38.7511 143.727 38.7151 143.748C38.5599 143.835 39.933 144.136 40.3073 144.294C40.3612 144.318 39.9244 144.207 40.0673 144.271C40.5327 144.482 42.108 144.804 40.483 144.278L40.4835 144.279C40.0656 144.141 40.3071 144.261 40.2905 144.256C39.3914 143.987 39.623 143.988 39.4898 143.93C39.1815 143.796 39.1978 143.901 38.6845 143.667ZM38.7871 143.596C38.7455 143.585 39.289 143.889 39.476 143.886C39.6167 143.883 38.8928 143.628 38.7871 143.596ZM33.4092 144.888C33.454 144.905 34.3082 145.288 34.2088 145.264C34.0105 145.218 33.2755 144.844 33.4092 144.888ZM31.4561 144.252C31.6475 144.396 32.2214 144.628 32.5205 144.78C32.9308 144.991 33.583 145.478 33.346 145.174C32.7315 144.885 32.1053 144.58 31.4561 144.252ZM32.2025 144.266C32.3392 144.28 32.8329 144.549 33.1263 144.669C33.0239 144.662 32.4606 144.393 32.2025 144.266ZM31.8104 144.163C31.9665 144.182 32.4673 144.453 32.7513 144.58C32.6355 144.577 32.1209 144.299 31.8104 144.163ZM31.954 144.263C32.2551 144.403 32.8255 144.649 32.6369 144.607C32.6286 144.608 31.9598 144.291 31.954 144.263ZM30.233 143.61C30.0017 143.52 30.6416 143.878 30.9077 143.973C30.9221 143.953 30.2768 143.629 30.233 143.61ZM23.3168 139.624C23.3083 139.653 23.7643 139.931 23.9332 140.045C23.9045 139.989 23.4918 139.734 23.3168 139.624ZM22.3473 138.912C22.3094 138.891 21.9918 138.806 22.5254 139.14C22.9224 139.385 22.6821 139.097 22.3473 138.912ZM19.0004 136.373C19.0716 136.411 19.0833 136.408 19.0598 136.383C19.0328 136.368 19.0117 136.363 19.0004 136.373ZM17.7719 135.322C17.3753 134.913 18.2414 135.677 18.2174 135.695C18.2035 135.7 17.7919 135.342 17.7719 135.322ZM14.4148 132.133C14.4146 132.106 15.604 133.319 15.6724 133.422C15.4834 133.226 14.4161 132.173 14.4148 132.133ZM17.4701 129.895C17.4992 129.935 18.2946 130.721 18.2591 130.648C18.1197 130.452 17.3549 129.752 17.4701 129.895ZM11.5661 128.813C11.5977 128.848 11.9588 129.304 11.9353 129.308C11.7293 129.103 11.43 128.674 11.5661 128.813ZM13.1612 124.899C13.067 124.747 13.518 125.304 13.4923 125.33C13.4813 125.337 13.1763 124.924 13.1612 124.899ZM9.43813 125.905C9.73539 126.196 10.0774 126.965 9.71244 126.42C9.67634 126.367 9.42346 125.892 9.43813 125.905ZM9.07533 125.478C9.06586 125.459 9.20636 125.567 9.22558 125.596C9.51672 126.033 9.22617 125.771 9.07533 125.478ZM8.3531 124.303C8.30514 124.114 8.73779 124.897 8.84756 125.035L8.84856 125.036C8.87735 125.069 8.54592 124.321 9.11464 125.37C8.75568 124.856 9.09467 125.396 9.09342 125.415C9.04811 125.413 8.48954 124.498 8.3531 124.303ZM7.73684 122.067C7.82167 122.198 8.62044 123.574 8.46053 123.391C8.39968 123.326 7.96873 122.52 7.94393 122.479C7.90795 122.425 8.01021 122.703 7.77464 122.275C7.80224 122.289 7.70637 122.024 7.73684 122.067ZM7.75284 122.919C7.74416 122.908 7.72477 122.953 7.73194 122.968C7.91575 123.347 7.97289 123.212 7.75284 122.919ZM7.64216 122.278C7.5945 122.151 7.8139 122.464 7.88714 122.61C7.90404 122.646 7.70352 122.44 7.64216 122.278ZM7.21148 121.491C7.08708 121.214 7.48519 121.79 7.59241 122.091C7.64573 122.246 7.23553 121.546 7.21148 121.491ZM6.67056 121.224C6.76042 121.385 7.08344 121.988 7.10864 121.999C7.1391 122.005 6.75304 121.251 6.67056 121.224ZM6.5139 120.996C6.4304 120.867 6.65222 121.362 6.62575 121.323C6.56317 121.227 6.51623 121.148 6.48151 121.085C6.69873 121.52 6.94082 121.966 6.97296 122.006C7.11771 122.185 6.77731 121.605 6.76808 121.582C6.75971 121.552 7.0866 121.873 6.5139 120.996ZM7.08858 120.909C7.4082 121.368 7.36456 121.535 7.16427 121.167C7.0864 121.024 7.04344 120.845 7.08858 120.909ZM6.68723 120.37C6.65279 120.219 6.76955 120.451 6.82448 120.525C7.16032 120.98 6.94004 120.797 6.68723 120.37ZM6.27043 120.536C5.92507 119.901 6.13866 120.388 6.4232 120.966C6.34117 120.778 6.38725 120.748 6.27043 120.536ZM6.38564 120.165C6.43307 120.184 6.7306 120.851 6.64509 120.722C6.58866 120.639 6.35606 120.157 6.38564 120.165ZM5.59836 119.076C5.65547 119.279 5.97173 119.891 6.12071 120.154C6.06272 119.947 5.74965 119.381 5.59836 119.076ZM5.87807 118.561C5.87475 118.501 5.9735 118.736 6.05841 118.89L6.05791 118.889C6.15389 119.065 6.40107 119.536 6.53093 119.881C6.307 119.444 6.08908 119.003 5.87807 118.561ZM5.62865 118.64C5.58866 118.571 5.03005 117.376 5.18072 117.603C5.22473 117.696 6.24958 119.855 5.62865 118.64ZM8.23805 116.154C8.29678 116.295 8.58693 116.898 8.5792 116.915C8.56057 116.935 8.23059 116.244 8.23805 116.154ZM5.30358 117.63C5.43291 117.876 5.69057 118.528 5.58438 118.345C5.51629 118.232 5.15225 117.348 5.30358 117.63ZM4.01975 115.58C4.00145 115.608 4.29467 116.298 4.36189 116.472C4.44593 116.695 4.29465 116.446 4.45663 116.811C4.55877 117.038 4.57667 116.882 4.60068 116.928C4.62107 116.973 4.92626 117.787 4.8626 117.442L4.8631 117.442C4.84255 117.341 4.58242 116.762 4.51857 116.63C4.50747 116.608 4.49371 116.73 4.38838 116.463C4.30454 116.249 4.49024 116.544 4.31255 116.132C4.1349 115.717 4.31762 116.288 4.30217 116.258C4.27646 116.208 4.04505 115.551 4.01975 115.58ZM3.67832 114.232C3.53574 113.871 3.62144 114.244 3.72573 114.481C3.73552 114.501 3.80412 114.547 3.67832 114.232ZM3.19408 112.676C3.16758 112.613 2.7414 111.195 2.85823 111.751C2.87004 111.851 3.56277 113.874 3.67256 114.131C3.7611 114.211 3.40459 113.369 3.34036 113.154C3.32919 113.117 3.36634 113.077 3.30176 112.87C3.27758 112.793 3.20438 112.704 3.19408 112.676ZM2.13805 109.737C2.14101 109.886 2.27333 110.324 2.3608 110.62C2.3552 110.471 2.22029 110.034 2.13805 109.737ZM2.13184 109.553C2.11122 109.582 2.27848 110.211 2.31109 110.292C2.35823 110.414 2.19672 109.751 2.13184 109.553ZM2.43345 109.18C2.3555 109.003 2.55611 109.87 2.64701 110.057C2.7531 110.281 2.44899 109.229 2.43345 109.18ZM1.47732 105.197C1.4962 105.121 1.63446 105.874 1.64295 105.895C1.65526 105.926 1.76963 106.023 1.78764 106.091C1.8102 106.209 2.2614 108.189 2.37345 108.502C2.0196 107.685 2.15409 107.743 2.13566 107.67C2.09573 107.509 1.97088 107.146 1.91092 106.843C1.9709 107.191 2.03481 107.542 2.1019 107.894C2.01187 107.617 1.45571 105.265 1.47732 105.197ZM1.31534 104.325C1.35018 104.504 1.44619 104.892 1.46587 105.031C1.51985 105.422 1.30255 104.469 1.31534 104.325ZM1.11599 103.333C1.18339 103.524 1.27482 104.068 1.21125 103.914C1.20479 103.899 1.10272 103.42 1.11599 103.333ZM0.89526 102.195C0.851412 102.044 0.834475 101.609 0.902345 101.86C0.928424 102.007 0.901142 102.203 0.89526 102.195ZM0.918911 101.676C0.867235 101.457 0.718218 100.33 0.81003 100.799C0.81718 100.845 0.940789 101.67 0.918911 101.676ZM0.621056 100C0.683604 100.24 0.723445 100.923 0.687732 100.751C0.661271 100.629 0.556552 99.7604 0.621056 100ZM0.595309 99.5413C0.590367 99.056 0.685064 100.043 0.726881 100.387C0.700829 100.405 0.595422 99.5813 0.595309 99.5413ZM0.207657 96.5501C0.173206 96.8191 0.352284 98.5395 0.374025 98.2952C0.386092 98.101 0.256381 96.8241 0.207657 96.5501ZM0.0299889 94.3933C0.0439189 94.5886 0.0553655 95.1452 0.0821735 95.1138C0.072658 94.807 0.0752279 94.4955 0.0299889 94.3933ZM0.277807 94.2865C0.258458 94.0883 0.219146 94.0323 0.224464 93.9397C0.226373 93.908 0.2624 93.9009 0.267895 93.7932C0.270922 93.9576 0.273818 94.1224 0.277807 94.2865ZM0.255467 92.8592L0.255967 92.86C0.25788 93.1267 0.2615 93.394 0.265903 93.6602C0.251097 93.3616 0.19998 92.7963 0.255467 92.8592ZM0.22743 91.6854C0.349373 92.9289 0.149592 92.2557 0.162194 92.0336C0.163939 92.0024 0.224059 91.6581 0.22743 91.6854ZM0.0923509 91.3407C0.0690761 90.9591 0.0997196 90.2547 0.128687 90.5856C0.134197 90.6606 0.110502 91.3236 0.0923509 91.3407ZM3.33381 87.4051C3.3936 87.1243 3.33493 88.5752 3.27595 88.6961C3.27039 88.5058 3.32501 87.4477 3.33381 87.4051ZM0.113508 89.8681C0.102636 89.6575 0.125747 88.9528 0.14492 89.2649C0.152795 89.3999 0.138359 89.8244 0.113508 89.8681ZM3.22931 85.9506C3.23465 85.8904 3.35893 85.5347 3.37615 85.5868C3.34383 86.0428 3.17909 86.5171 3.22931 85.9506ZM4.03133 79.023C4.01886 78.9631 3.75487 81.0724 3.75885 81.1628C3.7593 81.2153 3.84641 81.2024 3.84954 81.2577C3.8488 81.2963 3.73714 82.144 3.73619 82.2554C3.73565 82.2877 3.73655 82.3128 3.737 82.3311C3.72116 82.1991 3.65689 82.9764 3.68962 82.9551C3.70228 82.9382 3.73967 82.4175 3.74036 82.3882C3.74022 82.3799 3.73934 82.3719 3.73908 82.3651C3.75898 82.474 3.92965 80.6648 3.94134 81.0608C4.02061 80.5388 3.86243 81.1252 3.9278 80.7368C3.95062 80.6043 4.0616 80.4884 4.08826 79.7838L4.0881 79.7816C4.09612 79.5765 4.0467 79.8032 4.04191 79.7671C4.04005 79.7426 4.06206 79.1141 3.99469 79.6384C3.89321 80.4452 4.05967 79.7236 4.01375 80.1546C4.00644 80.2127 3.87027 81.0086 3.8627 80.969C3.86193 80.9626 3.89841 80.7193 3.89798 80.6773C3.89526 80.5239 3.85667 80.5925 3.85689 80.5722C3.85884 80.5 4.05293 79.2181 4.03133 79.023ZM3.61386 81.6518C3.63326 82.0371 3.57214 82.6828 3.51308 82.5181C3.58087 81.8018 3.56931 82.6121 3.61386 81.6518ZM3.7705 79.2968C3.84843 78.9171 3.78545 79.8135 3.74207 79.9755C3.72009 80.0514 3.73587 79.4643 3.7705 79.2968ZM0.502879 80.7214C0.471529 80.7856 0.355943 81.701 0.390777 81.7536C0.437884 81.8176 0.489215 80.8971 0.502879 80.7214ZM4.69634 75.0628C4.72638 74.7823 4.72396 74.4659 4.68899 74.6158C4.67984 74.6563 4.62555 75.2259 4.5806 75.5094C4.44665 76.3547 4.43234 76.1347 4.42356 76.184C4.41401 76.2419 4.3724 76.7768 4.33229 77.0663C4.23117 77.7963 4.15779 78.1275 4.07811 79.1281C4.17746 78.5571 4.20773 78.8794 4.26637 78.2369C4.25064 78.2896 4.23472 78.3432 4.21906 78.3959C4.35362 77.4851 4.45295 76.4203 4.61063 75.3652C4.65034 75.1 4.659 75.4125 4.69634 75.0628ZM0.881145 78.349C0.946752 77.1567 0.349126 82.9218 0.786906 79.5923C0.751809 79.7471 0.716626 79.9025 0.68217 80.0573C0.712376 79.6316 0.778448 79.1094 0.808804 79.1028C0.805302 79.0934 0.802744 79.0719 0.801775 79.0377C0.800772 79.0022 0.866969 78.5485 0.881145 78.349ZM4.48476 74.3249C4.5033 74.1196 4.62818 73.4393 4.60067 73.7509C4.59526 73.8024 4.50379 74.3385 4.48476 74.3249ZM5.54917 68.6779C5.57263 68.7063 5.43849 69.3177 5.43582 69.2333C5.43552 69.1996 5.52703 68.6641 5.54917 68.6779ZM6.62735 65.0388C6.65809 64.6805 6.38864 66.0673 6.35774 66.1615C6.3911 66.2564 6.61766 65.1312 6.62735 65.0388ZM3.08995 65.1245C3.03469 65.2704 2.84718 66.1086 2.84475 66.2634C2.93243 65.9165 3.00831 65.4901 3.08995 65.1245ZM3.32238 64.2502C3.28783 64.293 3.12714 65.0082 3.13137 65.1044C3.19221 64.8969 3.26159 64.5106 3.32238 64.2502ZM7.95274 59.5625C8.99305 55.8524 8.65128 56.6395 7.86843 59.7777C7.90136 59.791 7.88893 59.7959 7.95274 59.5625ZM7.85481 58.7863C7.78381 59.0271 7.6309 59.6568 7.57605 59.7622C7.65812 59.4662 7.82369 58.6928 7.85481 58.7863ZM8.61346 55.8335C8.64816 55.713 8.6843 55.7345 8.68168 55.7496C8.59852 56.2285 8.51556 56.175 8.61346 55.8335ZM9.2588 54.805C9.18551 54.9301 9.07509 55.353 8.997 55.6377C9.03554 55.5915 9.19303 55.008 9.2588 54.805ZM8.87242 55.0628C8.8178 55.2324 8.74602 55.5758 8.73616 55.6045C8.64138 55.8755 8.71114 55.3816 8.87242 55.0628ZM5.59659 55.3507C5.57311 55.3161 5.09173 56.8613 5.08361 56.9233C5.02013 57.3405 5.5267 55.7073 5.59659 55.3507ZM9.08293 54.371C9.11367 54.1531 9.2734 53.8726 9.24333 54.0718C9.19128 54.2635 9.08195 54.3906 9.08293 54.371ZM9.81021 52.8889C9.77797 52.8028 9.55558 53.6932 9.46009 53.9948C9.49281 54.0763 9.71137 53.1911 9.81021 52.8889ZM5.96403 53.7114C5.71147 54.3655 5.46994 55.2434 5.75214 54.0367C5.2422 55.774 5.50644 55.066 5.49047 55.1365C5.47217 55.2206 5.3795 55.4803 5.36999 55.537C5.15556 56.8446 5.74045 54.3971 5.96403 53.7114ZM5.87888 54.1158C5.80584 54.2706 5.79755 54.5536 5.81183 54.5162C5.86641 54.3645 5.93599 53.995 5.87888 54.1158ZM5.93922 53.5306C6.04989 53.1499 5.86658 53.5467 5.83076 53.7567C5.8181 53.8327 5.9112 53.6265 5.93922 53.5306ZM6.5663 51.3714C6.43402 51.6342 6.16556 52.6749 6.33784 52.199C6.36356 52.1271 6.50127 51.5685 6.5663 51.3714ZM10.8708 48.736C10.9213 48.7226 10.5918 49.6699 10.6771 49.2825C10.6985 49.1848 10.8532 48.7417 10.8708 48.736ZM11.501 47.6802C11.413 47.8318 11.2176 48.4797 11.1223 48.7782C11.2246 48.5987 11.3842 48.0366 11.501 47.6802ZM7.05004 49.9595C7.63472 47.9936 7.07605 49.8202 6.91751 50.2978C6.85715 50.4781 6.87158 50.3163 6.81586 50.4801L6.81636 50.4809C6.37879 51.7791 6.66487 51.5255 7.12548 49.8076C7.10024 49.8579 7.07525 49.9092 7.05004 49.9595ZM7.49806 48.6917C7.45185 48.7497 7.27667 49.3271 7.21045 49.5307C7.28697 49.4049 7.40982 48.9782 7.49806 48.6917ZM7.52311 48.2151C7.54659 48.1222 7.5924 47.7663 7.45714 48.1465C7.53366 48.1593 7.37236 48.7615 7.21278 49.0313C7.21524 49.2343 7.4192 48.6247 7.52311 48.2151ZM12.6361 43.923C12.5957 43.9479 12.4233 44.5266 12.3477 44.734C12.3882 44.7066 12.5597 44.129 12.6361 43.923ZM8.65213 44.8538C8.69612 44.6789 9.20469 43.2091 9.06742 43.7408C9.04766 43.8087 8.50365 45.4263 8.65213 44.8538ZM9.58506 41.9892C9.52495 42.1744 9.36639 42.6313 9.32766 42.6748C9.28026 42.7259 9.52263 42.0622 9.58506 41.9892ZM10.1478 41.0225C10.1712 40.9544 10.626 39.5023 10.2703 40.8027C10.2499 40.8741 9.89999 41.751 9.99635 41.3709C10.0634 41.1068 10.1261 41.0823 10.1478 41.0225ZM33.5934 25.8457C33.5858 26.0962 33.5485 25.8713 33.5331 25.9237C33.5216 25.9663 33.5734 26.0975 33.5107 26.0292C33.5833 26.1216 33.6846 26.5724 33.6987 26.5981C33.7063 26.6092 33.8036 26.552 33.7672 26.4709C33.6531 26.2174 33.6399 26.4257 33.5934 25.8457ZM33.3591 26.2936C33.314 26.2076 33.3514 26.4148 33.3794 26.4725C33.4018 26.4729 33.3658 26.3069 33.3591 26.2936ZM15.0578 36.6968C14.9798 36.9283 14.6095 37.9029 14.7252 37.5137C14.743 37.453 15.0233 36.7107 15.0578 36.6968ZM33.2564 26.2968C33.1931 26.1868 33.2379 26.4926 33.294 26.5143C33.3045 26.518 33.2685 26.318 33.2564 26.2968ZM33.6208 25.785C33.601 25.8325 33.6939 26.2678 33.7286 26.2517C33.7587 26.2339 33.638 25.8536 33.6208 25.785ZM10.4515 39.6384C10.5231 39.4549 11.3692 37.0612 11.233 37.5895C11.2061 37.6801 10.4699 39.7814 10.4515 39.6384ZM33.0931 25.7142C33.0723 25.7173 33.1072 25.8775 33.1143 25.8927C33.1595 25.9792 33.1212 25.7719 33.0931 25.7142ZM32.5924 25.6297C32.5179 25.5489 32.5988 26.0777 32.6724 26.1584C32.6696 26.0495 32.5858 25.8301 32.5764 25.7325C32.5754 25.7211 32.7034 25.7514 32.5924 25.6297ZM10.6252 38.9765C10.663 38.8113 10.8447 38.4458 10.7891 38.6888C10.7192 38.8933 10.6176 39.0119 10.6252 38.9765ZM13.2635 32.5387C13.2538 32.5956 12.9035 33.5817 12.8824 33.6404C12.4774 34.7354 11.714 36.7482 11.2949 37.8858C11.1856 38.1813 11.2132 38.0293 11.1652 38.1564C11.1278 38.2561 11.2183 38.1549 11.0762 38.4858C11.009 38.6419 11.1402 38.1309 11.0898 38.2378C11.0571 38.3077 10.9438 38.6723 10.8862 38.781C10.8699 38.8092 10.9568 38.4274 10.9979 38.3221C11.056 38.1732 11.0402 38.3321 11.1008 38.1686C11.3032 37.623 11.4535 37.1374 11.6477 36.6224C11.6654 36.5758 11.5564 36.9468 11.7054 36.5494C11.7286 36.4874 11.8284 36.1035 12.014 35.6331C12.5328 34.6351 12.7077 33.8254 13.2635 32.5387ZM33.6456 24.0248C33.5087 24.0278 33.7967 24.3683 33.8043 24.5101C33.8049 24.5292 33.7292 24.4025 33.7296 24.4535C33.7313 24.6197 34.0532 25.0528 33.8876 24.5411L33.8881 24.542C33.8449 24.4087 33.8338 24.4999 33.8311 24.4941C33.7105 24.2178 33.8034 24.2751 33.8008 24.2279C33.795 24.1266 33.7088 24.1645 33.7045 23.992C33.7181 24.2753 33.6793 24.0254 33.6456 24.0248ZM33.6188 24.6491C33.5989 24.6516 33.6462 24.8615 33.6506 24.8701C33.7023 24.9716 33.649 24.719 33.6188 24.6491ZM32.1471 25.4245C32.2053 25.3461 32.2092 25.4717 32.2333 25.5061C32.2554 25.5375 32.3047 25.5493 32.3013 25.6316C32.2499 25.5627 32.1986 25.4934 32.1471 25.4245ZM19.1144 26.7956C18.7119 27.8395 18.28 28.7855 17.8569 29.789C18.0549 29.5235 17.1904 31.2543 17.7051 30.2456C17.4808 30.7175 15.8005 34.8998 15.6906 35.2585L15.6903 35.2598C15.6545 35.3703 15.8154 35.3689 15.9359 34.8995C15.9518 34.838 15.8078 35.0975 15.8173 35.0476C15.8255 35.0109 16.1835 34.0365 16.2056 33.9905C16.2282 33.9443 16.2511 34.0178 16.2752 33.9718C16.3024 33.9186 16.4982 33.305 16.6216 32.9931C16.8591 32.3929 16.9226 32.3427 16.9424 32.2935C16.9998 32.1506 17.0694 31.8993 17.1855 31.6107C17.7734 30.1455 18.6974 28 19.1144 26.7956ZM33.808 23.9882C33.8012 23.9767 33.7558 24.1782 33.8334 24.2119C33.8926 24.2371 33.8252 24.0194 33.808 23.9882ZM11.2394 37.4038C11.3027 37.2396 11.4608 36.9976 11.3495 37.312C11.3095 37.3674 11.1033 37.7581 11.2394 37.4038ZM11.4605 36.7966C11.605 36.4044 11.9698 35.4362 11.769 36.1203C11.7297 36.2539 11.5942 36.595 11.5293 36.7784C11.6976 36.181 11.5036 36.8376 11.4605 36.7966ZM30.8531 24.6408C30.8703 24.6209 30.9259 24.7595 30.9254 24.7944C30.9239 24.8478 30.8262 24.674 30.8531 24.6408ZM12.0859 35.3991C12.0347 35.5341 11.8202 36.0786 11.8073 36.0872C11.764 36.1116 12.0348 35.4474 12.0859 35.3991ZM30.3348 23.4763C30.3418 23.4875 30.4036 23.7639 30.378 23.7393C30.3289 23.6905 30.3111 23.439 30.3348 23.4763ZM29.9507 22.9561C29.9223 23.034 29.998 23.191 30.0102 23.2923C30.0266 23.4325 29.9096 23.7072 30.0598 23.5641C30.0232 23.3615 29.9872 23.1587 29.9507 22.9561ZM30.2967 23.0692C30.3487 23.0925 30.3561 23.2626 30.3901 23.3535C30.3486 23.3344 30.3112 23.1459 30.2967 23.0692ZM13.1284 32.3293C12.3491 34.2257 12.3901 34.5302 13.0193 32.7583C13.0321 32.7216 13.1875 32.2197 13.1284 32.3293ZM30.1961 22.9768C30.2558 23.0077 30.2627 23.1656 30.2895 23.2611C30.2371 23.2376 30.2307 23.0679 30.1961 22.9768ZM30.1809 23.0314C30.2065 23.1208 30.2657 23.2965 30.2122 23.2515C30.2063 23.2417 30.1596 23.0386 30.1809 23.0314ZM29.8859 22.5615C29.8452 22.498 29.8672 22.7109 29.9171 22.7816C29.9417 22.7768 29.8929 22.5745 29.8859 22.5615ZM13.768 31.3179C13.847 31.0758 14.0279 30.7454 13.8976 31.1042C13.7833 31.4194 13.7621 31.3384 13.768 31.3179ZM29.2591 20.3132C29.233 20.3238 29.2937 20.4689 29.3048 20.5271C29.3315 20.5043 29.2814 20.3704 29.2591 20.3132ZM29.2066 19.9602C29.1988 19.9492 29.0662 19.8883 29.1449 20.0607C29.2032 20.1873 29.2749 20.0593 29.2066 19.9602ZM15.7479 26.5997C15.8217 26.49 15.5761 27.097 15.4928 27.2625C15.4409 27.3049 15.7338 26.6236 15.7479 26.5997ZM15.7543 26.3549C15.6875 26.5094 15.5006 26.9974 15.4715 27.0284C15.4306 27.0744 15.7085 26.3746 15.7543 26.3549ZM28.8937 18.7835C28.9149 18.8019 28.9241 18.8011 28.9262 18.7903C28.9185 18.7833 28.9081 18.7806 28.8937 18.7835ZM17.4056 22.8379C17.4862 22.5484 17.9743 21.7249 17.9179 21.8876C17.8382 22.112 17.5202 22.7424 17.4238 22.8702C17.419 22.8998 17.3972 22.9752 17.3518 23.1099L17.3521 23.1085C17.2878 23.2732 15.0339 28.6745 16.4899 25.0259C16.5355 24.9123 16.5018 25.0786 16.6904 24.6186C16.7028 24.5883 16.6832 24.5617 16.7213 24.4683C16.8098 24.2511 17.2793 23.1102 17.3982 22.8923C17.3943 22.8883 17.3964 22.8706 17.4056 22.8379ZM32.104 16.256C32.1051 16.2758 32.198 16.6088 32.2155 16.5784C32.2409 16.496 32.1078 16.1955 32.104 16.256ZM28.7807 18.3233C28.7832 18.1497 28.8648 18.4796 28.833 18.4854C28.8209 18.4851 28.7819 18.3346 28.7807 18.3233ZM31.9349 15.8657C31.95 15.8885 32.0048 16.0569 32.0181 16.1083C31.984 16.1743 31.8677 15.7676 31.9349 15.8657ZM21.5209 21.1226C21.5314 20.984 21.1589 21.8821 21.1465 21.9189C21.0522 22.202 21.4418 21.3801 21.5209 21.1226ZM28.4276 17.0296C28.4502 17.0176 28.5698 17.4969 28.5463 17.5375C28.5405 17.4587 28.4095 17.0458 28.4276 17.0296ZM21.7177 20.1274C21.9763 19.6435 21.2883 21.2151 21.2414 21.2983C21.2419 21.2344 21.689 20.1818 21.7177 20.1274ZM31.5207 14.2695C31.52 14.2112 31.6107 14.4235 31.5735 14.4325C31.5614 14.433 31.5217 14.2803 31.5207 14.2695ZM17.7332 21.8067C17.6722 21.8779 17.3005 22.8115 17.3025 22.8595C17.4603 22.4976 17.5955 22.1592 17.7332 21.8067ZM28.15 15.792C28.1572 15.8031 28.1928 15.9704 28.1703 15.9709C28.1221 15.8973 28.1175 15.7429 28.15 15.792ZM18.1883 21.2181C18.1791 21.2444 17.9302 21.8538 17.9338 21.7599C17.9405 21.6167 18.2463 21.0381 18.1883 21.2181ZM22.9317 17.3681C22.9139 17.4123 22.5374 18.2843 22.5046 18.2993C22.554 18.1649 23.1208 16.8898 22.9317 17.3681ZM27.9114 14.7723C28.0203 14.8664 27.9162 15.1381 27.8861 14.9511C27.8834 14.933 27.9055 14.7755 27.9114 14.7723ZM18.6026 20.0386C18.6199 19.9828 18.5396 19.744 18.3503 20.3324C18.3172 20.4365 18.5272 20.0581 18.2432 20.7533C18.4659 20.2375 18.4934 20.3783 18.6026 20.0386ZM22.6734 18.0236C22.8417 17.4458 23.7122 15.9171 23.2113 16.9523C23.2027 16.9675 23.2494 16.7543 23.0721 17.1593C23.0574 17.1939 23.0756 17.2788 22.8256 17.785C22.7773 17.8825 22.6808 18.0197 22.6734 18.0236ZM27.8129 14.632C27.8152 14.6266 27.8805 14.6592 27.8827 14.6689C27.9155 14.8167 27.7995 14.7327 27.8129 14.632ZM22.7212 17.1695C22.6249 17.3711 22.3939 17.9457 22.3516 17.9664C22.4486 17.7617 22.6793 17.1887 22.7212 17.1695ZM27.7473 14.2379C27.7935 14.1708 27.8042 14.4353 27.8306 14.4805L27.8461 14.4531C27.8694 14.4014 27.9079 14.3206 27.8975 14.5907C27.8367 14.4159 27.8703 14.6084 27.858 14.6085C27.8231 14.608 27.7784 14.3007 27.7473 14.2379ZM28.1865 13.4529C28.2128 13.4943 28.311 13.9523 28.2495 13.8941C28.2276 13.8711 28.2006 13.6017 28.1945 13.5903C28.1852 13.575 28.1584 13.6678 28.1329 13.527C28.1514 13.53 28.1777 13.4392 28.1865 13.4529ZM19.076 18.6226C19.0545 18.6096 18.7745 19.2333 18.7564 19.284C18.6338 19.6251 18.9854 18.8538 19.076 18.6226ZM28.0163 13.5374C28.0275 13.4947 28.0879 13.5936 28.0894 13.6428C28.0892 13.6553 28.0023 13.593 28.0163 13.5374ZM22.7452 16.4434C22.7535 16.4291 22.7334 16.5675 22.7276 16.5835C22.4938 17.2278 22.567 16.7858 22.7452 16.4434ZM27.9592 13.2815C27.9607 13.1902 28.0812 13.3682 28.0491 13.4723C28.0328 13.5242 27.9608 13.3018 27.9592 13.2815ZM24.7088 13.2154C24.7269 13.1848 24.7699 13.1779 24.7641 13.1938C24.7077 13.3326 23.5672 15.7537 23.4045 16.0809C23.5304 15.7454 24.6396 13.3338 24.7088 13.2154ZM28.0825 13.0783C28.1855 13.22 28.0778 13.2848 28.0474 13.1663C28.0356 13.12 28.0677 13.0582 28.0825 13.0783ZM27.586 13.2278C27.6034 13.278 27.6446 13.4707 27.6618 13.4748C27.6885 13.4769 27.6511 13.2291 27.586 13.2278ZM27.5366 13.1583C27.5128 13.119 27.5162 13.2805 27.5076 13.2677C27.4901 13.2382 27.4796 13.2137 27.4736 13.1936C27.4968 13.3321 27.5269 13.4743 27.5388 13.4879C27.5928 13.5416 27.532 13.3618 27.5308 13.3505C27.5338 13.3402 27.7001 13.4295 27.5366 13.1583ZM30.8172 11.2063C30.8273 11.2528 30.8941 11.4523 30.8802 11.4587C30.8574 11.4668 30.7833 11.2402 30.8172 11.2063ZM27.932 12.9156C27.9586 12.8636 27.9753 12.9382 27.9954 12.9609C28.1185 13.0983 27.9945 13.0494 27.932 12.9156ZM24.6117 14.1909C24.4693 14.4065 24.1978 15.0236 24.0315 15.3704C24.0638 15.4176 24.4765 14.461 24.6117 14.1909ZM27.7397 12.8677C27.7765 12.8695 27.787 13.0875 27.7597 13.048C27.7423 13.0227 27.7172 12.8683 27.7397 12.8677ZM27.4965 13.0128C27.4263 12.8146 27.4375 12.9709 27.4668 13.1556C27.4664 13.0947 27.52 13.0794 27.4965 13.0128ZM27.8601 12.3355C27.878 12.3138 27.8868 12.3893 27.9092 12.4369C27.9348 12.4915 27.9887 12.6381 27.9764 12.7516C27.9377 12.613 27.8987 12.4741 27.8601 12.3355ZM27.4271 12.5494C27.4082 12.6167 27.4722 12.807 27.5065 12.8886C27.5327 12.819 27.4576 12.6438 27.4271 12.5494ZM27.5461 12.0645C27.5676 12.0911 27.7463 12.7648 27.6057 12.3894C27.5969 12.3655 27.4848 11.9995 27.5461 12.0645ZM27.6496 12.0608C27.6891 12.1346 27.7025 12.3428 27.6678 12.2876C27.6464 12.2537 27.604 11.9758 27.6496 12.0608ZM23.6871 14.3126C23.7346 14.2079 23.8092 14.2043 23.8035 14.2295C23.7457 14.4669 23.5376 14.6446 23.6871 14.3126ZM20.1575 15.99C19.8273 16.5975 20.096 16.2258 20.0912 16.2468C20.0761 16.2961 19.837 16.7231 19.923 16.6416C20.2496 16.0928 20.1835 15.9424 20.1575 15.99ZM27.0926 11.4833C27.0699 11.4975 27.1397 11.703 27.1475 11.7565C27.1572 11.8247 27.0947 11.7546 27.1323 11.8644C27.1558 11.933 27.2198 11.8761 27.2278 11.8893C27.2341 11.9012 27.2543 12.1585 27.3066 12.0424C27.3214 12.0084 27.2638 11.8317 27.2443 11.7931C27.2404 11.787 27.1902 11.8313 27.1741 11.7497C27.1613 11.6839 27.2455 11.7655 27.2042 11.6419C27.1622 11.5162 27.163 11.6973 27.1572 11.687C27.1493 11.6709 27.1254 11.4685 27.0926 11.4833ZM24.8529 13.1749C25.0463 12.9401 25.5611 11.7152 25.1417 12.5229C25.1016 12.6007 24.9759 12.9503 24.8529 13.1749ZM24.5303 12.8761C24.5411 12.858 24.5462 12.9749 24.5384 12.9964C24.3688 13.463 24.3438 13.193 24.5303 12.8761ZM26.3112 9.93674C26.0817 10.2677 25.9902 10.5784 25.774 11.0303C25.7151 11.1533 25.7057 11.1095 25.6994 11.1226C25.5974 11.3368 25.7013 11.1903 25.6395 11.3232C25.597 11.4115 24.7404 13.1558 24.904 12.925C25.0312 12.7329 26.1032 10.3733 26.3112 9.93674ZM20.9321 14.9971C20.9562 14.9146 20.8182 15.1384 20.765 15.2661C20.6706 15.4938 20.8547 15.2593 20.9321 14.9971ZM26.2361 9.58584L26.2349 9.58768C26.0208 10.0316 25.802 10.4878 25.6022 10.9042C25.6969 10.4377 25.316 11.3253 25.2577 11.6669C25.1792 11.7805 25.1009 11.8953 25.0221 12.0097C25.0532 12.274 24.8136 12.2605 24.7295 12.7164C24.3252 13.1832 25.4239 11.2276 25.406 10.9337C24.4043 13.1076 25.9478 9.44702 25.4335 11.0446C25.9441 9.77719 25.6481 10.6503 25.762 10.4724C25.8852 10.2786 26.2075 9.52365 26.2361 9.58584ZM27.1453 11.055C27.1057 10.9486 27.0888 11.0666 27.1228 11.1355C27.1259 11.1411 27.1801 11.1489 27.1453 11.055ZM24.7483 11.8785C24.6593 12.085 24.3891 12.7037 24.3136 12.795C24.4238 12.5707 24.6799 11.952 24.7483 11.8785ZM24.5621 12.3899C24.5704 12.3762 24.6172 12.3679 24.6144 12.3803C24.5015 12.7188 24.3572 12.7458 24.5621 12.3899ZM26.9689 10.3131C26.969 10.3487 27.1402 10.9422 27.1655 11.0203C27.2294 11.0365 27.1112 10.7916 27.1008 10.7268C27.0991 10.7155 27.1433 10.6965 27.132 10.6343C27.1276 10.611 27.0795 10.5898 27.0769 10.5819C27.0705 10.5584 26.9806 10.1399 26.9689 10.3131ZM8.64315 21.0299C8.64393 21.0422 8.87543 20.9677 8.95168 20.8914C9.09452 20.747 8.64444 21.0211 8.64315 21.0299ZM9.82338 20.2101C9.93025 20.0711 9.32771 20.5462 9.30877 20.5693C9.30198 20.5797 9.29708 20.5876 9.29564 20.5931C9.26237 20.5983 9.14392 20.6809 9.15327 20.7223C9.18617 20.6948 9.28335 20.6285 9.29424 20.6155C9.29794 20.6106 9.30099 20.6058 9.30248 20.6026C9.36481 20.6002 9.80223 20.2382 9.82338 20.2101ZM27.0717 9.50365C27.0293 9.45684 27.0661 9.71566 27.1152 9.76537C27.1751 9.825 27.0804 9.51727 27.0717 9.50365ZM7.9673 21.1817C7.93755 21.1405 7.65774 21.3667 7.57246 21.4081C7.67791 21.3854 7.85306 21.2673 7.9673 21.1817ZM10.814 19.4021C10.6175 19.4618 10.6638 19.5788 10.6795 19.5733C10.876 19.4868 10.7158 19.4969 10.7163 19.4899C10.7249 19.4752 10.8666 19.4185 10.8145 19.4029L10.814 19.4021ZM26.6894 9.73962C26.6651 9.78929 26.7085 9.9161 26.7326 10.0027C26.757 9.95314 26.7135 9.8263 26.6894 9.73962ZM22.2134 12.2306C22.1028 12.3668 22.0515 12.4647 21.8586 12.9072C22.1693 12.2648 21.9264 12.8796 22.2134 12.2306ZM26.7177 9.6784C26.6932 9.69073 26.7351 9.87665 26.7494 9.89939C26.7714 9.93366 26.745 9.73395 26.7177 9.6784ZM9.04328 20.3911C8.97848 20.4379 8.8883 20.5022 8.89064 20.5412C8.93065 20.5064 9.0576 20.4107 9.04328 20.3911ZM9.45569 20.1121C9.52176 20.1171 9.55109 20.102 9.65995 20.0085C9.48268 20.124 9.61708 19.978 9.45569 20.1121ZM22.5125 10.8503C22.5061 10.8684 22.5016 10.8828 22.499 10.8925C22.3977 11.0271 21.644 12.7295 21.6059 12.8362C21.4175 13.3582 22.4623 11.0455 22.4876 10.9744C22.4994 10.9386 22.5059 10.9137 22.5087 10.8992C22.5618 10.8222 22.7633 10.3973 22.7516 10.3303C22.6948 10.4589 22.5277 10.8076 22.5125 10.8503ZM11.31 18.9755C11.3255 18.9945 11.4919 18.8683 11.5038 18.8543C11.5756 18.7655 11.3634 18.9198 11.31 18.9755ZM25.606 10.4301C25.6493 10.3032 26.3228 8.92019 26.089 9.49166C26.0705 9.53593 25.5926 10.5109 25.606 10.4301ZM10.307 19.5396C10.3616 19.4879 10.2486 19.4835 10.2063 19.5633C10.1937 19.5882 10.2761 19.5682 10.307 19.5396ZM11.584 18.5847C11.5748 18.6013 11.6348 18.768 11.7406 18.605C11.7598 18.5755 11.6324 18.6237 11.7976 18.4698C11.6672 18.5758 11.6451 18.4901 11.584 18.5847ZM6.36114 21.7621C6.34428 21.8044 6.49593 21.7442 6.54001 21.6998C6.63636 21.6012 6.36687 21.7496 6.36114 21.7621ZM12.3602 18.0558C12.2662 18.1283 12.1811 18.2079 12.102 18.2883C12.1378 18.295 12.3618 18.0809 12.3602 18.0558ZM26.865 8.56036C26.8913 8.56646 26.9169 8.57438 26.9211 8.58379C26.9354 8.61699 27.0833 9.19614 27.1299 9.28474C26.9251 9.07217 27.0401 9.0691 27.0352 9.04784C27.0218 9.00132 26.9551 8.90197 26.9389 8.81194C26.9485 8.91717 26.9585 9.02248 26.968 9.12772C26.9508 9.08393 26.8726 8.85047 26.8095 8.65031C26.8287 8.61481 26.8492 8.58555 26.865 8.56036ZM11.8193 18.2795C11.8231 18.2739 11.9697 18.1388 11.971 18.1811C11.9706 18.2458 11.7875 18.3286 11.8193 18.2795ZM12.5398 17.7145C12.8967 17.4186 13.4983 16.9407 12.8454 17.5368C12.8182 17.5613 12.8357 17.5037 12.722 17.6024C12.7149 17.6092 12.7275 17.6348 12.7044 17.655C12.6498 17.7027 12.3687 17.949 12.2958 17.9783C12.2983 17.9827 12.2976 17.9899 12.2925 17.9995C12.247 18.0869 11.9447 18.1732 11.9782 18.1302C12.0224 18.0745 12.2183 17.9719 12.2787 17.9725C12.281 17.9614 12.2939 17.939 12.3204 17.9033L12.5398 17.7145ZM13.4701 17.2438C13.4955 17.2489 13.3287 17.4003 13.2989 17.38C13.3388 17.3503 13.4486 17.2426 13.4701 17.2438ZM13.4512 17.1187C13.4848 17.1321 13.3034 17.268 13.2963 17.269C13.2506 17.2728 13.3971 17.145 13.4512 17.1187ZM14.9406 16.2758C15.4417 15.9039 15.4111 15.7389 15.0086 16.1477C14.9997 16.1573 14.9035 16.2873 14.9406 16.2758ZM26.6318 8.76993C26.5087 9.03334 26.3243 9.41772 26.2807 9.45466C26.3548 9.24115 26.5075 8.92789 26.6193 8.71831C26.6239 8.73803 26.6284 8.7555 26.6318 8.76993ZM26.7346 8.93265C26.738 8.94118 26.7838 8.93243 26.8062 9.08324C26.8126 9.12636 26.8078 9.17821 26.7793 9.12202C26.7466 9.05735 26.7255 8.96713 26.7044 8.86876C26.7108 8.85546 26.7167 8.84215 26.723 8.82929C26.7263 8.86761 26.728 8.90279 26.7346 8.93265ZM14.4438 16.3447C14.5126 16.2743 14.5296 16.3223 14.5268 16.3293C14.4791 16.3896 14.3643 16.4261 14.4438 16.3447ZM26.1452 8.75658C26.0526 8.94564 25.8347 9.44014 25.7766 9.54945C25.5745 9.92922 26.009 8.91888 26.1452 8.75658ZM16.2644 14.8121C16.3095 14.7857 16.2238 14.9269 16.2566 14.9134C16.2782 14.9037 16.3543 14.8146 16.3934 14.8034C16.4027 14.804 16.3467 14.9143 16.3195 14.935C16.2809 14.9635 16.2907 14.9042 16.2505 14.9375C16.1157 15.0499 16.0152 15.1706 15.8877 15.2766C15.8791 15.2824 15.9457 15.1923 15.8502 15.2729C15.8345 15.2869 15.7704 15.3942 15.651 15.486C15.3112 15.6013 15.2039 15.8554 14.8455 16.0915C14.85 16.0721 15.0735 15.8451 15.0888 15.8304C15.3479 15.5878 15.8357 15.1764 16.1187 14.9376C16.1913 14.8763 16.1744 14.9266 16.2062 14.9013C16.2314 14.881 16.1699 14.8672 16.2644 14.8121ZM15.9675 15.2847C15.8602 15.4429 15.9838 15.2731 16.0135 15.3199C15.9188 15.402 15.6838 15.6023 15.8119 15.4242C15.837 15.3895 15.925 15.3249 15.9675 15.2847ZM15.7858 15.4147C15.8152 15.4314 15.6404 15.5552 15.6054 15.545C15.6382 15.5172 15.7757 15.4113 15.7858 15.4147ZM16.0866 15.1603C16.1138 15.1611 16.2507 15.1195 16.1611 15.1898C16.119 15.2223 16.0135 15.2292 16.0866 15.1603ZM16.4598 14.907C16.5067 14.8613 16.576 14.8757 16.5704 14.8866C16.5446 14.9351 16.4235 14.9787 16.4598 14.907ZM16.164 15.1107C16.1838 15.0829 16.6728 14.6293 16.6874 14.7053C16.6368 14.7381 16.0746 15.2574 16.164 15.1107ZM26.5612 8.45504C26.4689 8.62653 26.376 8.79914 26.2829 8.97232C26.3981 8.69518 26.4843 8.51849 26.5513 8.39841C26.5544 8.41601 26.5572 8.43516 26.5612 8.45504ZM26.6932 8.61735C26.6943 8.62218 26.6941 8.62727 26.6952 8.63209C26.6866 8.65093 26.6776 8.6719 26.6674 8.69415C26.6645 8.67929 26.661 8.66454 26.658 8.64974C26.6684 8.63086 26.6778 8.61317 26.6869 8.59723C26.689 8.60299 26.6914 8.60958 26.6932 8.61735ZM17.455 14.1088C17.4885 14.1171 17.3184 14.2498 17.2756 14.2408C17.3171 14.1992 17.4279 14.1027 17.455 14.1088ZM26.5646 8.478C26.5708 8.50798 26.5786 8.53914 26.5855 8.57017C26.5053 8.70175 26.4554 8.7377 26.5646 8.478ZM23.1726 10.1383C23.1041 10.2961 22.8865 10.7702 22.9096 10.7783C23.0197 10.5429 23.1739 10.2137 23.1726 10.1383ZM16.8079 14.3106C16.8233 14.2912 17.059 14.1378 16.9936 14.2407C16.948 14.3122 16.9049 14.2821 16.8903 14.2944C16.8696 14.3135 16.5706 14.647 16.8079 14.3106ZM26.597 8.4064C26.4266 8.79244 26.5186 8.69696 26.6255 8.50194C26.617 8.46849 26.6071 8.43653 26.597 8.4064ZM17.6397 13.8179C17.654 13.7995 18.0404 13.4652 17.9337 13.613C17.8999 13.6589 17.5424 13.9566 17.6397 13.8179ZM26.6073 8.3036C26.6098 8.32042 26.6125 8.33758 26.615 8.3547C26.6076 8.36845 26.6006 8.38241 26.5931 8.39618C26.5879 8.38114 26.5813 8.36713 26.5755 8.35325C26.5862 8.33503 26.5976 8.31904 26.6073 8.3036ZM26.7257 8.29436C26.7239 8.29888 26.722 8.30339 26.7202 8.30792C26.7191 8.30603 26.7178 8.30422 26.7167 8.30204C26.7207 8.29725 26.7246 8.29438 26.7261 8.29303L26.7257 8.29436ZM18.9831 12.8006C18.9855 12.7144 18.8334 12.833 18.7544 12.9359C18.7365 12.9595 18.6987 13.0768 18.7983 13.0075C18.7451 12.9516 18.8672 12.807 18.9831 12.8006ZM26.7129 8.22131C26.711 8.22533 26.7081 8.22917 26.7063 8.23318C26.7021 8.24254 26.6995 8.25176 26.696 8.25978C26.689 8.24143 26.6833 8.22064 26.6776 8.20028C26.6841 8.19159 26.6911 8.18389 26.6972 8.17605C26.7032 8.19092 26.7073 8.20682 26.7129 8.22131ZM19.39 12.3828C19.5704 12.2103 19.3731 12.1849 19.0598 12.5366C19.0782 12.5325 19.097 12.529 19.1154 12.525C18.6711 12.9504 19.0917 12.5642 19.2141 12.473C19.2602 12.4387 19.247 12.4957 19.2893 12.4656L19.39 12.3828ZM18.995 12.5957C18.9394 12.5969 18.8457 12.6916 18.7794 12.7527C18.8124 12.7588 18.9447 12.6359 18.995 12.5957ZM19.6643 12.084C19.6431 12.0976 19.5344 12.2301 19.4847 12.2672C19.5829 12.2472 19.7971 12.0064 19.6643 12.084ZM26.5667 7.81612C26.5947 7.84554 26.6169 7.90913 26.6226 7.94992C26.6085 7.95168 26.5984 7.94858 26.5882 7.93978C26.5742 7.90239 26.559 7.85023 26.5633 7.82382C26.5643 7.82124 26.5657 7.81879 26.5667 7.81612ZM19.9814 11.813C19.8928 11.8913 20.0328 11.8547 20.065 11.7949C20.0763 11.773 20.0038 11.7932 19.9814 11.813ZM20.4494 11.3985C20.6494 11.0299 20.147 11.5964 19.9709 11.7249C20.1684 11.6319 20.3678 11.4457 20.1289 11.7363C20.5409 11.3914 20.3407 11.4905 20.3495 11.4751C20.3652 11.4543 20.4404 11.4144 20.4494 11.3985ZM6.73928 19.565C6.77866 19.4441 6.94882 19.534 6.8005 19.5933C6.79159 19.5949 6.73881 19.5707 6.73928 19.565ZM20.1048 11.5051C20.0615 11.5288 20.0002 11.6284 20.0432 11.6192C20.0989 11.6065 20.1155 11.5018 20.1048 11.5051ZM6.6924 19.3701C6.7714 19.2476 6.83929 19.4315 6.82953 19.4475C6.78775 19.5124 6.55255 19.5818 6.5039 19.5917C6.80763 19.4226 6.65659 19.4266 6.6924 19.3701ZM7.2667 19.1128C7.38022 19.0583 7.14231 19.272 7.06399 19.261C7.11472 19.2291 7.23355 19.1292 7.2667 19.1128ZM23.6029 8.62523C23.6059 8.59501 23.2052 9.27339 23.0896 9.56242C22.8568 10.1389 23.5819 8.68374 23.6029 8.62523ZM20.7059 11.0488C20.7687 10.9282 20.3434 11.2258 20.2841 11.3197C20.2977 11.3482 20.694 11.0679 20.7059 11.0488ZM6.71521 19.1052C6.78556 19.0324 6.93947 19.0267 6.76884 19.1551C6.83716 19.1235 6.90735 19.0907 6.97207 19.0611C6.77455 19.2535 6.72199 19.1503 6.66036 19.1982C6.57428 19.2651 6.63331 19.3376 6.66816 19.3504C6.56134 19.3538 6.24644 19.564 6.055 19.674C6.20405 19.5491 6.44257 19.3397 6.58979 19.2209C6.63237 19.1867 6.69106 19.1774 6.72849 19.1484C6.78728 19.1024 6.71447 19.1088 6.71521 19.1052ZM8.09949 18.4502C8.03569 18.4902 7.89133 18.6306 7.84999 18.6228C7.90045 18.578 8.05378 18.4467 8.09949 18.4502ZM5.93544 19.668C6.02566 19.61 6.15792 19.4985 6.23299 19.4997C6.13855 19.5624 6.00753 19.6724 5.93544 19.668ZM7.07592 18.9321C7.08865 18.9207 7.34954 18.7561 7.34662 18.7855C7.31806 18.8239 6.95086 19.0597 7.07592 18.9321ZM7.67278 18.3772C7.64494 18.2241 7.79735 18.3888 7.83733 18.2165C8.07899 18.2495 7.44246 18.503 7.46351 18.6612C8.03123 18.2344 7.15832 19.0525 7.44227 18.5874C7.14658 18.8926 7.31548 18.6454 7.24713 18.6606C7.17344 18.6779 7.00299 18.8355 6.98234 18.7867C7.09991 18.709 7.21957 18.6286 7.34072 18.5468C7.29127 18.7202 7.50909 18.5239 7.53423 18.3927C7.58017 18.3878 7.62651 18.3824 7.67278 18.3772ZM8.3713 18.0766C8.39837 17.9976 8.53056 18.0432 8.44271 18.1124C8.41658 18.1323 8.36936 18.0857 8.3713 18.0766ZM6.4495 19.1363C6.46052 19.1338 6.45151 19.2276 6.52267 19.2075C6.38889 19.2495 5.86783 19.6223 5.84092 19.6277C5.81793 19.6337 5.93108 19.471 5.70918 19.6642C5.82308 19.4511 6.14525 19.4045 6.17435 19.3823C6.19875 19.362 6.1308 19.3468 6.13276 19.3411C6.14951 19.3271 6.43057 19.1451 6.4495 19.1363ZM6.2348 19.3235C6.182 19.3954 6.38173 19.2677 6.42331 19.2258C6.5152 19.1333 6.24239 19.3145 6.2348 19.3235ZM7.95009 18.2016C8.04436 18.0795 8.0685 18.232 7.95896 18.2679C7.95277 18.2675 7.94607 18.2081 7.95009 18.2016ZM6.70065 18.974C6.72329 18.9503 6.91982 18.8067 6.9578 18.8218C6.88832 18.9247 6.65836 19.0228 6.70065 18.974ZM22.5452 9.3322C22.4877 9.36376 22.4112 9.4523 22.3508 9.50385C22.3768 9.51276 22.5394 9.36966 22.5452 9.3322ZM6.39981 18.9272C6.31609 18.9308 6.30717 19.0004 6.30012 19.0059C6.23089 19.0608 6.07985 19.1502 6.13456 19.1649C6.25024 19.0682 6.56731 18.92 6.39981 18.9272ZM22.8363 9.11876C22.7475 9.17993 22.6603 9.27837 22.5756 9.35271C22.6251 9.33783 22.8217 9.17088 22.8363 9.11876ZM5.87722 19.2024C5.78372 19.3245 6.3232 18.9546 6.34924 18.9243C6.29882 18.9289 5.89333 19.185 5.87722 19.2024ZM7.71984 17.9966C7.6464 18.0076 7.02978 18.4888 6.92315 18.5616C7.05358 18.5508 7.10013 18.4567 7.22898 18.369C7.26259 18.3462 7.2701 18.3732 7.27386 18.3718C7.33051 18.3327 7.27063 18.3364 7.30483 18.3112C7.32882 18.2951 7.81622 17.9892 7.71984 17.9966ZM8.97672 17.3243C9.032 17.288 9.16262 17.1553 9.18966 17.1723C9.13333 17.21 9.00312 17.3422 8.97672 17.3243ZM6.20996 18.9005C6.19873 18.9257 6.25745 18.9339 6.31767 18.8943C6.32674 18.8611 6.23763 18.8414 6.20996 18.9005ZM6.17022 18.9197C6.10132 18.9203 5.72465 19.2121 5.84598 19.171C5.86674 19.1648 6.27909 18.9164 6.17022 18.9197ZM8.57352 17.4147C8.50077 17.4993 7.86808 17.9712 7.83511 17.9802C7.82448 17.9831 7.79798 17.9589 7.80035 17.9543C7.82556 17.926 8.47603 17.4718 8.57352 17.4147ZM7.74504 17.9054C7.62871 17.8958 7.34129 18.1671 7.58122 18.0406C7.60412 18.0283 7.67363 17.9368 7.74504 17.9054ZM9.07914 16.9108C9.05051 16.9449 8.72852 17.1999 8.83314 17.0893C8.84203 17.0799 9.05991 16.895 9.07914 16.9108ZM8.88743 16.9535C8.91619 16.9365 8.97758 16.9317 8.97892 16.9353C8.88851 17.1093 8.38087 17.2933 8.66661 17.1113C8.6724 17.1077 8.64911 17.1853 8.75038 17.1012C8.75889 17.094 8.74287 17.0394 8.88743 16.9535ZM29.1407 4.59361C29.1406 4.62165 28.9629 4.46533 29.1298 4.92988C29.0743 4.77323 29.0124 4.77104 29.0063 4.75336C29.0029 4.74226 28.9836 4.65145 28.9656 4.5707C28.989 4.55696 28.986 4.58889 29.0367 4.52601C29.0458 4.51448 29.0758 4.45386 29.1113 4.38602C29.1221 4.46601 29.1402 4.58362 29.1407 4.59361ZM8.19182 17.3581C8.17103 17.3114 7.92917 17.5231 7.85849 17.5637C7.93805 17.5532 8.09347 17.4234 8.19182 17.3581ZM9.80504 16.2652C9.80673 16.2955 9.54888 16.5172 9.53018 16.5269C9.37634 16.5959 9.77509 16.2764 9.80504 16.2652ZM9.84553 16.0262C9.89634 15.9516 9.66992 16.0953 9.62793 16.1684C9.62631 16.2278 9.83625 16.0378 9.84553 16.0262ZM13.1579 13.2581C13.1519 13.2222 13.0613 13.1565 12.9951 13.2768C12.9859 13.2943 13.0777 13.2688 13.0728 13.285C13.0664 13.2973 12.8385 13.5138 12.8253 13.5202C12.8108 13.5259 12.7943 13.4783 12.7788 13.4842C12.7604 13.4923 12.6384 13.6475 12.561 13.7119C12.4158 13.8327 12.3739 13.816 12.3614 13.8253C12.3263 13.854 12.2838 13.926 12.2121 13.9848C11.8507 14.2815 11.2747 14.7057 11.042 15.001C11.2738 14.771 11.5444 14.5981 11.8033 14.4014C11.6776 14.3971 12.216 14.1471 11.8946 14.2856C12.0295 14.2041 13.0771 13.3614 13.1554 13.271L13.1579 13.2581ZM28.9263 4.29509C28.9234 4.30083 28.9199 4.30625 28.917 4.31198C28.9096 4.30065 28.9007 4.28045 28.8906 4.25614C28.8973 4.2413 28.9043 4.22673 28.9109 4.21215C28.9164 4.2391 28.9209 4.26703 28.9263 4.29509ZM13.5635 13.0288C13.6131 12.9743 13.8533 12.7772 13.7791 12.8774C13.7639 12.8959 13.5856 13.0454 13.5635 13.0288ZM28.9334 3.69503C28.9204 3.71403 28.9075 3.72794 28.8998 3.73782C28.8984 3.72808 28.8993 3.71708 28.8962 3.70699C28.8994 3.69621 28.9038 3.68424 28.9089 3.67102C28.9155 3.67746 28.9239 3.68514 28.9334 3.69503ZM15.3856 11.2394C15.3578 11.2238 15.2361 11.3627 15.1826 11.4025C15.2105 11.4179 15.3322 11.2794 15.3856 11.2394ZM16.4461 10.5068C16.4106 10.4788 16.6556 10.2995 16.5893 10.4055C16.5721 10.4323 16.4594 10.5148 16.4461 10.5068ZM16.2731 10.3235C16.1988 10.3319 16.0799 10.4621 15.995 10.5359C16.0575 10.53 16.2013 10.3865 16.2731 10.3235ZM17.7039 9.39171C17.7461 9.34965 17.8247 9.37005 17.825 9.37746C17.796 9.44427 17.6767 9.45179 17.7039 9.39171ZM18.1104 9.11628C18.1861 9.07273 18.1188 9.22221 17.9953 9.24175C18.0391 9.21069 18.1017 9.12218 18.1104 9.11628ZM18.154 9.09596C18.2301 8.96192 18.2856 9.03848 18.2044 9.10798C18.1761 9.13196 18.1523 9.10081 18.154 9.09596ZM17.5496 9.27791C17.5293 9.22252 17.3499 9.43413 17.2733 9.49155C17.293 9.54811 17.4719 9.33658 17.5496 9.27791ZM19.1044 8.27783C19.0319 8.33472 18.8792 8.51914 18.8616 8.46359C18.9224 8.41859 19.0605 8.28082 19.1044 8.27783ZM17.9305 8.92906C17.9018 8.92149 17.7697 9.0484 17.7171 9.08592C17.7723 9.08491 17.8654 8.98991 17.9305 8.92906ZM18.8314 8.09841C17.9307 8.83315 18.2027 8.75321 18.901 8.07397C18.8785 8.04637 18.8876 8.0524 18.8314 8.09841ZM25.5194 3.8084C25.5119 3.76057 25.5134 3.73042 25.5364 3.77211C25.5417 3.78176 25.5438 3.79865 25.5485 3.81719L25.5194 3.8084ZM21.1486 6.41853C21.1318 6.394 21.2858 6.27353 21.279 6.3055C21.2751 6.3179 21.1618 6.4391 21.1486 6.41853ZM20.3721 6.74289C20.3549 6.68614 20.1112 6.93356 20.0992 6.96023C20.0532 7.06541 20.3398 6.75636 20.3721 6.74289ZM22.4752 5.29307C22.4381 5.34409 22.2749 5.47211 22.3289 5.39284C22.3375 5.38062 22.4641 5.27415 22.4752 5.29307ZM23.1318 4.25108C23.1499 4.24669 23.1683 4.2422 23.1864 4.23783C22.9613 4.41324 22.7562 4.65868 22.5156 4.87666C22.455 4.93142 22.4876 4.82732 22.4179 4.91107C22.362 4.97833 22.3254 5.08088 22.3679 5.05798C22.3807 5.04908 22.4881 4.9082 22.5546 4.85231C22.7518 4.68691 22.7367 4.76404 22.7484 4.75602C22.7617 4.7458 22.8585 4.61248 22.924 4.55467C23.0915 4.40729 23.191 4.35642 23.3882 4.12431C23.2381 4.21877 23.2629 4.10395 23.1318 4.25108ZM23.7449 4.12191C23.7714 4.11555 23.6752 4.27035 23.6272 4.29443C23.5194 4.34697 23.6882 4.1383 23.7449 4.12191ZM24.2545 3.34046C24.2429 3.33544 24.1283 3.44975 24.123 3.45751C24.1219 3.45962 24.1208 3.46204 24.12 3.46387C24.1205 3.41965 23.7229 3.78682 23.7759 3.67247C23.6401 3.7611 23.8408 3.70984 23.7343 3.77235C23.6978 3.79305 23.6 3.7474 23.475 3.93043L23.4655 3.95653C23.4697 3.97096 23.5072 3.95753 23.5053 3.96803C23.5014 3.97845 23.3986 4.13804 23.5197 4.0379C23.7101 3.88025 23.4864 3.96773 23.584 3.87679C23.5986 3.86413 23.8165 3.73618 23.8161 3.75314C23.8132 3.7569 23.7531 3.7983 23.7468 3.8104C23.7248 3.85556 23.7608 3.86312 23.7577 3.86871C23.7411 3.88864 23.4156 4.11605 23.4056 4.18783C23.4053 4.20873 23.9032 3.79964 23.9189 3.77485C23.9273 3.76046 23.8641 3.70112 23.87 3.68344C23.8748 3.67358 24.085 3.52317 24.1043 3.49481C24.1097 3.48682 24.1139 3.48015 24.1164 3.47508C24.1045 3.52243 24.2807 3.35739 24.2545 3.34046ZM24.0953 3.74467C24.1411 3.62656 24.2881 3.4984 24.3024 3.58477C24.1396 3.72781 24.2772 3.519 24.0953 3.74467ZM24.9366 2.89041C25.0448 2.79964 25.2482 2.80484 25.1064 2.90627C25.0886 2.91655 24.9394 2.91523 24.9366 2.89041ZM25.3112 2.4851C25.2141 2.5059 25.5463 2.21242 25.6117 2.23199C25.5764 2.27608 25.325 2.48027 25.3112 2.4851Z" fill="#E223DC"/>
</svg>
