<svg viewBox="0 0 329 111" fill="none" xmlns="http://www.w3.org/2000/svg">
<path d="M186.545 6.1334C185.714 6.12005 182.446 6.04599 181.031 6.03244C182.616 5.97625 189.498 6.17312 186.545 6.1334ZM45.696 32.5341C46.6957 31.9194 47.6293 31.3758 48.638 30.8174C45.8042 32.2913 42.0904 34.6532 39.7924 36.4645C39.4067 36.7629 40.3735 35.9452 39.4645 36.6552C38.5689 37.3765 38.7941 37.2567 37.5458 38.3596C35.9964 39.4162 30.5686 45.8756 29.8569 48.6301C28.8458 51.0989 28.3265 53.7191 28.3328 56.3991C28.2701 64.1079 34.3442 70.7381 41.0164 75.4518C32.0401 68.3987 40.8098 75.7872 43.7513 77.3719C44.4247 77.6333 44.0445 77.9831 54.6862 83.0607C61.5595 85.9836 55.0658 83.7373 66.8738 87.9581C57.7884 84.5313 66.6784 87.9727 73.9807 90.1092C75.2429 90.5454 85.4281 93.3276 90.0693 94.2911C91.6251 94.639 94.0063 95.0855 96.1212 95.5084C97.589 95.8015 98.6193 96.0412 100.77 96.4402C110.758 98.2822 120.672 99.6465 130.807 100.69C124.856 100.242 135.477 101.238 135.93 101.257C138.347 101.537 127.403 100.497 131.731 100.947C137.771 101.541 143.816 102.004 149.896 102.346C144.927 102.044 156.481 102.581 158.617 102.677C157.669 102.682 186.289 103.296 190.643 102.87C191.549 102.807 185.614 103.028 199.378 102.468C200.868 102.396 200.307 102.468 201.088 102.423C201.502 102.398 203.763 102.167 206.367 102.023C206.702 102.005 207.042 101.988 207.386 101.972C208.483 101.856 201.493 102.731 216.843 101.17C210.747 101.952 238.029 98.141 242.903 96.5769C241.912 96.7879 240.918 96.993 239.922 97.1921C244.837 96.1501 245.681 95.8506 246.775 95.589C251.214 94.5042 257.241 92.8319 261.256 91.5283C265.972 89.9815 265.962 89.9117 271.392 87.9499C270.079 88.4217 268.807 88.8639 267.515 89.3C271.244 87.9876 274.986 86.5539 278.665 85.0064C270.166 88.6154 280.53 84.2789 281.175 83.9287C282.242 83.452 280.73 84.1769 282.507 83.3774C282.704 83.2825 282.361 83.4115 285.163 82.0992C290.87 79.342 289.937 79.7974 292.321 78.5525C292.517 78.4323 291.828 78.8209 295.728 76.5986C308.039 68.9836 295.806 76.7159 295.213 76.9363C294.522 77.2572 299.16 75.1641 288.123 80.8344C291.789 79.0191 292.256 78.8002 292.655 78.5983C293.038 78.4499 299.27 74.8218 299.56 74.5715C302.464 72.6878 299.874 74.2842 300.437 73.9134C300.938 73.6893 308.067 68.7368 309.368 67.2482C312.448 64.6809 307.818 69.1087 302.068 72.9115C301.316 73.5156 307.44 69.2077 307.747 68.8504C315.111 62.5754 310.932 65.9108 312.447 64.4621C313.199 63.7116 315.891 60.8776 313.367 63.4429C316.369 60.2346 316.646 59.5491 316.61 59.691C316.538 59.8206 315.855 60.7194 316.024 60.5106C316.542 59.9462 318.253 57.3902 318.383 57.0996C318.654 56.6498 317.764 58.2428 318.813 56.4639C318.988 56.1714 320.502 53.1202 318.429 56.9536C321.15 51.8044 320.429 52.12 321.007 50.3287C321.173 46.5797 321.254 47.6034 321.158 46.1254C320.845 44.1979 320.446 43.5237 320.346 43.3107C320.227 43.1067 320.273 43.338 320.232 43.2445C319.992 42.6191 318.698 39.7586 316.169 37.1851C315.007 35.9637 313.665 34.8008 312.308 33.7745C311.14 32.8886 310.027 32.1568 309.374 31.7469C310.596 32.1559 316.955 37.429 317.844 39.0945C319.487 41.3826 318.524 39.7544 316.991 37.9375C315.393 36.0747 313.513 34.5162 315.194 35.9046C313.844 34.6911 312.17 33.4447 310.665 32.4713C307.762 30.5667 312.017 32.769 303.715 28.3365C302.376 27.6712 309.57 31.4841 308.133 30.7983C307.31 30.2731 302.428 27.7655 302.198 27.7289C302.16 27.693 306.69 29.9888 305.937 29.6568C304.519 28.5367 287.277 21.5782 300.417 26.9062C296.978 25.3955 294.768 24.4071 291.727 23.3935C289.571 22.7669 301.46 26.7381 283.544 21.0361C283.103 20.7914 290.801 23.2157 290.947 23.3147C291.223 23.3991 289.923 22.7863 289.682 22.7005C288.555 22.0515 270.546 17.3703 266.114 16.6007C267.148 16.8722 258.664 15.1494 253.126 14.282C251.504 14.0175 250.276 13.8235 249.856 13.7636C249.381 13.6962 251.142 14.0357 250.635 13.9611C247.427 13.4772 239.121 12.1069 235.179 11.5513C230.731 10.9171 231.301 11.0554 231.051 11.0188C229.111 10.749 230.665 10.928 229.481 10.766C227.702 10.4997 215.464 8.94031 214.807 8.89108C214.626 8.87188 216.631 9.16813 213.943 8.86005C213.492 8.81539 213.734 8.74441 205.917 7.9165C196.236 6.92271 212.531 8.71578 208.524 8.35955C202.467 7.59233 202.541 7.71916 200.891 7.53927C200.308 7.47713 195.999 6.95396 191.425 6.55643C194.713 6.8336 198.037 7.13627 201.414 7.46669C198.049 7.10188 191.877 6.54627 189.035 6.29326C187.696 6.17229 188.799 6.19095 185.902 5.956C185.299 5.91355 182.806 5.86315 190.449 6.43388C191.055 6.54733 187.412 6.1921 185.746 6.07815C185.494 6.06097 184.485 6.08051 182.377 5.85646C181.847 5.81991 187.497 5.86413 173.097 5.11904C172.631 5.09697 174.248 5.23538 173.792 5.2147C173.475 5.19736 169.804 4.96327 169.406 4.94903C168.993 4.93124 170.754 5.07227 170.262 5.05237C167.742 4.95004 164.474 4.61575 169.638 4.90826C167.905 4.79032 166.186 4.68029 164.482 4.57804C166.342 4.7907 161.702 4.47455 159.27 4.38709C143.939 3.89843 154.205 4.32268 151.572 4.27726C147.232 4.24186 150.509 4.08934 144.155 4.05095C143.566 4.06977 151.224 4.17106 136.279 4.05323C138.541 4.04464 140.721 4.05104 142.901 4.07046C141.685 3.92721 134.914 4.04459 134.4 4.06046C128.495 4.141 132.622 4.00743 123.779 4.27661C122.994 4.30411 121.291 4.32703 119.647 4.40427C112.786 4.71618 128.791 4.12335 129.217 4.22896C129.442 4.17457 112.22 4.76497 111.593 4.87586C109.05 4.95332 119.483 4.45397 117.467 4.49981C116.653 4.34506 92.2343 6.13738 87.4215 6.96375C81.7081 7.66424 79.2402 7.92677 79.229 8.10242C77.6907 8.16069 76.2237 8.52559 75.5153 8.64428C66.9563 10.1429 66.852 10.1827 59.5747 11.8808C57.9462 12.2768 56.5996 12.5695 56.0454 12.7232C55.7251 12.8134 56.3359 12.7088 54.7698 13.1436C52.3622 13.6556 39.3448 17.8684 38.3309 18.404C37.3322 18.725 43.855 16.3338 42.6563 16.7306C37.9214 18.3956 33.5165 20.2115 29.0567 22.4223C27.1929 23.3609 28.1346 22.8453 27.3429 23.2536C27.0136 23.3398 20.8499 26.9872 21.1668 26.8872C21.3613 26.0047 41.5563 16.7233 36.2711 19.2462C35.2328 19.6635 31.5234 21.2292 32.1626 21.0611C19.5039 26.9388 5.00951 36.1666 4.42054 49.7833C4.38864 54.5414 6.47904 59.0953 9.60283 62.9515C6.57853 59.2852 4.33331 54.6945 4.36659 49.7833C4.32789 43.6391 8.26138 37.7181 12.8626 33.3579C13.9792 32.1687 18.2128 28.8873 17.7123 29.2417C11.1435 33.9617 4.20191 41.8166 4.33702 49.7833C4.33171 51.5336 4.60491 53.2412 5.04728 54.7668C5.12609 55.0391 4.788 54.0539 5.08255 55.0743C5.41543 57.1334 9.07735 62.7338 9.95211 63.5196C10.0164 63.6786 7.70946 60.7038 8.36171 61.6421C10.008 64.0371 10.8694 64.6039 12.6329 66.3666C13.8648 68.1767 25.2759 76.1551 28.5435 77.4471C31.8108 79.2319 19.5451 72.2815 20.635 72.6507C28.5074 77.8237 37.498 81.8536 45.9896 84.9926C46.1441 85.0488 44.8203 84.5132 46.7768 85.2252C50.0097 86.3823 50.8978 86.735 52.5364 87.2954C54.3949 87.9496 60.5115 89.8058 61.4141 90.0718C61.5209 90.1067 60.2142 89.7934 60.0211 89.7373C57.2669 88.948 56.364 88.5641 56.1172 88.4882C55.2274 88.2062 54.2547 87.9287 53.3967 87.6461C51.9806 87.1776 51.214 86.8918 49.4021 86.2599C48.1589 85.822 49.3372 86.2978 48.1455 85.8733C47.7698 85.7572 42.9126 83.8042 42.4608 83.7493C42.0342 84.5949 82.1395 96.1924 86.4916 96.3123C83.0814 95.5995 79.39 94.7747 75.9835 93.9539C83.058 95.6859 91.6599 97.2232 92.2717 97.4926C118.838 102.502 145.95 105.121 173.014 106.238C177.842 106.431 175.177 106.461 183.181 106.656C181.125 106.572 179.039 106.477 176.983 106.375C181.119 106.604 199.183 106.916 202.084 106.834C202.465 106.828 202.981 106.747 207.518 106.705C211.561 106.66 212.174 106.713 214.317 106.691C216.112 106.67 218.133 106.606 218.669 106.597C219.079 106.59 219.242 106.629 220.231 106.611C223.356 106.549 220.818 106.503 223.929 106.547C223.172 106.575 222.416 106.603 221.661 106.629C225.459 106.545 230.537 106.42 225.036 106.64C224.083 106.675 224.901 106.609 224.188 106.631C196.386 107.233 218.558 106.962 228.318 106.515C230.807 106.521 244.847 105.779 245.297 105.734C245.945 105.712 243.552 105.905 246.695 105.757C247.368 105.781 266.066 104.335 259.339 104.928C257.961 105.067 248.976 105.686 246.808 105.806C251.933 105.648 263.817 104.531 265.168 104.398C270.585 103.952 254.775 105.395 266.976 104.365C276.334 103.516 267.546 104.244 271.137 103.872C273.149 103.683 283.748 102.658 283.449 102.553C287.068 102.131 284.957 102.434 285.404 102.388C285.841 102.35 292.959 101.464 295.277 101.18C295.558 101.147 294.682 101.324 294.973 101.292C295.543 101.236 302.4 100.304 302.672 100.252C302.847 100.224 301.206 100.395 301.876 100.289C302.656 100.174 309.25 99.2345 309.611 99.1566C310.121 99.0666 301.986 100.257 303.333 99.9967C307.085 99.4925 313.195 98.524 315.651 98.0769C315.049 98.1894 311.418 98.7565 310.155 98.9389C310.739 98.7705 318.528 97.5428 315.877 98.0345C317.562 97.7258 316.404 97.8905 317.351 97.7012C317.599 97.6528 320.002 97.2577 320.462 97.164C320.522 97.1519 318.038 97.5258 318.531 97.4258C319.426 97.2566 326.705 96.0231 327.3 95.9163C328.979 95.6471 323.055 96.7165 322.565 96.8313C322.496 96.8535 327.555 96.0527 327.632 96.0409C327.94 96.0639 322.315 96.9876 322.968 96.9368C324.36 96.7137 325.751 96.4862 327.141 96.2542C321.799 97.2856 311.866 98.8253 309.304 99.2661C317.28 98.0648 325.586 96.616 325.599 96.7807C325.606 96.8527 322.183 97.4812 322.319 97.4744C322.836 97.4561 327.584 96.5613 327.759 96.5295C327.904 96.5076 327.971 96.4996 327.971 96.5032C327.971 96.5032 327.971 96.5032 327.971 96.5032C327.979 96.548 321.197 97.7463 320.859 97.8111C320.292 97.9373 323.336 97.5518 323.336 97.5781C323.232 97.6057 318.398 98.4403 320.039 98.2161C321.7 97.9948 325.933 97.2674 326.081 97.2437C326.896 97.139 319.494 98.4281 319.275 98.4711C319.16 98.5014 323.148 97.8892 323.266 97.8817C323.368 97.8811 320.35 98.4247 319.165 98.666C318.281 98.8478 320.875 98.4488 320.42 98.5291C320.097 98.5959 313.088 99.717 312.742 99.7676C312.229 99.8564 313.88 99.6445 313.642 99.6921C313.307 99.7611 311.035 100.093 311.332 100.063C311.561 100.055 320.36 98.8048 320.31 98.8398C320.221 98.9315 310.9 100.274 319.592 99.1394C319.653 99.132 321.755 98.7634 321.814 98.7544C323.12 98.5832 316.387 99.7972 324.633 98.3877C309.298 101.032 322.741 98.8176 320.489 99.3069C319.619 99.5029 313.665 100.472 313.638 100.476C314.226 100.442 316.117 100.1 316.767 100.023C317.125 99.9856 311.801 100.878 313.007 100.728C313.632 100.657 319.289 99.7464 319.523 99.706C321.767 99.3724 319.029 99.8638 319.525 99.8078C319.854 99.7734 323.267 99.2032 323.356 99.1891C323.502 99.1743 318.879 100.018 317.916 100.194C317.185 100.332 319.946 99.9123 319.435 100.003C316.356 100.564 309.763 101.457 316.124 100.639C316.512 100.589 318.906 100.198 318.977 100.188C320.465 99.9959 316.057 100.717 315.273 100.878C313.929 101.163 320.264 100.116 314.998 101.003C318.962 100.421 321.165 100.06 325.785 99.2489C312.989 101.453 308.484 102.304 322.714 99.9908C318.189 100.746 318.706 100.755 317.357 100.977C316.519 101.121 309.928 102.034 312.978 101.795C313.363 101.768 317.346 101.102 316.106 101.357C306.518 102.833 315.911 101.432 315.92 101.432C315.831 101.674 292.339 104.906 288.286 105.289C283.608 105.861 279.425 106.406 278.405 106.512C275.041 106.859 277.827 106.518 277.073 106.576C276.305 106.651 266.77 107.658 266.275 107.68C264.414 107.819 266.295 107.592 266.102 107.605C263.79 107.796 250.95 108.824 247.322 109.002C247.433 109.044 254.691 108.564 250.164 108.932C244.896 109.35 244.591 109.17 244.451 109.173C220.361 110.572 196.1 110.829 171.979 109.836C172.247 109.987 188.093 110.382 188.426 110.358C190.549 110.571 163.874 109.713 160.582 109.344C163.059 109.51 165.552 109.662 168.061 109.802C163.741 109.723 154.453 109.033 148.267 108.586C146.289 108.448 150.083 108.786 150.007 108.781C147.77 108.659 144.228 108.334 146.887 108.491C141.495 108.105 142.273 108.104 138.085 107.714C137.871 107.693 139.657 107.91 136.354 107.611C134.805 107.485 126.623 106.606 125.484 106.497C125.023 106.463 129.209 107.116 129.754 107.02C138.61 108.025 132.59 107.252 136.051 107.606C136.584 107.648 135.349 107.661 144.141 108.389C142.496 108.425 132.318 107.339 130.658 107.155C127.084 106.831 141.762 108.414 144.474 108.471C143.216 108.482 145.497 108.58 148.777 108.837C152.373 109.114 150.803 109.03 152.758 109.171C158.137 109.539 155.871 109.305 160.248 109.648C155.978 109.168 167.795 110.058 171.208 110.234C165.633 110.009 159.994 109.711 154.449 109.347C154.771 109.381 155.093 109.415 155.416 109.448C153.926 109.348 152.443 109.243 150.967 109.133C151.204 109.138 151.442 109.144 151.68 109.149C144.058 108.663 142.318 108.386 141.658 108.334C133.646 107.622 124.474 106.619 116.53 105.55C115.334 105.376 116.064 105.611 107.396 104.261C104.638 103.816 107.304 104.172 104.098 103.676C100.083 103.191 100.198 103.068 99.0249 102.87C95.6743 102.296 93.6798 101.962 93.3348 101.9C89.0779 101.127 83.2041 99.9355 78.5735 98.8935C78.4882 98.875 80.8373 99.4527 77.8964 98.7769C76.8861 98.5501 67.6869 96.2285 59.6907 93.9364C61.7853 94.5627 63.891 95.1635 65.9237 95.721C63.5027 95.2256 46.4149 89.866 50.5715 91.2261C53.1999 92.1681 59.315 93.8768 60.0221 94.2014C54.181 93.2018 23.5862 80.8759 21.7996 78.5626C21.4819 78.373 23.4579 79.4845 23.0225 79.2217C22.5607 79.0359 16.2722 75.0322 15.4202 74.2583C14.9158 73.8912 17.7511 75.8881 17.5454 75.7077C17.1775 75.6417 9.72017 69.6602 9.41248 69.1315C11.078 70.8911 16.2814 74.9218 13.5462 72.8388C13.2158 72.598 11.4365 71.057 11.018 70.6706C7.05795 67.4145 18.8148 77.2486 20.9008 77.9955C13.1244 73.4307 0.17276 63.2198 0.00497222 50.4728C-0.00141978 50.1855 -0.000653028 49.958 0.0018115 49.7833C0.0191655 49.074 0.0253327 49.241 0.029721 49.7833C-0.0487313 51.3423 0.757582 55.8206 0.226243 52.1309C0.13437 51.2304 0.109637 50.4512 0.112922 49.7833C0.817393 42.2648 -0.0267136 49.128 0.0551026 48.8194C0.059767 47.4237 0.605372 44.3242 1.64715 41.9067C2.6681 39.401 3.93089 37.5374 3.86167 37.4574C6.05024 34.3078 5.23571 35.2059 8.91246 31.1913C8.42708 31.6654 7.88705 32.2215 7.40794 32.7419C11.1822 27.7944 21.9594 21.3853 21.1585 22.0063C19.0787 23.2048 13.6859 26.9788 13.298 27.3962C12.7834 28.0468 10.6135 28.9534 4.86478 36.2362C3.85595 37.8541 5.88869 34.707 7.96408 32.5341C10.0728 30.2936 11.8448 28.7207 8.98152 31.5573C12.2665 26.6815 32.1558 16.0022 35.3021 15.2705C35.673 15.1303 33.8918 15.6403 39.1038 13.7252C41.6064 12.8244 35.6217 15.072 36.777 14.6743C39.9166 11.7492 88.4785 1.35766 98.0045 1.68335C98.6044 1.62816 98.3875 1.68638 98.9791 1.63277C100.776 1.45578 107.566 0.875796 110.792 0.722172C103.942 1.06241 117.361 0.244593 120.591 0.195994C125.701 0.0392628 125.424 0.132129 127.67 0.0950444C136.025 -0.0574197 149.447 -0.0395648 155.944 0.363578C155.56 0.181781 167.413 0.876138 172.729 1.23654C177.011 1.49431 183.015 1.83608 177.421 1.38155C184.505 1.86637 192.339 2.50324 198.991 3.15123C200.112 3.2605 198.563 3.15068 200.479 3.33758C200.654 3.35475 200.896 3.33425 202.552 3.49968C216.121 4.91401 209.473 4.30906 212.008 4.61183C213.414 4.78874 214.46 4.91981 215.228 5.01365C207.433 4.08189 198.2 3.18403 195.821 2.9696C197.868 3.21947 213.284 4.73742 217.814 5.35937C217.971 5.37954 217.415 5.36455 217.576 5.38445C217.579 5.38486 217.582 5.38527 217.586 5.38568C219.377 5.5893 229.963 6.95728 227.796 6.61302C227.174 6.51392 222.406 5.86923 216.4 5.15271C218.003 5.3345 216.814 5.13174 217.097 5.16339C220.627 5.55141 228.746 6.6697 231.75 7.1029C232.427 7.19848 232.384 7.15472 232.496 7.17006C235.201 7.55784 234.072 7.50615 236.882 7.79674C241.771 8.62784 227.672 6.5134 228.685 6.7608C229.252 6.86377 244.474 8.99143 253.741 10.4895C257.844 11.1371 260.551 11.6176 260.535 11.5804C260.639 11.6109 261.062 11.7013 261.917 11.8766C263.672 12.2024 272.491 14.021 273.866 14.3589C274.11 14.4115 274.036 14.2892 274.338 14.3583C274.946 14.4446 285.495 17.1959 289.274 18.4262C287.012 17.697 285.214 17.1562 283.108 16.5565C295.566 20.2096 293.729 19.8761 289.506 18.3896C289.291 18.321 289.082 18.251 288.875 18.1856C285.563 17.1126 281.615 16.0327 281.484 15.9915C281.33 15.5646 302.301 22.6589 298.276 21.4912C297.521 21.1065 288.139 17.8433 292.84 19.5233C293.596 19.7464 299.911 22.1346 300.194 22.3151C301.26 22.7974 298.449 21.6046 295.437 20.5384C292.688 19.5521 289.56 18.596 290.41 18.9061C292.115 19.4252 293.979 20.0587 295.8 20.7342C297.838 21.4893 299.868 22.3152 301.651 23.0895C303.258 23.7909 303.682 23.9477 303.914 24.0531C307.112 25.5857 305.291 24.7678 306.332 25.2858C306.609 25.4249 308.243 26.2434 309.535 26.9912C311.001 27.8312 312.16 28.6148 311.57 28.3252C320.866 34.5781 321.172 36.9833 319.245 34.3722C317.418 32.1727 311.02 27.3274 305.089 24.5899C308.964 26.2698 316.249 30.9831 318.81 33.8531C319.787 34.8737 319.324 34.2219 320.882 36.0643C322.338 37.6367 327.016 44.7374 324.941 52.3309C323.144 59.7714 317.782 65.0261 315.777 67.0981C318.241 64.5066 317.471 65.2607 315.563 67.2097C313.56 69.1584 315.303 67.5798 314.916 67.9651C314.567 68.7108 304.403 76.5718 302.411 77.5622C310.496 72.0513 308.68 73.3256 301.759 77.8672C302.747 77.2263 303.715 76.5771 304.73 75.8702C300.825 78.6881 291.756 83.5202 289.312 84.6604C288.925 84.8559 290.343 84.2098 290.125 84.3194C287.978 85.4775 280.383 88.7993 280.001 88.9336C279.709 89.078 282.987 87.7153 281.785 88.2536C281.545 88.3642 278.336 89.6751 275.252 90.8867C274.094 91.3426 274.809 91.1137 274.517 91.2294C272.085 92.1731 273.451 91.6075 269.011 93.2177C265.722 94.3815 263.258 95.295 258.633 96.6701C273.765 91.9217 261.123 96.104 254.706 97.9014C253.68 98.1801 254.616 98.0692 248.428 99.6285C261.481 96.004 244.706 100.62 241.203 101.258C241.013 101.298 240.931 101.265 239.23 101.628C239.085 101.658 239.301 101.654 237.718 101.985C222.625 104.884 232.27 102.995 229.394 103.495C228.173 103.717 220.786 104.873 218.782 105.085C218.322 105.14 218.529 105.082 216.752 105.288C213.612 105.648 210.767 105.939 208.689 106.099C208.502 106.112 208.449 106.086 206.642 106.2C206.101 106.234 205.401 106.279 204.493 106.339C203.386 106.412 202.143 106.504 203.717 106.43C204.58 106.388 205.569 106.333 206.646 106.264C212.106 105.943 219.833 105.013 224.736 104.305C230.103 103.615 213.206 105.947 212.286 105.872C211.961 105.904 215.285 105.557 211.905 105.871C210.557 105.992 208.69 106.169 206.65 106.324C204.329 106.502 201.772 106.673 199.488 106.774C199.161 106.792 195.731 106.858 195.889 106.844C196.032 106.842 201.291 106.568 200.526 106.577C200.435 106.582 197.092 106.744 196.655 106.741C196.119 106.742 194.67 106.574 193.956 106.594C192.125 106.648 193.318 106.656 192.134 106.694C189.593 106.797 180.783 106.882 180.493 106.946C181.954 106.937 183.404 106.922 184.861 106.901C176.762 107.024 180.211 106.996 179.064 107.027C177.827 107.048 178.173 106.982 175.445 106.974C174.854 107.006 163.432 106.843 163.629 106.846C169.952 106.951 167.603 106.97 167.896 106.983C169.002 107.008 170.416 106.981 171.905 106.996C182.352 107.049 171.819 107.087 174.284 107.115C175.132 107.126 176.823 107.085 177.183 107.086C178.354 107.09 178.373 107.143 179.155 107.134C180.98 107.112 178.849 107.051 178.994 107.045C180.627 106.999 187.003 106.954 183.035 107.099C185.418 107.093 185.696 106.985 187.589 106.982C191.353 106.965 185.715 107.093 184.191 107.123C178.715 107.244 177.097 107.238 169.335 107.16C166.548 107.126 163.238 107.087 161.941 107.048C161.123 107.042 153.434 106.557 153.193 106.796C150.213 106.628 145.509 106.166 142.446 105.944C139.699 105.747 140.553 105.902 140.299 105.887C139.898 105.864 136.551 105.581 135.427 105.49C134.105 105.386 134.769 105.485 132.667 105.301C127.416 104.821 127.588 104.717 127.049 104.657C120.838 103.882 123.539 104.317 122.158 104.167C120.884 104.124 102.944 101.437 99.1824 100.628C100.706 100.896 102.27 101.159 103.797 101.404C101.053 100.87 98.1358 100.41 98.111 100.295C97.5563 100.378 91.8824 99.1148 90.2386 98.7411C89.5786 98.5974 89.6385 98.6414 88.7913 98.4526C85.5089 97.7512 78.2339 95.8617 76.5415 95.3751C68.9563 93.3667 88.203 98.698 89.8189 98.8611C86.6675 98.3326 69.512 93.6665 77.3791 95.9165C78.5792 96.2622 80.7758 96.7578 81.4761 96.9311C86.1582 98.0835 82.4691 97.2331 82.8407 97.3333C83.4439 97.4999 86.5226 98.1713 87.3473 98.3644C87.6167 98.4241 85.8572 98.105 90.3376 99.1052C88.0673 98.7567 75.6401 95.5538 73.9767 94.9877C73.4035 94.7817 76.9679 96.1513 66.4469 92.6406C66.5641 92.6927 66.6815 92.7448 66.7991 92.7968C60.9235 90.838 55.2085 88.6283 49.5704 85.8816C50.1741 86.1496 53.3226 87.5867 49.3998 85.7177C47.1007 84.5774 48.7719 85.4823 48.5633 85.3807C48.0048 84.7206 23.8541 75.0715 23.6281 56.3991C23.604 50.5028 25.7671 46.024 26.8213 44.1C27.9778 41.4213 33.2016 35.6439 33.7015 35.3856C36.0785 32.6733 46.415 26.3129 48.6629 25.446C49.9884 24.7891 48.6979 25.3612 49.8967 24.784C51.0227 24.2515 49.8781 24.8503 50.2133 24.6936C52.8355 22.8683 74.5905 15.552 80.002 14.7501C76.7635 15.2818 60.8238 20.2105 61.2416 20.3039C61.2829 20.2807 65.1626 19.001 65.9372 18.7514C67.2272 18.3702 71.7289 16.8946 74.2215 16.2785C74.4867 16.2193 73.4699 16.5296 77.8401 15.448C79.3835 15.0692 83.3471 14.0725 87.4474 13.3185C93.2338 11.6757 124.453 7.92485 126.618 7.95415C126.701 7.93889 122.257 8.30052 125.258 8.00485C129.183 7.63324 125.65 8.06398 130.262 7.71694C131.006 7.61998 143.785 6.83953 144.212 6.84942C148.094 6.57645 136.895 7.09962 137.03 7.10978C137.446 7.03931 146.729 6.55364 147.143 6.56243C147.494 6.55264 139.876 6.98469 149.033 6.56152C147.999 6.58746 146.944 6.61716 145.887 6.65014C150.208 6.44264 150.583 6.51847 151.634 6.48521C154.906 6.39405 158.345 6.18335 163.585 6.2564C164.946 6.27723 162.686 6.34682 162.85 6.35093C164.501 6.37879 166.572 6.2215 169.065 6.31285C169.24 6.32063 164.336 6.38597 171.474 6.37527C172.094 6.37598 172.801 6.37709 173.603 6.37934C172.906 6.36773 172.205 6.35708 171.501 6.34739C172.967 6.30731 183.155 6.38444 184.498 6.43363C188.542 6.52941 185.035 6.52269 189.05 6.60843C186.465 6.42947 198.697 6.79378 198.021 6.87645C199.717 6.82069 210.146 7.42413 215.03 7.83007C218.07 8.04607 224.415 8.59431 225.381 8.71149C226.573 8.84262 226.162 8.86574 228.352 9.12308C228.972 9.1938 235.369 9.86338 240.964 10.8348C242.064 11.0204 244.283 11.5138 242.288 11.2123C238.805 10.6689 232.324 9.72674 232.372 9.81418C232.476 9.8737 241.289 11.0482 243.618 11.5009C254.536 13.5417 248.209 12.4836 248.487 12.5389C249.221 12.7145 255.077 13.9818 255.36 14.0823C256.371 14.3388 252.191 13.4208 252.112 13.4544C252.034 13.4602 257.689 14.8781 256.393 14.5921C254.517 14.1269 249.33 12.9605 248.993 12.9138C244.606 12.1154 250.565 13.3564 252.186 13.786C252.683 13.909 250.683 13.5085 251.096 13.6022C257.325 15.0506 252.457 13.7205 256.604 14.7193C260.275 15.6629 255.534 14.5321 255.669 14.5819C255.85 14.6122 260.25 15.7509 260.921 15.9908C261.293 15.9883 249.774 13.37 250.224 13.6224C253.922 14.3687 257.58 15.2227 261.204 16.2503C261.445 16.3774 256.251 14.9259 255.708 14.8322C254.615 14.5831 257.632 15.3627 257.496 15.3618C257.424 15.3534 253.867 14.5401 257.06 15.3522C258.18 15.6524 260.53 16.1549 264.49 17.4824C250.508 13.5226 260.205 16.3439 260.581 16.4549C260.972 16.5933 254.322 14.8045 262.387 17.069C262.681 17.3265 262.22 17.0521 259.895 16.4303C257.081 15.7432 263.606 17.375 253.257 14.821C253.846 14.9637 262.142 17.1169 262.548 17.3242C262.92 17.4401 261.097 16.9352 261.741 17.1391C269.34 19.6802 264.089 17.9536 266.291 18.7739C266.51 18.7911 273.532 21.6093 268.156 19.5076C258.303 16.0067 253.824 15.3032 252.137 15.0778C259.731 16.7272 268.643 19.6345 270.809 20.6661C274.106 22.1081 270.689 20.6504 271.082 20.8416C271.231 20.888 274.058 22.1951 274.073 22.2306C276.128 23.0528 261.323 16.8689 256.247 16.0764C257.517 16.4164 258.891 16.8037 260.146 17.1828C258.413 16.6971 256.603 16.2336 254.819 15.812C263.304 18.0102 255.132 15.8521 252.957 15.5439C252.459 15.4604 258.084 16.6864 251.676 15.3272C256.373 16.404 254.86 16.0685 259.126 17.1425C259.004 17.0919 249.439 14.8592 245.587 14.2785C259.02 17.0819 251.445 15.0859 262.835 18.3345C264.969 18.9143 259.561 17.2912 259.978 17.4255C261.618 17.8497 265.319 18.9494 269.702 20.5631C270.412 20.8399 267.471 19.5091 271.861 21.3818C272.34 21.5701 275.038 22.9742 274.998 22.9818C274.61 22.8021 271.916 21.4913 271.805 21.484C271.687 21.4279 274.704 22.8618 274.715 22.9036C274.764 22.9759 272.218 21.6929 272.568 21.8921C273.396 22.2833 283.998 27.8514 269.983 20.9064C281.753 26.4862 271.693 21.2059 266.827 19.6507C265.592 19.2201 265.284 19.1458 263.515 18.5915C261.246 17.8831 258.575 17.1428 257.355 16.8396C256.072 16.5432 263.367 18.395 252.79 15.8136C258.183 17.0312 267.639 19.6995 272.471 22.1483C282.146 27.1093 265.604 18.9377 263.516 18.8888C263.022 18.7336 264.657 19.3106 264.327 19.208C263.804 18.9124 253.654 16.1554 252.592 16.0644C251.564 15.8651 256.38 16.9341 256.652 17.0678C256.911 17.0531 244.42 14.456 251.163 15.8931C255.845 16.8181 264.272 19.1521 265.58 19.8203C259.027 17.5828 252.118 16.0204 245.287 14.7914C249.056 15.5199 252.748 16.3369 256.464 17.3174C248.865 15.4457 242.176 14.2626 234.758 13.3121C252.501 16.0982 228.989 12.5344 228.713 12.6975C228.632 12.6816 235.58 13.6672 236.733 13.8787C230.528 12.8973 211.623 11.2882 222.659 12.4343C220.674 12.1997 215.753 11.8774 215.842 11.896C216.439 11.9707 227.095 12.937 225.339 12.8411C223.33 12.7009 220.553 12.3383 217.424 12.0887C201.569 10.9872 205.924 11.5872 189.925 10.9704C190.235 10.9909 190.566 11.0122 190.885 11.0335C184.441 10.8432 177.98 10.754 171.474 10.7466C160.575 10.7351 149.671 10.9976 138.791 11.6138C132.022 12.026 114.025 13.6711 105.293 15.0022C103.487 15.2198 94.8555 16.5595 94.2309 16.6929C93.019 16.8783 99.6321 15.7398 96.6313 16.2146C96.0214 16.2072 81.445 19.1133 82.5566 19.0177C84.128 18.6499 89.248 17.559 90.0605 17.4285C95.7295 15.5856 51.7158 27.1021 50.4974 29.8778C51.3747 29.4586 52.2758 29.0461 53.2003 28.6404C50.6109 29.8258 48.1136 31.1046 45.696 32.5341ZM174.738 6.15051C176.46 6.09614 180.887 6.17991 183.437 6.20944C187.044 6.23794 193.096 6.18894 190.468 6.34149C185.272 6.21594 179.939 6.1547 174.738 6.15051ZM98.082 11.2265C101.564 10.7084 98.9087 11.2413 96.0058 11.6769C95.6931 11.7272 93.318 11.9726 98.082 11.2265ZM134.858 7.25323C134.71 7.26225 131.694 7.46645 131.571 7.47569C128.842 7.61291 137.993 6.99711 134.858 7.25323ZM60.8145 90.5745C57.2117 89.1938 59.7459 90.3162 62.0578 91.1145C62.2019 91.165 61.0519 90.6652 60.8145 90.5745ZM58.2201 89.5673C55.3951 88.3695 49.6939 85.9896 54.2127 87.9911C54.6174 88.1828 58.3343 89.6314 58.2201 89.5673ZM110.556 9.50512C110.155 9.59052 106.532 10.0369 105.021 10.2442C105.052 10.1989 109.014 9.69316 110.556 9.50512ZM26.5197 44.7764C26.4888 44.8587 28.0223 41.8256 30.2826 39.1651C32.4612 36.498 35.2156 34.1826 35.517 33.9062C34.7386 34.5579 32.0807 36.8686 30.0476 39.4023C27.9363 41.9409 26.5363 44.703 26.5197 44.7764ZM34.4412 76.1883C34.1978 76.0551 30.819 72.8098 30.9598 72.9124C32.4161 74.6029 35.5788 77.1845 34.4412 76.1883ZM94.5975 100.001C94.8204 100.028 91.6738 99.2593 99.2446 100.842C100.357 101.071 96.3655 100.357 96.7643 100.436C97.5861 100.61 98.2407 100.741 98.7684 100.842C95.2693 100.2 91.503 99.3995 91.1784 99.3165C89.5245 98.912 94.4785 99.9902 94.5975 100.001ZM128.1 104.975C128.828 105.032 133.599 105.522 134.65 105.622C134.834 105.641 134.022 105.645 136.148 105.828C137.859 105.971 135.307 105.679 138.644 105.971C142.026 106.255 137.501 105.946 137.798 105.972C138.194 106.018 143.419 106.384 143.248 106.41C143.135 106.443 137.53 105.988 136.155 105.864C134.392 105.715 136.52 105.965 133.583 105.683C131.727 105.5 132.764 105.5 132.372 105.458C132.03 105.433 125.554 104.805 128.11 104.976C128.106 104.976 128.103 104.976 128.1 104.975ZM99.73 101.018C99.4616 100.971 99.1471 100.914 98.7684 100.842C99.0902 100.901 99.4115 100.96 99.73 101.018ZM164.527 6.22394C162.708 6.2133 168.102 6.11637 170.187 6.15824C170.214 6.18439 164.806 6.21961 164.527 6.22394ZM103.067 101.541C108.305 102.457 104.49 101.877 99.73 101.018C101.228 101.276 101.272 101.216 103.067 101.541ZM65.9372 18.7514C65.721 18.8126 65.5823 18.8454 65.5596 18.8333C66.1272 18.6728 66.1821 18.6676 65.9372 18.7514ZM54.0307 23.0999C50.0543 24.8628 58.2109 21.394 58.1462 21.4511C58.1168 21.4278 54.1898 23.0087 54.0307 23.0999ZM65.5559 92.2808C65.1743 92.1341 71.0351 93.9957 62.5673 91.1772C67.1143 92.8156 62.2932 91.1282 62.3714 91.1628C62.5506 91.3191 70.1428 93.8477 71.8229 94.3257C73.182 94.6736 66.7437 92.7419 65.5654 92.284C65.5622 92.2829 65.5591 92.2818 65.5559 92.2808ZM188.993 107.362C187.919 107.439 184.508 107.501 182.211 107.524C183.283 107.468 186.691 107.425 188.993 107.362ZM75.0638 98.1369C59.6747 94.3665 57.8503 93.5482 71.801 97.2801C72.1251 97.3678 75.9802 98.3369 75.0638 98.1369ZM28.8301 17.7298C30.2449 17.1473 25.6523 19.3079 22.8225 20.9113C22.1485 21.2781 19.7235 22.6128 22.4568 20.9998C22.4643 21.0821 26.6241 18.8385 28.8301 17.7298ZM106.048 101.999C107.597 102.211 112.354 102.993 114.858 103.346C113.319 103.181 108.261 102.395 106.048 101.999ZM26.0109 80.8482C24.5388 80.0524 23.5619 79.5656 23.8014 79.7102C24.8698 80.3597 27.6848 81.7816 26.0109 80.8482ZM90.7846 99.0747C90.5468 99.0064 96.868 100.285 97.2555 100.423C95.9409 100.174 90.9098 99.1325 90.7846 99.0747ZM184.654 107.436C183.666 107.44 188.782 107.31 190.331 107.271C190.208 107.315 185.301 107.441 184.654 107.436ZM4.74449 63.6929C3.7202 62.3427 1.9673 58.8985 1.79948 58.3964C1.46473 58.004 4.11922 63.1423 4.74449 63.6929ZM272.155 107.437C272.346 107.435 266.632 108.059 264.076 108.245C259.23 108.617 271.969 107.472 272.155 107.437ZM40.4672 87.441C44.8551 89.2216 39.9708 87.256 40.1508 87.3921C43.1223 88.621 50.5203 91.2207 45.5088 89.3635C44.5101 88.9921 41.8208 87.9889 40.4672 87.441ZM36.4793 85.7758C35.9796 85.5947 32.7901 84.2632 35.5319 85.4637C36.8226 86.0234 38.9013 86.8042 36.4793 85.7758ZM236.643 110.007C232.459 110.18 251.649 109.174 252.218 109.085C252.511 109.071 252.704 109.063 252.813 109.06C253.528 108.993 257.137 108.727 257.561 108.742C256.475 108.822 253.52 109.039 253.167 109.056C253.017 109.064 252.906 109.07 252.829 109.073C251.525 109.241 237.484 110.011 236.643 110.007ZM204.756 110.78C209.569 110.662 210.437 110.792 210.018 110.805C204.76 110.922 208.189 110.773 208.027 110.77C207.658 110.767 203.935 110.842 204.771 110.78C204.766 110.78 204.761 110.78 204.756 110.78ZM230.106 110.264C230.301 110.258 234.331 110.094 234.498 110.086C237.803 109.999 226.402 110.46 230.106 110.264ZM153.534 106.832C156.426 106.983 153.582 106.912 151.667 106.789C151.511 106.778 150.986 106.691 153.534 106.832ZM34.2979 84.841C33.6171 84.8593 18.2469 76.5198 19.2611 76.8738C20.388 78.1547 38.0034 86.7829 34.2979 84.841ZM62.9202 6.70226C60.0109 7.35108 63.1487 6.55849 64.7506 6.25591C65.3409 6.14268 63.6547 6.53913 62.9202 6.70226ZM82.4297 97.0448C79.3303 96.2994 80.0007 96.3211 82.6717 97.0505C82.777 97.0789 82.5518 97.0738 82.4297 97.0448ZM39.5572 13.3272C49.483 9.95118 47.0588 10.6301 34.3322 15.4906C34.712 15.3209 35.0953 15.1519 35.4821 14.9838C20.9668 21.3357 34.4985 15.1687 38.0639 13.9406C39.4624 13.4099 38.268 13.8092 39.5473 13.3305C39.5506 13.3294 39.5539 13.3283 39.5572 13.3272ZM78.6281 3.7935C88.5317 2.49771 69.6263 5.14588 64.1783 6.52373C69.5098 5.31253 76.2273 4.1242 66.9527 5.80518C80.521 3.24171 74.9575 4.43362 75.4647 4.31046C76.1337 4.20376 78.2251 3.84577 78.6281 3.7935ZM52.6052 9.24402C52.0045 9.40128 47.7571 10.5873 46.3028 11.0679C48.2695 10.3284 56.4143 8.16819 52.6052 9.24402ZM171.339 110.204C171.703 110.169 172.588 110.177 176.033 110.32C174.966 110.307 172.769 110.244 171.339 110.204ZM178.027 6.4278C180.457 6.44792 185.116 6.5462 183.686 6.47123C183.549 6.45919 178.053 6.39432 178.027 6.4278ZM0.177693 49.4249C0.138603 49.1597 0.379593 45.3448 1.49989 42.5349C2.57413 39.6563 3.76988 37.7998 2.59877 39.8808C1.8962 40.7077 -0.222716 47.5219 0.140301 49.7833C0.154904 50.5376 0.167972 50.6905 0.169904 49.7833C0.171371 49.6784 0.173698 49.5591 0.177693 49.4249ZM51.1544 91.2697C50.0764 90.9255 45.9078 89.4746 45.8338 89.4491C45.5186 89.3933 50.6511 91.1617 51.1544 91.2697ZM190.006 6.68827C190.354 6.69177 197.543 6.92485 196.781 6.88075C195.288 6.76886 188.923 6.63707 190.006 6.68827ZM164.056 107.111C164.665 107.125 165.47 107.197 165.677 107.202C166.159 107.245 177.287 107.327 173.036 107.359C172.313 107.43 156.35 107.01 154.26 106.831C153.462 106.73 160.282 107.09 161.943 107.118C162.237 107.125 162.425 107.073 164.051 107.111C164.053 107.111 164.054 107.111 164.056 107.111ZM189.284 110.68C189.778 110.671 202.831 110.728 202.671 110.757C198.23 110.772 193.753 110.747 189.284 110.68ZM182.689 110.532C179.913 110.427 186.396 110.586 188.316 110.626C188.332 110.662 183.085 110.552 182.689 110.532ZM28.1287 81.6743C26.9102 81.0727 30.6193 83.0119 29.7793 82.6029C29.2164 82.3462 26.5411 80.9502 25.7228 80.5189C25.4747 80.4006 28.1225 81.8741 28.9473 82.2701C30.0932 82.8344 29.0184 82.2496 30.2498 82.852C34.1626 84.7493 37.9786 86.4071 41.8231 87.8961C42.1778 88.0339 39.4367 86.9317 42.4691 88.1075C42.9437 88.2888 45.7758 89.4331 49.3829 90.6528C57.6241 93.2461 63.4314 95.1157 74.0458 97.635C73.7096 97.5651 65.742 95.5039 65.3526 95.3691C56.5744 93.0829 41.1837 87.9858 32.5712 83.8353C30.3919 82.8159 31.4373 83.3414 30.5105 82.9003C29.7846 82.5437 30.6896 82.9373 28.1287 81.6743ZM176.78 6.45298C177.866 6.52178 181.922 6.52339 184.404 6.57477C183.535 6.49906 179.249 6.48071 176.78 6.45298ZM124.225 106.365C122.953 106.22 119.072 105.713 118.755 105.688C118.331 105.665 123.941 106.382 124.225 106.365ZM226.65 104.051C226.772 104.035 229.806 103.539 229.92 103.516C232.639 103.119 223.536 104.601 226.65 104.051ZM296.318 81.27C298.29 80.1666 300.418 78.8551 301.09 78.4963C299.817 79.3004 296.084 81.4555 296.318 81.27ZM280.404 15.7225C280.646 15.8211 278.977 15.386 277.14 14.933C275.432 14.5087 273.436 14.0378 272.793 13.8905C273.286 13.9462 279.967 15.5304 280.404 15.7225ZM170.849 109.971C175.087 110.151 174.199 110.01 176.904 110.153C177.349 110.174 178.763 110.443 174.083 110.192C173.245 110.143 176.527 110.228 170.849 109.971ZM32.238 16.379C31.2187 16.8632 28.1542 18.2478 26.0369 19.3497C26.488 19.0516 30.7059 17.0188 32.238 16.379ZM203.115 7.23856C205.119 7.37639 214.337 7.93089 212.056 7.74283C211.761 7.70332 204.418 7.29083 203.115 7.23856ZM116.845 103.423C120.661 103.888 112.768 102.813 110.346 102.465C111.443 102.641 116.578 103.398 116.845 103.423ZM303.423 23.7022C303.298 23.6241 299.652 22.0301 299.445 21.9634C296.421 20.5905 306.896 25.1974 303.423 23.7022ZM274.275 91.3615C275.638 90.8586 284.533 87.1733 286.475 86.2339C284.675 87.2795 272.623 92.1251 274.275 91.3615ZM153.318 109.015C156.415 109.228 159.203 109.414 162.01 109.59C161.405 109.602 153.679 109.077 153.318 109.015ZM289.506 18.3896C289.291 18.321 289.082 18.251 288.875 18.1856C289.091 18.2548 289.301 18.323 289.506 18.3896ZM85.753 100.147C83.2868 99.6258 83.7923 99.7904 83.9412 99.8248C85.7821 100.232 88.562 100.731 85.753 100.147ZM179.698 6.57298C180.602 6.63728 184.844 6.65379 187.342 6.72755C186.617 6.66206 181.697 6.58402 179.698 6.57298ZM89.3034 2.4608C92.5205 2.11199 79.4787 3.81946 76.86 4.28448C76.5802 4.22954 88.9121 2.43678 89.3034 2.4608ZM105.145 101.555C104.919 101.483 99.4742 100.563 100.625 100.789C101.358 100.944 105.298 101.614 105.145 101.555ZM70.3428 5.3897C69.2005 5.61137 66.289 6.14785 67.3006 5.91912C68.6283 5.61662 70.6402 5.32972 70.3428 5.3897ZM12.1985 71.3026C11.619 70.9791 6.47208 65.748 8.55822 67.9785C9.98003 69.4951 10.3165 69.6727 10.6778 70.0182C11.0871 70.6459 20.2531 77.8386 12.1985 71.3026ZM162.333 0.449612C159.573 0.343196 156.288 0.20088 153.491 0.120452C154.613 0.116347 161.142 0.350566 162.333 0.449612ZM126.108 104.472C125.43 104.467 107.562 102.026 117.73 103.471C118.288 103.581 128.112 104.769 126.108 104.472ZM170.849 109.971C170.316 109.948 169.701 109.919 168.989 109.882C169.696 109.916 170.312 109.946 170.849 109.971ZM122.532 106.05C123.501 106.138 118.628 105.525 117.191 105.346C116.758 105.334 122.383 106.044 122.532 106.05ZM153.278 0.159363C151.721 0.130724 148.62 0.0356224 146.6 0.00489008C146.922 -0.0268738 152.648 0.102822 153.278 0.159363ZM267.615 12.9164C264.35 12.2214 260.62 11.5515 260.502 11.5684C260.436 11.5507 260.282 11.5165 260.024 11.4638C259.775 11.4089 256.284 10.8129 254.706 10.5455C254.283 10.4724 253.97 10.4184 253.759 10.381C253.287 10.2977 253.334 10.2997 253.761 10.3642C257.559 10.6806 285.519 16.6698 264.087 12.2818C265.244 12.4826 266.328 12.6748 267.615 12.9164ZM261.964 95.5714C260.204 96.1008 255.196 97.6259 256.504 97.2596C257.437 97.0275 263.748 95.0631 261.964 95.5714ZM322.334 58.4634C322.169 58.9839 319.083 63.4131 318.985 63.4318C321.01 61.2118 323.632 56.1474 322.334 58.4634ZM248.218 99.4223C247.09 99.7012 245.669 100.119 245.802 100.09C246.952 99.8451 250.132 98.9778 248.218 99.4223ZM162.014 109.338C160.278 109.226 154.874 108.936 153.626 108.892C153.403 108.867 152.798 108.814 151.695 108.72C151.699 108.72 151.702 108.72 151.705 108.72C150.235 108.92 105.986 104.124 135.632 107.401C136.563 107.494 135.287 107.334 139.087 107.7C139.338 107.724 139.46 107.77 140.238 107.843C142.08 108.033 151.425 108.804 153.392 108.894C153.408 108.902 153.532 108.916 153.795 108.94C156.164 109.166 163.331 109.433 162.014 109.338ZM325.251 48.0993C325.34 49.2601 324.745 52.7041 324.605 53.0653C325.346 51.4164 325.265 45.4775 325.251 48.0993ZM125.572 104.284C123.487 104.033 118.285 103.418 119.853 103.642C120.8 103.796 127.95 104.588 125.572 104.284ZM306.438 74.7117C316.098 67.412 308.751 72.9855 310.197 71.8287C308.937 72.8531 307.699 73.797 306.438 74.7117ZM216.934 110.375C215.045 110.403 217.261 110.272 219.349 110.269C220.004 110.268 217.992 110.359 216.934 110.375ZM302.096 103.637C300.486 103.786 308.302 102.729 305.266 103.214C305.124 103.238 302.21 103.626 302.096 103.637ZM242.663 109.325C241.382 109.449 240.574 109.505 236.934 109.669C242.305 109.385 237.332 109.595 242.663 109.325ZM260.535 11.5804C260.515 11.5745 260.498 11.5698 260.502 11.5684C260.524 11.5746 260.534 11.5782 260.535 11.5804ZM237.295 101.928C235.828 102.192 231.709 102.963 232.944 102.779C233.065 102.767 236.705 102.091 237.295 101.928ZM153.626 108.892C153.824 108.914 153.722 108.912 153.392 108.894C153.377 108.887 153.463 108.887 153.626 108.892ZM259.072 96.3886C258.957 96.479 264.988 94.5826 265.253 94.4671C268.715 93.242 261.589 95.6603 259.072 96.3886ZM84.1881 97.0751C83.8702 97.0019 85.8884 97.5841 87.1708 97.8434C88.1601 98.0456 85.3674 97.3539 84.1881 97.0751ZM254.933 108.519C256.926 108.376 259.74 108.157 260.262 108.157C258.921 108.26 254.893 108.554 254.933 108.519ZM299.03 103.995C296.683 104.363 291.301 105.047 287.869 105.437C287.796 105.393 296.823 104.323 299.03 103.995ZM167.474 109.647C167.303 109.641 162.256 109.358 162.945 109.435C163.94 109.559 168.902 109.741 167.474 109.647ZM93.742 99.273C95.9616 99.6999 90.8956 98.5689 88.5622 98.0995C87.3745 97.8783 93.3512 99.2141 93.742 99.273ZM224.415 104.135C221.466 104.6 228.79 103.55 229.796 103.3C228.441 103.534 225.463 103.976 224.415 104.135ZM317.061 65.4008C310.176 72.0662 314.025 68.5502 315.281 67.362C315.472 67.1941 317.204 65.2704 317.061 65.4008ZM226.282 9.25953C227.601 9.37681 222.701 8.80551 222.036 8.79605C221.622 8.78081 225.47 9.17915 226.282 9.25953ZM215.228 5.01365C215.622 5.06004 216.013 5.10641 216.4 5.15271C216.11 5.11984 215.727 5.07466 215.228 5.01365ZM197.465 106.381C204.062 106.247 203.362 106.109 203.934 106.084C204.531 106.05 205.51 106.002 206.625 105.94C207.818 105.874 209.17 105.784 210.376 105.678C209.125 105.793 207.876 105.896 206.628 105.988C205.211 106.092 203.793 106.19 202.374 106.281C202.916 106.254 204.529 106.17 206.631 106.04C212.727 105.732 222.91 104.435 223.185 104.339C223.728 104.233 217.98 105.009 217.811 105.007C217.569 105.03 216.657 105.017 216.124 105.071C215.671 105.119 211.125 105.618 206.622 105.899C202.624 106.16 198.62 106.344 197.465 106.381ZM301.546 77.8403C302.837 77.0443 303.174 76.8728 303.791 76.4541C303.995 76.3137 304.007 76.255 304.697 75.7754C303.619 76.5094 302.597 77.1769 301.546 77.8403ZM185.666 106.932C183.797 106.925 192.17 106.742 192.437 106.72C193.87 106.714 187.193 106.96 185.666 106.932ZM255.994 97.2568C255.715 97.3562 249.492 99.0318 249.537 99.031C251.221 98.6632 259.496 96.291 255.994 97.2568ZM305.545 75.1902C307.427 73.9349 310.897 71.258 310.455 71.5072C310.452 71.5094 310.45 71.5115 310.447 71.5137C308.814 72.8349 307.222 74.0199 305.545 75.1902ZM101.358 100.605C97.2531 99.734 99.161 100.242 102.842 100.935C103.971 101.084 102.033 100.747 101.358 100.605ZM88.2326 97.8488C87.062 97.6393 75.4245 94.644 77.2048 95.1405C77.781 95.3483 84.5634 97.0388 84.8393 97.0853C85.308 97.2021 83.147 96.7554 86.7353 97.5935C86.5271 97.5248 88.6228 97.9457 88.2326 97.8488ZM97.9626 99.9007C93.9177 99.0283 92.9194 98.9601 96.0312 99.5932C97.2273 99.8321 98.5384 100.023 97.9626 99.9007ZM114.73 102.702C113.247 102.482 109.319 101.875 106.584 101.469C110.244 102.077 113.832 102.616 117.517 103.115C117.945 103.144 116.025 102.9 114.72 102.701C114.723 102.701 114.726 102.702 114.73 102.702ZM323.645 99.8699C320.385 100.383 327.876 99.0853 328.193 99.0295C329.139 98.898 325.103 99.6446 323.645 99.8699ZM251.585 14.522C252.499 14.7379 253.022 14.9015 255.024 15.3428C253.056 14.8326 251.048 14.3567 249.105 13.927C247.552 13.7155 250.576 14.2791 251.585 14.522ZM259.033 16.6703C258.751 16.6031 260.245 17.1277 256.672 16.1081C254.272 15.3385 267.423 18.8913 269.59 20.115C267.083 19.0865 261.428 17.258 259.033 16.6703ZM280.22 26.7199C280.407 26.7568 276.229 23.9174 275.655 23.6995C273.007 22.1421 279.754 25.9568 280.22 26.7199ZM265.835 19.3763C268.115 20.1972 263.046 18.4538 261.539 18.0353C261.397 17.9456 265.492 19.2264 265.835 19.3763ZM290.329 102.591C287.721 102.807 285.424 103.29 289.414 102.774C289.604 102.749 290.44 102.583 290.329 102.591ZM276.063 24.0768C274.017 22.8782 278.627 25.4518 279.768 26.5093C279.898 26.5589 276.436 24.2194 276.063 24.0768ZM288.474 102.577C285.019 102.912 286.261 103.005 286.692 102.965C288.47 102.804 294.546 101.96 295.787 101.769C286.68 102.956 290.101 102.408 288.474 102.577ZM272.56 104.435C269.359 104.771 277.551 104.024 279.112 103.78C277.517 103.955 273.47 104.342 272.56 104.435ZM253.068 105.98C251.33 106.098 246.18 106.405 245.322 106.489C247.206 106.376 252.337 106.074 253.068 105.98ZM249.136 106.131C246.427 106.253 245.788 106.441 248.904 106.2C249.025 106.19 249.235 106.128 249.136 106.131ZM233.93 106.905C232.15 106.924 230.131 107.15 233.008 107.034C233.863 106.998 234.118 106.903 233.93 106.905ZM284.132 102.821C281.602 103.08 278.346 103.538 283.755 102.953C281.859 103.182 279.959 103.403 278.062 103.617C285.155 102.922 284.61 102.814 286.639 102.592C289.471 102.268 289.262 102.408 288.698 102.514C291.011 102.18 300.884 100.925 306.56 100.067C301.563 100.772 293.425 101.79 288.477 102.349C287.064 102.512 285.699 102.702 284.495 102.835C282.566 103.046 284.274 102.807 284.142 102.82C284.139 102.82 284.135 102.821 284.132 102.821ZM213.933 107.517C208.738 107.529 212.02 107.63 214.961 107.55C215.087 107.546 214.062 107.516 213.933 107.517ZM281.182 28.3532C278.778 26.1222 278.296 25.9486 277.155 25.1578C275.975 24.4635 274.094 23.0449 267.334 20.5451C272.973 22.6603 267.692 20.6003 268.792 20.9981C269.668 21.2854 272.914 22.7536 271.059 21.8721C272.264 22.426 275.579 23.9478 278.266 25.8287C280.989 27.6411 282.857 29.9722 282.953 30.1595C282.95 30.1559 282.947 30.1523 282.945 30.1487C283.095 30.4008 282.649 29.827 281.182 28.3532ZM253.016 105.604C251.262 105.549 250.595 105.878 247.168 105.947C242.63 106.462 259.738 105.117 261.808 105.073C243.262 106.505 274.084 104.26 261.108 105.04C271.798 104.235 264.606 104.711 266.251 104.538C268.026 104.353 274.035 103.82 273.726 103.78C273.723 103.78 273.72 103.781 273.716 103.781C270.04 104.147 266.345 104.486 262.649 104.797C266.277 104.636 258.722 105.227 256.164 105.291C255.115 105.397 254.076 105.501 253.016 105.604ZM273.911 103.979C273.55 104.022 265.536 104.781 266.049 104.755C267.145 104.7 278.494 103.572 273.911 103.979ZM309.101 99.6058C306.239 100.036 301.807 100.629 300.254 100.891C303.118 100.506 307.551 99.8935 309.101 99.6058ZM160.523 106.33C156.841 106.167 168.179 106.811 164.9 106.578C164.735 106.57 160.7 106.342 160.523 106.33ZM244.637 106.169C240.899 106.328 242.672 106.402 245.439 106.194C245.6 106.182 244.81 106.161 244.637 106.169ZM276.894 25.1105C276.802 24.8001 267.873 20.5593 266.1 20.155C267.175 20.2316 277.317 24.9501 276.894 25.1105ZM314.112 98.6822C308.402 99.4356 300.694 100.677 299.846 100.782C299.003 100.893 300.316 100.649 300.123 100.673C299.694 100.742 290.684 101.906 290.251 101.949C289.94 101.99 291.58 101.884 289.725 102.138C293.355 101.703 309.779 99.4538 310.624 99.2692C311.282 99.1583 306.3 99.8268 314.103 98.6838C314.106 98.6832 314.109 98.6827 314.112 98.6822ZM297.723 101.046C299.978 100.788 293.669 101.624 292.141 101.791C288.746 102.183 297.433 101.093 297.723 101.046ZM282.55 102.851C281.825 102.93 275.305 103.606 274.757 103.697C277.844 103.454 284.192 102.692 282.55 102.851ZM209.851 107.28C208.135 107.31 203.449 107.303 203.184 107.338C204.882 107.333 209.58 107.324 209.851 107.28ZM244.544 15.0963C247.301 15.6173 240.913 14.4946 238.998 14.2154C238.915 14.1632 244.286 15.0308 244.544 15.0963ZM243.983 105.846C242.998 105.959 222.498 106.875 219.577 106.889C222.434 106.922 242.758 106.048 243.657 105.916C243.926 105.896 244.111 105.84 243.983 105.846ZM288.222 101.939C290.083 101.663 291.311 101.577 291.547 101.549C293.859 101.278 298.652 100.634 297.608 100.825C293.524 101.36 284.515 102.489 288.222 101.939ZM208.38 107.045C201.38 107.13 214.821 107.055 213.043 107.006C212.933 107.006 209.114 107.038 208.38 107.045ZM246.27 105.694C247.815 105.625 268.304 104.104 271.578 103.714C268.659 104.074 266.263 104.23 262.308 104.562C261.241 104.651 261.529 104.662 261.414 104.672C259.567 104.822 260.946 104.671 259.807 104.762C259.103 104.856 244.111 105.915 246.27 105.694ZM289.284 101.774C290.421 101.635 303.144 99.9534 303.647 99.8625C307.483 99.4156 290.28 101.72 289.284 101.774ZM244.387 105.732C246.576 105.525 256.789 104.894 249.807 105.413C249.14 105.462 246.316 105.6 244.387 105.732ZM209.128 106.946C208.775 106.956 201.494 106.974 201.371 106.996C202.403 107.028 213.052 106.939 209.128 106.946ZM212.89 106.792C212.716 106.795 214.411 106.83 211.022 106.872C210.746 106.872 210.202 106.824 205.904 106.879C205.033 106.89 203.685 106.939 203.783 106.941C208.28 107.061 221.659 106.598 212.89 106.792ZM289.51 101.693C288.821 101.747 290.465 101.467 291.962 101.323C292.604 101.262 291.417 101.462 289.51 101.693ZM186.068 106.799C190.288 106.85 177.036 106.521 176.349 106.478C176.768 106.539 185.671 106.81 186.068 106.799ZM237.989 14.4276C237.992 14.428 237.995 14.4285 237.998 14.429C234.498 13.9111 236.671 14.1838 236.511 14.1581C229.061 13.0835 230.994 13.4789 229.842 13.3378C227.346 13.0756 227.722 12.9879 223.497 12.6079C230.47 13.2581 224.15 12.6267 223.939 12.5693C223.165 12.2988 233.279 13.6407 236.744 14.1534C237.231 14.2136 233.644 13.665 234.887 13.8205C238.948 14.2729 251.35 16.642 237.989 14.4276ZM293.112 101.173C294.752 100.947 307.139 99.2862 303.862 99.7776C303.343 99.8866 290.718 101.564 293.112 101.173ZM258.759 15.0195C255.785 14.5318 262.648 15.8089 263.814 16.0225C264.434 16.1217 260.093 15.2293 258.759 15.0195ZM304.856 28.8973C307.8 30.4032 311.136 32.336 307.329 30.0654C306.979 29.85 304.53 28.6899 304.856 28.8973ZM74.0096 8.66237C77.7094 8.09453 77.4837 8.02021 74.759 8.47915C73.805 8.64404 73.8944 8.68075 74.0096 8.66237ZM215.629 8.82667C215.995 8.87177 220.331 9.39831 220.181 9.35458C218.562 9.13019 213.222 8.50983 215.629 8.82667ZM72.8541 8.88379C74.9997 8.48378 71.3032 9.03675 68.6857 9.64371C70.0688 9.36029 72.6123 8.9269 72.8541 8.88379ZM236.682 105.881C234.826 106.022 229.589 106.231 226.598 106.338C226.268 106.295 234.52 106.009 236.682 105.881ZM291.172 23.1067C294.322 24.1331 287.582 21.8142 288.136 22.0855C288.243 22.1149 291.066 23.0642 291.172 23.1067ZM20.8821 72.9882C18.8596 71.7386 25.2251 75.8424 23.4966 74.6692C23.3892 74.6151 20.9708 73.0599 20.8821 72.9882ZM51.3149 87.0528C49.5667 86.4956 42.1597 83.7356 45.0415 84.85C45.5646 85.0772 51.1273 87.0465 51.3149 87.0528ZM229.631 13.3584C230.627 13.5318 224.837 12.866 224.023 12.7871C223.698 12.7442 228.349 13.1134 229.631 13.3584ZM97.9398 5.51999C99.8026 5.32753 104.821 4.94139 105.733 4.85001C103.298 5.01693 97.2988 5.5046 97.9398 5.51999ZM276.377 18.8274C279.386 19.6214 284.119 20.9515 282.967 20.5342C277.634 19.0903 283.735 20.7669 276.377 18.8274ZM60.8081 11.44C62.3632 11.0811 63.4033 10.7647 63.2528 10.7931C61.6949 11.095 59.2705 11.7689 60.8081 11.44ZM176.023 5.13621C176.156 5.17825 181.029 5.50376 180.38 5.43551C180.173 5.40908 175.984 5.10014 176.023 5.13621ZM171.751 106.097C169.494 105.97 176.39 106.222 178.459 106.318C179.451 106.415 172.025 106.123 171.751 106.097ZM21.5156 26.5689C21.2385 26.7143 27.9125 22.8652 25.2386 24.3274C24.5242 24.6879 21.5412 26.509 21.5156 26.5689ZM29.7618 78.0019C25.0425 75.9403 44.6886 84.9864 39.5531 82.5427C39.0972 82.4341 30.2082 78.3315 29.7618 78.0019ZM62.781 90.503C61.8874 90.2364 62.4673 90.228 65.9393 91.2522C66.3949 91.3868 64.2371 90.8477 64.6097 90.9609C64.7812 91.0423 72.536 93.0939 72.9504 93.1647C73.3465 93.2568 72.8957 93.0844 73.2981 93.1761C73.783 93.294 78.4596 94.4625 81.0453 95.0219C85.9306 96.0866 86.3404 96.0913 86.7546 96.1816C87.8868 96.4122 89.7921 96.8316 92.1433 97.2773C103.855 99.577 121.959 102.01 131.439 103.067C123.008 102.122 115.006 101.134 106.791 99.8761C109.272 100.189 94.5141 97.9496 103.124 99.252C99.2139 99.0259 65.3699 91.7468 62.7908 90.5057C62.7875 90.5048 62.7842 90.5039 62.781 90.503ZM315.793 36.5577C315.435 36.2298 315.619 36.4166 316.081 36.896C316.605 37.4398 317.397 38.3126 318.095 39.2483C319.584 41.1457 320.558 43.6047 320.7 44.0278C320.505 43.3575 319.76 41.4596 318.512 39.726C317.412 38.1281 315.811 36.5685 315.793 36.5577ZM269.408 17.5077C268.45 17.3194 267.098 17.1251 262.055 16.0959C262.05 16.095 262.045 16.0941 262.04 16.0932C260.506 15.786 262.264 16.0853 261.984 16.0218C261.9 15.9954 257.04 15.0446 261.081 15.7746C267.113 16.9091 261.654 15.9706 264.829 16.5908C265.162 16.6373 271.649 17.9455 271.223 17.853C271.191 17.8423 269.306 17.4434 268.987 17.3707C267.798 17.0936 268.386 17.1794 268.218 17.1417C267.459 16.937 257.979 15.1865 256.367 14.8904C256.004 14.7162 272.148 17.8182 272.75 18.0896C273.137 18.1851 272.949 18.2529 273.348 18.3562C273.461 18.3852 275.049 18.7438 276.75 19.1586C278.59 19.6054 280.42 20.0869 280.834 20.2047C281.076 20.2729 281.259 20.326 281.393 20.3653C280.476 20.0637 286.107 21.6653 285.878 21.6586C285.806 21.641 281.973 20.5269 281.805 20.4891C281.743 20.4709 281.69 20.4546 281.639 20.4397C282.068 20.5782 278.833 19.6935 275.849 18.9851C273.069 18.3174 270.354 17.741 271.822 18.0987C267.848 17.2511 272.421 18.134 269.408 17.5077ZM249.989 14.0212C250.413 14.0769 250.836 14.133 251.261 14.1895C244.07 13.0646 236.11 11.8168 227.851 10.7065C225.79 10.4308 228.148 10.8149 225.456 10.4387C223.302 10.1388 220.952 9.77653 222.114 9.90984C222.394 9.93985 226.757 10.5486 228.98 10.8496C235.543 11.7389 233.914 11.4642 234.293 11.5127C234.744 11.573 238.837 12.2041 241.042 12.5345C245.57 13.2102 248.138 13.5831 253.106 14.4017C254.314 14.6015 255.64 14.8284 257.127 15.0959C254.143 14.609 254.171 14.6693 253.088 14.5124C252.541 14.4347 251.694 14.3012 249.989 14.0212ZM4.46514 50.3491C4.4045 50.6015 4.95807 54.702 5.64625 56.1111C5.42817 55.9105 4.37451 51.8828 4.46514 50.3491ZM30.5175 47.1367C30.7923 46.5408 29.7574 48.4086 29.1864 50.283C28.592 52.1384 28.4016 53.9275 28.6243 52.6666C28.6417 52.0889 29.8574 48.2094 30.5175 47.1367ZM50.8234 81.3213C52.0881 81.9603 47.029 79.2898 47.0782 79.3226C47.0451 79.3468 50.622 81.2477 50.8234 81.3213ZM158.204 4.48993C157.925 4.47795 153.999 4.33083 153.883 4.32737C151.261 4.16181 164.255 4.67521 158.204 4.48993ZM106.56 97.5058C101.621 96.7495 116.481 99.1395 111.952 98.3702C111.751 98.3463 106.778 97.5495 106.56 97.5058ZM127.292 100.35C126.125 100.234 120.793 99.5704 120.739 99.5742C120.611 99.5994 126.712 100.351 127.292 100.35ZM59.8349 11.9105C60.3593 11.837 53.6949 13.4468 51.2954 14.19C50.7307 14.2572 57.4396 12.4542 59.8349 11.9105ZM103.512 5.41071C74.1866 8.46922 80.4616 7.44944 105.297 5.24184C105.338 5.28438 105.4 5.26181 103.512 5.41071ZM66.0593 10.5592C67.0979 10.2913 70.4446 9.63726 72.6151 9.25577C72.2328 9.34669 67.6823 10.1979 66.0593 10.5592ZM38.0428 37.9812C36.5155 39.05 31.6426 44.9366 32.5326 43.8983C32.4848 43.4743 38.3361 37.4335 38.0428 37.9812ZM155.726 4.4609C156.425 4.53829 147.547 4.26565 146.832 4.25631C144.067 4.13278 155.067 4.42665 155.726 4.4609ZM21.4411 26.9896C20.1181 27.8667 16.5634 30.3296 14.5674 32.1255C15.4033 31.2616 19.354 28.2562 21.4411 26.9896ZM39.6459 18.1315C39.4494 18.1926 35.8381 19.6243 35.686 19.7015C32.6639 20.8508 43.0089 16.7645 39.6459 18.1315ZM242.729 15.693C242.614 15.6703 239.64 15.186 239.521 15.1703C236.867 14.6901 245.794 16.1521 242.729 15.693Z" fill="#E223DC"/>
</svg>
