<svg width="259" height="178" viewBox="0 0 259 178" fill="none" xmlns="http://www.w3.org/2000/svg">
<path d="M97.4126 39.4202C97.6938 39.5316 98.4379 39.8397 99.1981 40.1544L100.47 40.6839L101.602 39.8509C102.143 39.4514 102.693 39.045 103.037 38.7871C102.773 39.0109 102.213 39.4394 101.624 39.8804L100.475 40.7258L99.1841 40.1884C97.7289 39.5973 96.1573 38.9229 97.4126 39.4202ZM153.017 43.7972C152.892 43.0129 152.766 42.2287 152.641 41.4444C152.94 43.681 153.367 46.6837 153.639 48.7601C153.683 49.0996 153.514 48.2261 153.622 49.0291C153.731 49.8324 153.775 49.6685 153.943 50.8353C153.952 50.8972 153.963 50.9695 153.974 51.0515L150.433 49.3368C151.87 48.4894 156.71 45.6927 158.432 44.6796C165.191 40.7021 171.991 36.662 178.779 32.7039C171.81 36.8563 178.883 32.7568 180.831 31.5873C181.263 31.328 181.132 31.2636 188.164 27.1659C192.634 24.5618 188.603 27.1329 196 22.6841C190.216 25.942 195.848 22.6421 200.331 20.0023C200.905 19.6647 204.495 17.5661 207.436 15.8412L211.305 13.5432L210.984 18.0537C210.894 19.2364 210.811 20.3287 210.75 21.1524C210.669 22.2442 210.607 23.9124 210.499 25.3605C210.424 26.3572 210.332 27.1083 210.222 28.5881C209.707 35.4872 209.196 42.2716 208.661 49.1812C208.803 45.1304 208.351 52.3457 208.318 52.6689C208.149 54.3118 208.701 46.8647 208.45 49.8074C208.143 53.9231 207.836 58.0387 207.53 62.1543C207.806 58.7784 207.329 66.6362 207.166 68.0768C207.303 67.6309 206.458 77.3596 205.898 84.0472L203.979 81.6294C206.641 82.0627 208.817 82.4117 209.658 82.5277C210.269 82.6118 206.291 81.9242 215.539 83.3874C216.541 83.546 216.155 83.5306 216.681 83.6078C216.996 83.6541 218.922 83.8112 220.94 84.201C221.677 84.3434 216.921 83.7004 227.34 85.2744C223.215 84.4932 241.79 87.4314 245.204 87.9952C244.524 87.8708 243.844 87.7463 243.164 87.6219C246.536 88.1953 247.153 88.2421 247.914 88.3624C249.284 88.5789 250.881 88.8383 252.484 89.0981L258.878 90.0673L253.298 93.3633C251.553 94.3697 249.801 95.3814 248.421 96.1937C245.503 97.9107 245.538 97.9924 242.117 99.9594C242.934 99.5024 243.752 99.0455 244.569 98.5885C242.216 99.9633 239.863 101.338 237.51 102.713C242.895 99.4194 236.332 103.397 235.898 103.655C235.204 104.067 236.179 103.439 235.019 104.127C234.9 104.198 235.096 104.135 233.306 105.191C229.566 107.396 230.129 107 228.557 107.923C228.413 108.008 228.938 107.747 226.227 109.348C217.61 114.438 226.254 109.297 226.583 109.097C227.014 108.836 223.968 110.426 231.331 106.177C228.86 107.605 228.574 107.685 228.296 107.846C228.05 107.989 223.789 110.5 223.555 110.64C221.471 111.892 223.342 110.854 222.938 111.102C222.608 111.304 217.434 114.261 216.308 115.1C213.777 116.42 217.657 114.159 221.77 111.722C222.357 111.344 217.814 113.975 217.576 114.115C211.735 117.541 215.028 115.745 213.789 116.559C213.138 116.986 210.717 118.313 212.968 117.115C207.672 120.234 210.856 118.296 210.509 118.489C209.986 118.78 208.146 119.894 207.912 120.027C207.568 120.222 208.734 119.496 207.384 120.273C207.16 120.402 205.026 121.726 207.833 120.114C204.098 122.294 204.432 122.16 203.113 122.81C202.148 123.468 201.644 123.762 201.326 123.912L202.464 122.241C202.332 122.772 202.214 122.729 202.097 123.434C201.584 126.51 201.882 125.641 201.864 125.805C201.737 126.934 200.345 135.455 200.036 137.571C200.054 136.72 201.096 130.809 201.282 129.48C201.902 125.049 200.248 135.7 200.609 132.468C200.437 133.82 200.265 135.171 200.093 136.523C199.615 138.976 200.124 135.47 199.116 142.115C199.024 143.213 199.839 137.418 199.72 138.588C199.649 139.277 199.053 143.128 199.06 143.207C199.072 143.287 199.59 139.803 199.54 140.357C199.429 141.566 197.365 154.247 198.838 144.578C198.417 147.274 198.046 148.638 197.727 150.983C197.521 152.499 199.066 144.03 197.026 156.779C196.911 157.039 197.805 151.676 197.821 151.536C197.844 151.339 197.529 152.285 197.494 152.452C197.374 153.042 195.418 166.081 194.905 168.821C195.033 168.302 194.681 170.58 194.265 173.21L193.612 177.495L190.577 174.375C188.601 172.32 186.349 169.965 185.905 169.527C185.677 169.301 186.467 170.205 186.225 169.962C184.713 168.448 180.77 164.209 178.909 162.274C176.825 160.109 177.053 160.418 176.937 160.297C176.021 159.344 176.779 160.08 176.218 159.499C175.37 158.62 169.551 152.575 169.253 152.277C169.166 152.189 170.075 153.216 168.798 151.906C168.576 151.68 168.765 151.777 164.983 147.898C160.429 143.226 168.067 151.218 166.134 149.316C163.298 146.229 163.32 146.397 162.537 145.573C162.266 145.288 160.295 143.12 158.083 140.835C159.678 142.468 161.272 144.102 162.867 145.735C161.32 144.109 158.282 140.985 157.011 139.643C156.391 138.988 156.957 139.474 155.596 138.065C155.307 137.766 154.038 136.698 157.656 140.339C157.896 140.677 156.23 138.891 155.431 138.087C155.31 137.966 154.767 137.551 153.809 136.465C153.586 136.211 156.264 138.581 150.05 132.401L152.65 132.823C152.43 132.944 152.201 133.07 151.963 133.201C151.687 133.353 152.673 132.88 152.404 133.029C152.221 133.131 150.007 134.271 149.766 134.404C149.519 134.539 150.604 134.018 150.31 134.18C148.808 135.013 146.735 135.914 149.879 134.284C148.821 134.815 147.763 135.345 146.704 135.876C147.884 135.397 145.073 136.768 143.623 137.53C134.333 142.416 140.598 139.229 139.018 140.102C136.477 141.505 138.344 140.293 134.555 142.345C134.205 142.535 138.861 140.2 129.826 144.868C131.154 144.17 132.483 143.471 133.811 142.772C132.99 143.069 129.012 145.291 128.703 145.455C125.171 147.32 127.544 146.031 122.317 148.833C121.85 149.084 120.814 149.592 119.818 150.13C115.685 152.359 125.324 147.292 125.61 147.196C125.745 147.152 115.366 152.573 115.004 152.749C113.469 153.497 119.698 150.27 118.485 150.835C118.042 151.042 103.273 158.816 100.295 160.347C99.4968 160.757 98.797 161.107 98.1935 161.406L94.8592 163.171L94.8399 159.375C94.8889 157.149 94.9513 156.119 94.813 156.1C94.9898 155.01 94.8692 154.047 94.8704 153.552C94.8868 147.577 94.8886 147.566 94.8716 142.442C94.868 141.31 94.9216 140.355 94.9125 139.955C94.9071 139.722 94.8497 140.157 94.832 139.016C94.8077 137.431 94.8668 127.906 94.8985 127.198C94.9302 126.49 94.9122 131.22 94.9644 130.372C94.9688 127.501 94.9605 124.728 94.9609 121.875L97.5874 123.998C97.0503 124.113 96.5103 124.229 95.966 124.345C94.5657 124.643 95.2773 124.453 94.6723 124.582C94.4148 124.637 89.5878 125.706 89.7954 125.675C90.0485 125.638 94.2112 124.746 97.5937 124.027L94.9311 121.875C94.9244 125.062 94.9133 127.57 94.8826 125.642C94.8703 124.867 94.9544 122.126 94.8521 122.562C94.8525 122.333 94.8529 122.104 94.8533 121.875L97.61 124.103C84.4937 126.897 71.3775 129.69 58.2612 132.484C65.9071 130.763 74.5439 128.979 82.5676 127.248C83.6674 127.011 87.3879 126.222 86.925 126.269C80.0978 127.721 71.6193 129.569 65.0593 130.944C64.8493 130.988 65.6095 130.777 64.8225 130.939C63.3513 131.24 58.5862 132.34 57.7783 132.494C57.6399 132.519 60.3477 131.875 59.5121 132.015C57.3674 132.373 56.8748 132.705 55.0481 133.095C53.6356 133.396 44.124 135.329 41.7748 135.903C39.277 136.513 48.7769 134.442 48.0871 134.65C41.6674 136.09 35.1415 137.427 29.0655 138.739C28.9585 138.762 29.8979 138.608 28.5432 138.905C26.1857 139.423 25.5525 139.492 24.4018 139.728C24.1088 139.789 23.6407 139.888 23.089 140.005L14.9852 141.762L21.187 136.245C22.5551 135.038 24.5918 133.231 24.9464 132.941C25.0056 132.893 24.3693 133.544 24.2675 133.636C22.8245 134.951 22.2497 135.347 22.1161 135.464C21.8067 135.736 21.5097 136.015 21.2202 136.283L15.1606 141.673L23.0785 139.956C23.3168 139.9 23.5507 139.845 23.7788 139.797C24.7593 139.589 25.3051 139.503 26.5989 139.228C27.4916 139.038 26.6185 139.167 27.479 138.985C27.7949 138.918 31.2275 138.315 31.517 138.116C31.5496 138.093 27.879 138.864 23.063 139.884L15.4187 141.541L21.269 136.338C27.7222 130.652 36.8469 122.585 38.1878 121.368C36.3495 122.976 34.5112 124.583 32.6729 126.191C36.4103 122.931 40.7979 118.901 41.2184 118.739C47.7523 112.958 54.2862 107.177 60.8201 101.395L61.1699 104.604C52.7286 99.8979 44.2872 95.1924 35.8459 90.4868C32.9834 88.8784 34.606 89.6652 29.8712 87.064C31.0753 87.7711 32.2794 88.4782 33.4835 89.1854C31.0752 87.8191 20.3763 81.8142 18.6311 80.8669C18.4051 80.7443 18.0484 80.651 15.3658 79.1671C12.9855 77.8504 12.6371 77.5777 11.3727 76.8589C10.3111 76.2557 9.10414 75.6046 8.78933 75.4251C8.54775 75.2871 8.47209 75.1968 7.8911 74.8651C6.05643 73.8181 7.4947 74.7542 5.72861 73.6155C6.17722 73.8593 6.62583 74.103 7.07444 74.3467C5.75294 73.5978 4.14909 72.6747 3.76567 72.4314L0.529023 70.6482L3.95686 69.2276C4.08133 69.1848 4.09716 69.1864 3.96526 69.2481L0.580111 70.651L3.77645 72.4121C3.95139 72.4986 4.37631 72.725 5.13928 73.1416C5.70595 73.4509 5.20165 73.2169 5.62243 73.451C21.5502 82.3067 9.82948 75.699 3.78583 72.3952L0.624533 70.6535L3.97257 69.266C4.19275 69.1739 4.40558 69.0846 4.60958 68.9988C6.20295 68.4116 14.9905 64.7737 15.2875 64.665C15.7008 64.5144 14.2129 65.1757 16.203 64.4059C16.6217 64.244 28.377 59.3943 24.1698 61.2036C23.3016 61.5769 17.6529 63.871 16.2935 64.4302C19.5422 63.2382 26.9746 59.997 27.8199 59.6559C31.2304 58.2811 21.3246 62.4352 28.9964 59.3101C34.8955 56.907 29.3289 59.0939 31.5823 58.1319C32.8486 57.5913 39.5553 54.947 39.328 54.9083C41.613 53.9587 40.2972 54.5672 40.5816 54.4557C40.8596 54.3463 45.3479 52.4692 46.8192 51.8945C46.9976 51.8249 46.4636 52.112 46.6488 52.0418C47.0086 51.904 51.3458 50.1145 51.5182 50.0381C51.6278 49.9892 50.5716 50.3617 50.9921 50.175C51.4821 49.9577 55.6651 48.259 55.8894 48.1501C56.2057 47.9946 51.0538 50.1212 51.8899 49.7118C54.2733 48.7528 58.1312 47.1285 59.6816 46.4397C59.3024 46.6104 56.998 47.5562 56.1959 47.8791C56.5381 47.6409 61.4884 45.6153 59.8234 46.3747C60.8843 45.8986 60.1423 46.1803 60.7342 45.8986C60.8896 45.825 62.4172 45.1974 62.7058 45.0623C62.743 45.0437 61.153 45.6577 61.4617 45.5113C62.0208 45.2464 66.6574 43.356 67.04 43.2089C68.1165 42.7948 64.3499 44.3695 64.0493 44.534C64.0068 44.5577 67.2485 43.3115 67.2997 43.2977C67.5145 43.2866 63.9194 44.7033 64.3526 44.5951C65.242 44.2456 66.1314 43.896 67.0208 43.5465C63.6345 45.0031 57.3117 47.5559 55.7125 48.2904C60.7612 46.1995 66.0546 44.0349 66.1066 44.1932C66.1295 44.2594 63.9633 45.1907 64.0545 45.1726C64.4003 45.0998 67.4028 43.7957 67.5155 43.7532C67.609 43.7191 67.6525 43.7054 67.6539 43.7088C67.6539 43.7088 67.6539 43.7088 67.6539 43.7088C67.6678 43.7433 63.3607 45.5359 63.1511 45.6401C62.7993 45.8168 64.768 45.1452 64.7755 45.1719C64.7106 45.2044 61.6473 46.4905 62.7029 46.1102C63.7709 45.7253 66.4623 44.6245 66.5585 44.5905C67.0835 44.407 62.3864 46.3588 62.2525 46.4321C62.1817 46.4705 64.7298 45.4847 64.8091 45.4687C64.878 45.4572 62.9696 46.2748 62.2308 46.6296C61.6801 46.8941 63.3341 46.2466 63.0473 46.3702C62.8421 46.4582 58.3943 48.2787 58.178 48.3741C57.8559 48.5161 58.914 48.1294 58.7664 48.2015C58.5572 48.3039 57.1151 48.8776 57.308 48.8158C57.453 48.7692 63.0772 46.6268 63.0562 46.6782C63.0182 46.7668 57.0628 49.0372 62.6505 47.0375C62.6895 47.0235 64.0179 46.4591 64.0557 46.4454C64.8984 46.1534 60.6457 47.9762 65.8758 45.8205C56.1696 49.8868 64.7024 46.4108 63.3047 47.1061C62.7648 47.3744 58.9964 48.9368 58.9813 48.9501C59.3693 48.8513 60.5557 48.319 60.975 48.1767C61.2058 48.0986 57.8503 49.5359 58.6249 49.26C59.0254 49.1172 62.6083 47.6427 62.7577 47.5856C64.1903 47.0381 62.4651 47.7865 62.7865 47.6826C63.0001 47.6138 65.1642 46.7292 65.2217 46.709C65.3153 46.6776 62.4038 47.9448 61.8011 48.218C61.343 48.4259 63.1004 47.7382 62.7789 47.8787C60.8416 48.7249 56.6331 50.3129 60.7093 48.8333C60.9582 48.743 62.4733 48.1179 62.5187 48.1016C63.4748 47.7638 60.6839 48.9112 60.1996 49.1534C59.3684 49.5694 63.3675 47.8898 60.0482 49.3022C62.5696 48.3192 63.9642 47.7462 66.8895 46.5346C58.7898 49.8895 55.9949 51.2298 65.0008 47.5375C62.1344 48.7081 62.491 48.6726 61.6369 49.0243C61.1058 49.2428 56.9126 50.8498 58.9039 50.2812C59.1538 50.2097 61.6637 49.1428 60.8955 49.5205C54.8327 51.9868 60.7811 49.6074 60.7902 49.6121C60.7627 49.7686 45.9205 55.7267 43.3832 56.7822C40.439 58.0069 37.8566 59.1788 37.2152 59.4416C35.1047 60.3057 36.8357 59.5388 36.3564 59.7137C35.8705 59.8915 29.9083 62.4441 29.6065 62.5616C28.4354 63.0165 29.5911 62.4744 29.469 62.5209C28.0148 63.0741 19.9738 66.4204 17.7117 67.3306C17.7972 67.3403 22.3289 65.4884 19.5255 66.708C16.2612 68.1283 16.0035 68.0367 15.9143 68.0646C12.365 69.5183 8.81564 70.972 5.26632 72.4257L5.44618 69.4118C16.3445 75.4754 27.2429 81.5391 38.1412 87.6027C38.0108 87.4191 28.6593 82.2985 28.4537 82.1695C27.246 81.4108 42.9825 90.1701 44.8964 91.2745C43.44 90.44 41.9837 89.6055 40.5273 88.771C43.0856 90.0671 48.5573 93.2781 52.2034 95.2508C53.3812 95.8881 51.1552 94.6 51.2031 94.6233C52.5394 95.3174 54.6332 96.5208 53.0272 95.6936C56.2648 97.4316 55.7659 97.2243 58.2272 98.5994C58.354 98.6702 57.3182 98.0422 59.2765 99.1107C59.7857 99.3886 61.5124 100.347 63.0633 101.201L65.428 102.534L63.4023 104.31C62.3435 105.256 61.3856 106.118 61.1486 106.351C60.9297 106.567 63.1621 104.822 63.3237 104.479C63.3675 104.441 63.4106 104.403 63.4529 104.367L65.5594 102.521L63.1005 101.135C58.0532 98.2472 61.503 100.326 59.4659 99.1885C59.1506 99.0122 59.9176 99.343 54.7151 96.4929C55.7759 96.9102 61.6896 100.331 62.7218 100.884C64.85 102.025 56.1929 97.1182 54.5402 96.3334C55.3431 96.6452 53.9312 95.9763 51.9952 94.8933C49.8762 93.708 50.8179 94.1919 49.67 93.5528C46.5308 91.8048 47.7919 92.6019 45.2401 91.0959C47.6505 92.7033 40.7942 88.6567 38.7974 87.4758C42.1004 89.3005 45.4035 91.1252 48.7065 92.9499C48.5239 92.8343 48.3414 92.7188 48.1588 92.6032C49.0264 93.088 49.8941 93.5729 50.7617 94.0577C50.6169 93.9905 50.472 93.9233 50.3272 93.856C54.8426 96.2819 55.8937 96.9647 56.2585 97.1688C58.4483 98.3928 60.7977 99.7029 63.1637 101.021L65.783 102.497L63.5391 104.464C61.2182 106.519 58.8804 108.59 56.7076 110.515C56.0968 111.057 56.5664 110.742 52.075 114.642C50.6424 115.886 51.9439 114.654 50.3401 116.087C48.4333 117.991 48.3863 117.862 47.7874 118.392C46.0697 119.914 45.0461 120.874 44.8876 121.015C42.7693 122.901 39.6563 125.65 37.3287 127.72C37.2854 127.76 38.5313 126.722 37.0073 128.052C36.4719 128.52 31.5618 132.589 27.4374 136.335C28.5315 135.385 29.6255 134.434 30.7195 133.484C29.923 134.173 26.2179 137.477 24.0292 139.453L22.1891 135.815C23.9663 135.416 24.9904 135.175 23.8959 135.388C23.4493 135.475 22.842 135.607 22.1765 135.757L24.0689 139.498C25.5547 138.157 27.4078 136.447 27.74 136.283C27.0746 136.861 25.7507 138.029 24.0789 139.509L22.1733 135.742C29.8325 134.101 43.1069 131.219 44.4117 130.963C44.6437 130.918 43.2311 131.264 43.5514 131.201C43.7993 131.152 48.7117 130.087 49.3676 129.963C49.7579 129.889 47.5918 130.38 47.7716 130.357C47.9284 130.335 54.0696 129.035 54.4087 128.907C52.906 129.252 48.6662 130.143 50.8784 129.623C51.1629 129.556 52.6509 129.271 52.9965 129.19C56.204 128.434 46.5814 130.517 45.0915 130.836C51.1239 129.471 60.4928 127.541 67.4895 125.993C70.3298 125.429 63.3067 126.961 66.5175 126.309C73.1783 124.956 68.2727 125.869 68.478 125.819C70.119 125.421 75.7909 124.448 75.7556 124.269C78.1703 123.779 77.3954 123.969 80.79 123.215C80.3401 123.299 79.8903 123.383 79.4404 123.466C83.1926 122.552 91.237 121.097 90.6426 121.245C89.0441 121.644 84.8661 122.455 84.5112 122.533C83.9858 122.649 82.5709 123.142 76.7805 124.217C74.4498 124.844 85.9205 122.339 80.715 123.544C83.2641 122.986 91.5695 121.246 96.7578 120.135L98.924 119.682L98.9118 121.875C98.9104 123.906 98.9146 125.471 98.9297 126.062C98.9368 126.317 99.0603 125.13 98.9975 128.797C98.9675 130.538 98.9661 126.34 98.938 127.137C98.8749 128.926 98.8873 147.188 98.9004 159.375L96.3119 157.808C100.298 155.718 103.551 154.012 105.064 153.219C105.428 153.029 105.312 153.132 105.67 152.945C106.769 152.369 110.749 150.223 112.725 149.21C108.615 151.279 116.53 147.133 118.548 146.087C121.611 144.499 121.453 144.657 122.78 143.98C127.896 141.367 135.709 137.1 139.733 135.165C139.448 135.147 146.606 131.653 149.817 129.975C150.155 129.799 150.513 129.61 150.87 129.419L151.972 128.851L152.814 129.735C154.64 131.599 156.53 133.443 154.266 131.021C157.661 134.551 161.26 138.243 164.455 141.544C164.983 142.09 164.226 141.368 165.128 142.298C165.211 142.382 165.354 142.469 166.13 143.267C172.533 149.853 169.364 146.699 170.538 147.955C171.195 148.657 171.682 149.173 172.042 149.55C168.319 145.702 164.021 141.268 162.873 140.08C163.783 141.16 171.123 148.61 173.231 150.832C173.304 150.909 173.01 150.679 173.084 150.757C173.086 150.759 173.087 150.76 173.089 150.762C173.883 151.591 178.971 156.84 177.971 155.713C177.703 155.411 175.367 152.989 172.593 150.12C173.351 150.889 172.834 150.268 172.968 150.403C174.593 152.047 178.482 156.163 179.871 157.614C180.188 157.946 180.192 157.896 180.245 157.95C181.507 159.271 180.909 158.806 182.29 160.078C184.49 162.552 177.972 155.629 178.374 156.172C178.683 156.589 193.369 171.766 193.401 171.647C193.401 171.648 193.402 171.649 193.403 171.65L190.387 172.602C190.41 172.527 190.469 172.242 190.576 171.664C190.815 170.365 191.715 164.556 191.853 163.551C191.876 163.381 191.764 163.433 191.796 163.223C191.876 162.698 193.069 155.612 193.425 152.952C193.186 154.381 192.948 155.811 192.709 157.24C194.064 148.595 193.824 149.926 193.342 152.802C193.319 152.946 193.294 153.086 193.272 153.223C192.899 155.452 192.429 158.311 192.414 158.353C192.358 158.512 194.641 143.842 194.293 146.678C194.244 147.073 193.138 153.853 193.732 150.503C193.836 149.917 194.5 145.556 194.543 145.328C194.833 143.804 193.405 153.332 193.657 152.179C193.953 149.859 194.453 146.9 194.851 144.248C195.033 143.041 195.029 142.737 195.051 142.589C195.386 140.364 195.244 141.62 195.359 140.877C195.42 140.479 195.994 136.082 196.02 136.934C198.169 122.485 196.532 132.924 195.152 141.778C195.534 138.972 196.422 133.492 196.795 131.029C196.928 130.145 196.794 130.661 197.018 129.168C197.198 127.964 197.67 124.984 198.214 121.575L198.363 120.656L199.149 120.201C203.78 117.501 209.322 114.28 211.354 113.098C209.316 114.315 209.944 114.014 211.522 113.083C213.101 112.153 211.734 112.865 212.039 112.678C212.365 112.476 219.798 108.159 221.026 107.426C215.458 110.724 216.746 110.035 221.487 107.262C220.811 107.677 220.134 108.093 219.457 108.509C222.223 106.861 228.105 103.511 229.698 102.547C229.947 102.396 229.018 102.885 229.158 102.8C230.556 101.957 235.371 99.1894 235.586 99.0445C235.768 98.9218 233.704 100.086 234.452 99.6236C234.609 99.5272 236.611 98.4278 238.544 97.276C239.26 96.8487 238.804 97.0637 238.984 96.9551C240.484 96.0498 239.631 96.6391 242.387 95.0083C244.406 93.8135 245.875 92.8648 248.685 91.2458C239.454 96.5494 247.193 92.0562 251.018 89.7792C251.069 89.7491 251.111 89.7231 251.149 89.6995L251.835 93.2956C251.345 93.2349 251.525 93.33 247.666 92.6959C256.653 93.9345 245.122 92.2226 242.766 91.8566C242.637 91.8361 242.601 91.7755 241.445 91.5959C241.347 91.5808 241.482 91.6389 240.408 91.4756C230.216 89.9265 236.737 90.8927 234.807 90.5576C233.985 90.4148 229.023 89.7002 227.689 89.4951C227.382 89.4478 227.529 89.4318 226.341 89.2497C224.241 88.9277 222.353 88.677 220.966 88.4658C220.805 88.441 220.807 88.3803 218.177 87.9933C217.437 87.8845 216.604 87.7774 217.651 87.9568C221.122 88.5513 227.738 89.4744 231.662 90.1389C235.241 90.7448 223.931 89.0008 223.342 88.9101C223.126 88.8769 225.34 89.1889 223.097 88.836C221.181 88.5348 217.663 88.0962 214.811 87.6321C214.593 87.5968 212.325 87.1566 212.431 87.1678C212.527 87.1788 216.034 87.7018 215.529 87.5978C215.469 87.5855 213.242 87.2417 212.954 87.178C212.601 87.1 211.676 86.7268 211.202 86.6476C209.983 86.4449 210.77 86.619 209.981 86.4934C208.736 86.2952 205.234 85.7153 203.389 85.442L201.933 85.2083L202.051 83.7557C202.097 83.0879 202.121 82.6362 202.104 82.5837C202.073 82.9734 202.041 83.363 202.01 83.7526L201.888 85.243L203.383 85.4828C203.966 85.5758 204.55 85.6689 205.133 85.7619C204.425 85.6535 203.849 85.5659 203.381 85.4955L201.875 85.2538L201.997 83.7517C202.221 80.6281 202.068 82.2901 202.106 81.6189C202.153 80.7869 202.205 81.0258 202.35 79.1907C202.382 78.7915 202.949 71.1101 202.91 71.2476C202.634 75.4984 202.668 73.9172 202.652 74.113C202.59 74.8568 202.566 75.8108 202.489 76.809C201.95 83.8305 202.411 76.7431 202.266 78.3993C202.216 78.9695 202.171 80.1093 202.15 80.3513C202.084 81.1375 202.029 81.1463 201.994 81.6715C201.911 82.897 202.095 81.4729 202.092 81.5702C202.078 82.0056 202.009 82.9424 201.938 83.7472L201.812 85.3034L203.372 85.5537C204.584 85.7559 205.492 85.9381 203.888 85.7405C205.472 86.0156 205.673 85.945 206.927 86.1795C209.418 86.6453 205.67 86.045 204.652 85.9009C204.179 85.834 203.749 85.7723 203.347 85.7138L201.638 85.4396L201.777 83.735C201.959 81.0166 202.093 79.6047 202.425 75.0711C202.563 73.1955 202.682 70.9705 202.745 70.1002C202.785 69.5519 203.347 64.3897 203.093 64.2173C203.271 62.2074 203.685 59.0644 203.834 56.9913C203.968 55.13 203.829 55.7146 203.839 55.5407C203.853 55.2741 204.031 53.0246 204.075 52.2625C204.127 51.3695 204.058 51.812 204.15 50.3958C204.381 46.8718 204.47 46.9714 204.503 46.6099C204.894 42.4137 204.618 44.2431 204.678 43.31C204.733 42.4422 205.707 30.284 205.867 27.7213C205.807 28.7645 205.747 29.8077 205.687 30.8509C205.888 28.9912 205.941 27.0075 206.05 26.9808C205.906 26.5894 206.313 22.7501 206.396 21.5939C206.429 21.1382 206.397 21.1718 206.439 20.6015C206.493 19.8674 206.573 18.8302 206.658 17.726L209.634 19.5815C207.689 20.7195 205.503 21.996 204.808 22.4162C201.713 24.2865 206.28 21.6778 209.708 19.7072L206.513 17.715C206.362 19.4846 206.236 20.9922 206.209 21.3181C206.256 20.7123 206.36 19.2943 206.474 17.712L209.728 19.7412C206.351 21.7441 202.116 24.2759 205.517 22.3456C206.255 21.9266 207.513 21.0978 207.922 20.8536C210.693 19.2016 208.541 20.5472 208.763 20.4248C208.919 20.3381 209.32 20.0918 209.771 19.8136L206.39 17.7057C206.35 18.4502 206.306 19.3114 206.276 19.6377C206.259 19.824 206.288 18.6188 206.054 21.6869C206.074 21.1135 206.188 19.5203 206.325 17.7007L209.804 19.8701C207.225 21.3875 204.109 23.2002 203.506 23.565C203.16 23.7742 205.411 22.6029 198.965 26.2441C199.045 26.211 199.126 26.1779 199.206 26.1449C195.655 28.2375 192.104 30.33 188.554 32.4226C188.926 32.1716 190.892 30.9508 188.386 32.4377C186.943 33.2939 188.044 32.7184 187.913 32.7975C186.624 33.5752 163.637 47.061 159.188 49.6839C157.674 50.5761 153.478 53.1005 153.156 53.2905C153.067 53.3429 152.968 53.4013 152.86 53.4652L149.707 55.2955L149.231 51.7076C148.872 49.1275 147.906 41.9284 147.693 40.439C147.554 39.464 147.631 40.3986 147.513 39.5267C147.403 38.7162 147.569 39.5486 147.537 39.3078C147.28 37.3121 145.121 22.1803 144.67 18.5785C144.96 20.7778 146.576 31.7296 146.581 31.5043C146.579 31.4559 146.248 28.7857 146.154 28.2385C146.071 27.3243 145.509 24.224 145.3 22.5244C145.276 22.3322 145.454 23.0774 145.049 20.0483C144.909 19.0049 144.474 16.2823 144.158 13.5252C143.955 12.1336 143.48 8.66317 142.936 4.67911L146.455 6.15329C140.461 10.5987 133.03 16.1027 132.305 16.7065C132.274 16.7355 134.675 14.9819 133.083 16.2078C130.967 17.8376 132.803 16.2877 130.299 18.1363C129.922 18.4149 122.984 23.5982 122.762 23.7748C120.707 25.4071 126.797 20.9149 126.718 20.9859C126.52 21.1628 121.485 24.9292 121.277 25.0772C121.078 25.2177 125.127 22.0682 120.208 25.781C120.782 25.3699 121.356 24.9588 121.93 24.5478C119.621 26.2986 119.354 26.4031 118.788 26.8186C117.029 28.1102 115.203 29.612 112.314 31.5868C111.55 32.1088 112.756 31.1587 112.66 31.2233C111.739 31.8461 110.683 32.8007 109.283 33.7172C109.178 33.7863 112.26 31.4167 106.81 35.4735C107.191 35.2021 107.572 34.9306 107.952 34.6591C107.287 35.1779 102.938 38.4306 101.398 39.5765L100.423 40.2937L99.3278 39.8378C99.086 39.7386 98.9045 39.6639 98.8022 39.6213C96.3061 38.5827 98.5141 39.4122 95.9965 38.3899C97.5732 39.1385 89.9222 36.0178 90.3931 36.1222C89.2861 35.7799 82.8208 33.0457 79.7683 31.7926C77.8422 31.0021 73.8954 29.4338 73.2853 29.1782C72.542 28.8668 72.7952 28.8947 71.4546 28.3287C71.0723 28.1673 67.0444 26.5728 63.5535 25.0644C62.8769 24.7721 61.4899 24.0754 62.7685 24.567C64.9572 25.4086 69.0247 27.1784 68.999 27.0919C68.9659 26.9971 63.4215 24.7742 61.9374 24.1557C59.2635 23.0412 58.2418 22.5978 57.9801 22.4659L60.2296 20.2429C60.2665 20.3625 60.2482 20.3429 60.2028 20.2535L57.991 22.4392C58.2459 22.5169 58.9893 22.798 58.9151 22.756C58.8019 22.6931 58.4652 22.5431 58.0258 22.3542L60.1174 20.2874C60.5974 21.564 61.4276 23.6615 61.4701 23.7795C61.7064 24.4403 60.6054 21.7851 60.556 21.758C60.4933 21.7265 61.8537 25.3925 61.512 24.5719C61.1325 23.6604 60.2906 21.4289 59.8918 20.3767L58.1178 22.1297C58.4166 22.2572 58.6189 22.3433 58.6664 22.3619C60.5574 23.103 59.4082 22.5669 58.1696 22.0033L59.7648 20.4269C59.9728 21.0174 60.1897 21.6255 60.3041 21.9598C60.4139 22.2815 59.891 21.0334 59.9901 21.2969C61.5044 25.3196 60.4646 22.0834 61.5028 24.7468C62.429 27.1231 61.1553 24.0981 61.1876 24.1901C61.2299 24.3088 62.3486 27.1456 62.501 27.5987C62.5759 27.822 59.5305 20.5034 59.5948 20.8339C60.5382 23.1802 61.4817 25.5265 62.4251 27.8729C62.423 28.0869 61.1395 24.683 60.9933 24.3363C60.6991 23.6382 61.4384 25.6169 61.3813 25.542C61.3483 25.5027 60.3822 23.2194 61.1842 25.3102C61.4598 26.0288 62.1068 27.5097 63.0847 30.1372C59.4259 21.0944 61.8717 27.3964 61.9509 27.6743C62.028 27.9467 60.2515 23.6414 62.3431 28.8929C62.2873 29.1786 62.2521 28.7979 61.6353 27.3145C60.8795 25.4975 62.5052 29.7449 59.8948 23.0437C59.9771 23.4512 62.1094 28.8239 62.2165 29.1106C62.3089 29.3583 61.8024 28.1769 61.9596 28.6074C63.822 33.6982 62.5124 30.2136 63.0057 31.7063C63.0495 31.8391 64.9033 36.6136 63.456 32.993C60.8191 26.3968 59.8233 23.598 59.1769 22.57C61.0208 27.4911 63.4976 33.3577 64.0877 34.842C64.9908 37.1139 64.0165 34.7758 64.1155 35.0606C64.1502 35.1594 64.9291 37.1169 64.9361 37.1445C65.3311 38.6038 61.4816 28.425 60.1933 25.2506C60.5076 26.1137 60.822 26.9769 61.1363 27.84C60.6768 26.6821 60.2173 25.5241 59.7579 24.3661C61.8947 29.9033 59.8169 24.5678 59.1444 23.2424C58.9934 22.9449 60.4777 26.5507 58.7608 22.4468C59.9498 25.5043 59.5385 24.5417 60.6678 27.2893C60.609 27.2516 59.213 23.8463 58.0879 21.0907L57.5785 19.8178L58.8532 20.3344C59.8223 20.7193 60.7109 21.0729 61.3466 21.3254C60.3548 20.9114 59.5419 20.5744 58.8684 20.2975L57.5066 19.7456L58.0508 21.1054C60.0981 26.2981 59.0081 23.1443 61.5411 29.8007C62.154 31.1637 60.7274 27.5956 60.8532 27.8828C61.3046 28.9132 62.2148 31.3874 63.5171 34.2917C63.7293 34.7645 62.9897 32.7011 64.1796 35.7167C64.3111 36.0502 65.0144 37.9935 64.9997 37.9685C64.8543 37.7315 64.1187 35.8242 64.069 35.7532C64.0222 35.6865 64.8722 37.8028 64.8702 37.812C64.84 37.8993 64.1485 36.0512 64.2364 36.3246C64.4261 36.9151 67.3249 44.59 63.4199 34.6217C66.7559 42.8648 63.9007 35.6558 62.6018 32.4456C62.2707 31.6269 62.155 31.4321 61.6803 30.2667C61.0696 28.7676 60.3883 26.9998 60.0739 26.2235C59.7356 25.3886 61.5405 30.1788 58.8395 23.2866C60.1476 26.8206 62.6805 32.9749 63.9874 36.4377C66.624 43.4241 61.9361 31.6509 61.4394 30.4277C61.307 30.1018 61.6959 31.216 61.6069 30.9991C61.4615 30.6443 58.8354 23.9489 58.537 23.3043C58.2394 22.6614 59.5083 25.753 59.5511 25.9749C59.5719 26.0815 57.9481 22.0633 57.6126 21.2788L56.6579 18.8932L59.047 19.8614C59.2155 19.9251 59.2403 19.9304 59.0521 19.8489L56.6337 18.8688L57.6001 21.2838C57.6676 21.4645 57.8103 21.8342 58.0514 22.4506C59.2306 25.4654 61.5319 30.9718 61.7887 31.9511C60.3753 28.4022 58.9618 24.8532 57.5483 21.3043L56.5333 18.768L59.0732 19.7974C59.9444 20.1521 60.8156 20.5068 61.6867 20.8615C60.8226 20.4895 59.9586 20.1175 59.0945 19.7454L56.4323 18.6666L57.4961 21.3249C58.0815 22.884 58.6668 24.4431 59.2521 26.0021C58.6119 24.3977 58.0061 22.861 57.4141 21.3574L56.2734 18.5069L59.128 19.6638C62.2557 20.9518 65.237 22.1832 68.432 23.4435C57.2034 18.6836 72.1409 24.8349 72.3121 24.8856C72.3712 24.8981 67.9751 22.9672 67.2687 22.6541C71.2222 24.2235 83.1905 29.1017 76.2498 26.0979C77.5071 26.6492 80.6141 27.8324 80.5759 27.81C80.2102 27.5892 73.4861 24.8808 74.6026 25.2741C75.8965 25.7297 77.6377 26.5439 79.591 27.336C89.6144 31.3999 86.9985 29.9579 97.0136 34.1191C96.8186 34.026 96.6237 33.933 96.4286 33.8399C97.9564 34.4687 99.4842 35.0974 101.012 35.7262L98.7447 36.0125C106.885 29.9732 115.026 23.9339 123.166 17.8946C126.803 15.0566 136.611 7.67567 141.454 4.08492C141.814 3.8174 142.7 3.1678 143.692 2.44221L146.939 -2.86102e-06L147.519 4.04531C147.788 6.12097 148.103 8.57179 148.136 8.85329C148.232 9.68085 147.597 5.14536 147.847 7.20009C147.899 7.63389 149.259 17.6325 149.218 16.9097C149.07 15.7887 148.556 12.2874 148.49 11.7118C148.03 7.66832 152.214 38.4939 152.465 40.0151C152.389 39.33 152.313 38.645 152.238 37.9599C152.498 39.9057 152.757 41.8514 153.017 43.7972ZM106.337 36.1156C105.427 36.8662 103.033 38.594 101.643 39.649C101.603 39.6795 101.562 39.7105 101.521 39.742L100.451 40.529L99.2495 40.0287C96.9931 39.1375 93.3112 37.8587 94.9938 38.308C96.4127 38.8808 97.8316 39.4537 99.2504 40.0265L100.451 40.5263L101.52 39.7401C103.126 38.5319 104.731 37.3237 106.337 36.1156ZM143 6.34816C142.706 3.99256 143.084 5.79891 143.298 7.73333C143.322 7.94794 143.398 9.53517 143 6.34816ZM127.891 20.1046C127.97 20.0436 129.617 18.8214 129.676 18.7802C131.182 17.7226 126.215 21.4072 127.891 20.1046ZM195.485 28.2196C193.233 29.5495 194.924 28.6891 196.302 27.8243C196.388 27.7699 195.633 28.1322 195.485 28.2196ZM193.879 29.1595C192.076 30.0998 188.655 32.3528 191.448 30.6868C191.719 30.5251 193.963 29.1162 193.879 29.1595ZM141.07 10.3053C141.261 10.1141 143.236 8.6673 144.081 8.05055C144.079 8.09649 141.89 9.68946 141.07 10.3053ZM159.56 49.4073C159.619 49.3437 154.918 52.1017 152.803 53.3688L149.796 55.1146L149.341 51.6922C149.253 51.0879 149.187 50.6651 149.164 50.5522C149.198 50.7777 149.255 51.1805 149.327 51.6943L149.784 55.1386L152.811 53.3816C154.996 52.0938 159.502 49.4684 159.56 49.4073ZM178.353 38.3114C178.165 38.4161 175.634 39.9128 175.722 39.8929C176.977 39.1968 179.203 37.8402 178.353 38.3114ZM205.837 24.603C205.832 24.7626 206.172 22.5805 205.663 27.7739C205.589 28.5363 205.75 25.8052 205.723 26.0759C205.668 26.6434 205.628 27.0922 205.6 27.453C205.769 25.0292 205.953 22.512 205.982 22.2693C206.118 21.1298 205.839 24.5323 205.837 24.603ZM204.246 47.321C204.237 47.8224 203.98 51.0091 203.913 51.7337C203.902 51.8581 203.868 51.3094 203.765 52.7453C203.683 53.8981 203.889 52.1823 203.707 54.4263C203.523 56.6942 203.698 53.6589 203.679 53.8567C203.654 54.122 203.422 57.634 203.386 57.5215C203.36 57.4376 203.667 53.6796 203.73 52.7494C203.811 51.5583 203.647 52.9976 203.81 51.0088C203.912 49.7592 203.956 50.4595 203.98 50.196C204.001 49.9751 204.277 45.6007 204.245 47.3277C204.246 47.3255 204.246 47.3232 204.246 47.321ZM205.555 28.1088C205.565 27.9262 205.58 27.712 205.6 27.453C205.585 27.673 205.569 27.8921 205.555 28.1088ZM111.813 31.9863C112.821 31.2734 109.906 33.491 108.77 34.2878C108.732 34.2769 111.653 32.0999 111.813 31.9863ZM205.463 30.3616C205.166 33.9588 205.333 31.3091 205.555 28.1088C205.496 29.1258 205.562 29.1537 205.463 30.3616ZM146.154 28.2385C146.167 28.3902 146.169 28.4874 146.153 28.502C146.118 28.1029 146.124 28.0659 146.154 28.2385ZM147.274 36.5837C147.726 39.4353 146.92 33.6262 146.885 33.6684C146.872 33.6879 147.256 36.4695 147.274 36.5837ZM198.379 26.5246C198.149 26.6536 201.599 24.4287 196.529 27.5563C199.28 25.963 196.398 27.6782 196.448 27.6659C196.582 27.6371 201.164 24.8962 202.193 24.3131C202.952 23.778 199.14 26.0986 198.385 26.5212C198.383 26.5223 198.381 26.5235 198.379 26.5246ZM207.79 86.7343C207.072 86.6683 204.823 86.3063 203.293 86.0669L201.255 85.7401L201.42 83.708C201.421 83.7011 201.422 83.6943 201.422 83.6874C201.422 83.6942 201.422 83.701 201.422 83.7081L201.256 85.739L203.293 86.0657C204.036 86.1368 206.274 86.4972 207.79 86.7343ZM35.5459 129.367C27.6305 136.436 26.4804 137.211 33.796 130.825C33.9392 130.7 36.0158 128.925 35.5459 129.367ZM96.2619 119.865C97.2563 119.732 94.0234 120.44 91.8915 120.864C91.4091 120.96 89.6141 121.263 91.6411 120.812C91.5966 120.92 94.7441 120.282 96.2619 119.865ZM205.36 32.3994C205.333 33.4515 205.051 36.6744 204.914 38.3735C204.949 37.3329 205.229 33.9012 205.36 32.3994ZM41.3187 131.713C42.4135 131.484 43.1374 131.258 42.9473 131.293C42.0965 131.449 40.0642 131.942 41.3187 131.713ZM206.157 21.9869C206.199 21.8418 205.906 26.1168 205.805 26.4084C205.88 25.4954 206.129 22.0913 206.157 21.9869ZM204.908 86.2644C204.253 86.1468 207.662 86.6448 208.689 86.8199C208.601 86.8404 205.337 86.3414 204.908 86.2644ZM58.9214 127.909C59.9021 127.704 62.3492 127.181 62.6143 127.095C62.9435 126.989 59.3582 127.771 58.9214 127.909ZM33.3868 61.3319C33.5085 61.2957 29.9561 62.8481 28.3531 63.4797C25.3087 64.6788 33.2567 61.3756 33.3868 61.3319ZM30.9735 133.972C27.8712 134.571 31.3137 133.896 31.1639 133.858C29.0851 134.302 23.9144 135.409 27.4832 134.712C28.1783 134.576 30.0038 134.175 30.9735 133.972ZM33.8275 133.382C34.1539 133.289 36.3651 132.742 34.4417 133.16C33.5525 133.354 32.135 133.739 33.8275 133.382ZM11.1758 70.4595C8.53238 71.4755 20.5561 66.588 20.9054 66.4566C21.09 66.3872 21.2116 66.3432 21.2813 66.3195C21.7151 66.1209 23.9826 65.1887 24.2639 65.1267C23.582 65.4015 21.7265 66.1659 21.5088 66.2491C21.4149 66.2851 21.3448 66.3114 21.2962 66.3289C20.5118 66.6962 11.6824 70.2647 11.1758 70.4595ZM18.9818 76.5367C16.107 75.0404 15.6806 74.6269 15.927 74.7584C19.0396 76.4185 16.9744 75.3991 17.0664 75.4564C17.2773 75.5839 19.4922 76.7562 18.973 76.5318C18.9759 76.5334 18.9789 76.5351 18.9818 76.5367ZM7.08662 72.1065C7.20908 72.0541 9.72788 71.028 9.83233 70.9878C11.9149 70.191 4.7874 73.0951 7.08662 72.1065ZM203.057 64.4456C202.895 66.3862 202.982 64.4772 203.1 63.1882C203.111 63.0824 203.2 62.7336 203.057 64.4456ZM35.3448 133.041C35.7885 132.957 47.089 130.571 46.3925 130.633C45.4357 130.849 32.5914 133.562 35.3448 133.041ZM99.1681 145.434C99.1687 143.397 99.2494 145.618 99.2193 146.704C99.2082 147.107 99.1679 145.947 99.1681 145.434ZM208.403 20.4275C206.602 21.5372 206.904 21.1874 208.51 20.3024C208.573 20.2677 208.473 20.384 208.403 20.4275ZM99.2144 129.163C99.2633 136.187 99.0075 134.523 99.0939 125.391C99.1053 125.677 99.1167 125.963 99.1281 126.249C99.1369 123.83 99.1426 122.483 99.1463 121.875L99.1602 119.393L96.7085 119.906C96.1355 120.025 96.2321 120.002 96.7072 119.899L99.1666 119.386L99.1527 121.875C99.1552 123.085 99.1526 126.69 99.1604 128.109C99.1659 129.09 99.2086 128.267 99.2148 129.156C99.2147 129.158 99.2145 129.16 99.2144 129.163ZM99.1632 156.144C98.9816 162.909 99.0998 149.995 99.0762 146.291C99.1512 149.882 99.1398 154.557 99.2166 148.199C99.2314 157.495 99.1591 153.625 99.1531 153.996C99.1464 154.435 99.171 155.856 99.1632 156.144ZM99.162 138.301C99.1567 137.91 99.1936 134.964 99.1876 133.903C99.2496 135.387 99.198 140.897 99.162 138.301ZM38.7032 87.4639C38.4658 87.3874 37.9198 87.1245 35.8968 85.9778C36.5363 86.3058 37.8443 87.0097 38.7032 87.4639ZM104.391 37.2458C103.458 37.9368 101.853 39.1194 101.349 39.5114L100.412 40.2012L99.3585 39.7627C99.1325 39.6758 99.0861 39.6664 99.3298 39.7814C99.3328 39.7827 99.3388 39.7853 99.3477 39.7891L100.416 40.2337L101.366 39.5343C101.616 39.3528 104.404 37.271 104.391 37.2458ZM68.1502 126.036C68.4845 125.97 77.0961 124.125 74.1107 124.711C73.2103 124.888 65.3771 126.577 68.1502 126.036ZM23.5581 135.606C24.2789 135.452 27.2045 134.814 27.2643 134.79C27.454 134.708 23.8651 135.502 23.5581 135.606ZM95.4122 38.0912C95.219 38.0066 90.6897 36.1608 91.1782 36.3865C92.1057 36.8146 96.0744 38.3812 95.4122 38.0912ZM202.635 71.519C202.606 71.9269 202.513 72.4621 202.501 72.6031C202.476 72.9345 201.93 80.3988 202.079 77.5425C202.104 77.066 202.943 66.3309 203.055 64.9348C203.169 64.4002 202.752 68.9816 202.675 70.0983C202.662 70.295 202.713 70.4255 202.635 71.5156C202.635 71.5168 202.635 71.5179 202.635 71.519ZM28.0936 81.6181C27.7826 81.4977 20.0797 77.2458 20.196 77.2467C22.8285 78.7038 25.461 80.1609 28.0936 81.6181ZM31.9951 83.7981C33.6197 84.7395 29.7726 82.6109 28.6472 81.9681C28.6502 81.9343 31.7585 83.6609 31.9951 83.7981ZM39.91 132.271C40.772 132.074 38.0996 132.579 38.6915 132.439C39.0709 132.349 41.0077 131.959 41.6192 131.806C41.7926 131.762 39.8091 132.123 39.2398 132.248C38.4311 132.426 39.2266 132.306 38.3433 132.496C35.4109 133.127 32.8034 133.65 30.0542 134.242C29.806 134.295 31.7387 133.916 29.6209 134.37C29.2937 134.44 27.3165 134.812 24.7847 135.363C23.9006 135.579 23.0523 135.78 22.2223 135.97L23.9242 139.334C27.2536 136.301 30.274 133.765 34.8124 129.678C34.5972 129.848 30.5054 133.419 30.2651 133.63C28.5249 135.159 26.2635 137.153 23.8676 139.27L22.2402 136.053C27.3083 134.972 32.8417 133.785 36.6859 132.96C38.2808 132.617 37.4991 132.75 38.1858 132.601C38.7285 132.484 38.0963 132.684 39.91 132.271ZM105.052 36.7098C104.463 37.0765 102.666 38.4487 101.312 39.4609L100.403 40.1294L99.3823 39.7045C99.2192 39.6381 99.0619 39.5737 98.9128 39.5123C99.0066 39.5615 99.1663 39.6344 99.3741 39.7246L100.406 40.1541L101.325 39.4783C102.193 38.8592 103.94 37.5235 105.052 36.7098ZM60.5227 106.927C59.8827 107.498 57.8813 109.246 57.7296 109.406C57.5344 109.612 60.4156 107.08 60.5227 106.927ZM232.935 90.375C233.018 90.386 235.055 90.7045 235.132 90.7184C236.944 91.0502 230.834 90.0947 232.935 90.375ZM225.091 104.967C223.746 105.765 222.396 106.58 221.916 106.801C222.78 106.304 225.231 104.843 225.091 104.967ZM192.316 159.079C192.433 158.77 191.66 163.413 191.517 164.29C191.538 163.96 192.232 159.305 192.316 159.079ZM38.8964 87.8134C36.3843 86.4108 36.8654 86.7954 35.2916 85.8667C35.0349 85.7149 34.2964 85.0607 37.021 86.6681C37.5114 86.9574 35.5413 85.9188 38.8964 87.8134ZM99.096 123.904C99.0733 123.531 99.0656 122.753 99.064 121.875L99.0773 119.495L96.7258 119.986C95.9018 120.165 94.9865 120.357 94.2458 120.514C94.4423 120.452 95.5915 120.2 96.7195 119.956L99.1078 119.457L99.0944 121.875C99.0954 122.671 99.0947 123.455 99.096 123.904ZM87.2572 34.6955C86.0324 34.1258 80.2452 31.8055 81.6571 32.4288C81.858 32.517 86.4488 34.3618 87.2572 34.6955ZM205.01 39.7094C204.865 42.2711 205.282 36.9741 205.36 35.298C205.306 36.0555 205.019 39.5367 205.01 39.7094ZM194.885 142.936C194.868 143.058 194.442 145.745 194.421 145.865C194.024 148.059 195.23 140.457 194.885 142.936ZM239.123 96.8313C238.299 97.3623 232.724 100.594 231.458 101.289C232.626 100.535 240.147 96.172 239.123 96.8313ZM49.2554 93.5453C47.4608 92.549 45.7652 91.591 44.1262 90.6586C44.4896 90.8215 49.0784 93.4174 49.2554 93.5453ZM193.342 152.802C193.319 152.946 193.294 153.086 193.272 153.223C193.296 153.08 193.319 152.939 193.342 152.802ZM40.8005 124.271C39.5041 125.402 39.813 125.212 39.8936 125.143C40.8758 124.3 42.2682 122.991 40.8005 124.271ZM103.42 37.8085C103.122 37.9891 102.221 38.661 101.255 39.385L100.39 40.0215L99.4182 39.6169C98.6136 39.2905 97.7685 38.9491 97.1263 38.6799C97.3561 38.7999 98.3448 39.2131 99.4053 39.6485L100.395 40.0604L101.276 39.4124C102.077 38.8168 102.921 38.1833 103.42 37.8085ZM99.8004 155.819C100.958 155.255 98.675 156.494 96.288 157.762L98.9519 159.375C98.9396 157.539 98.9375 155.654 98.9535 154.904C98.9737 154.831 99.0012 157.145 99.0213 159.375L96.2559 157.701C97.9888 156.775 99.6673 155.884 99.8004 155.819ZM205.696 31.7725C205.754 31.6039 205.979 27.9185 205.899 28.699C205.848 29.1933 205.661 31.8734 205.696 31.7725ZM98.9795 150.482C98.9659 149.656 99.0098 147.731 99.0365 148.409C99.0708 149.279 98.9833 150.696 98.9795 150.482ZM52.252 129.661C52.6067 129.591 57.3464 128.527 55.3749 128.904C54.0068 129.165 53.8036 129.275 53.4835 129.344C53.1258 129.42 45.4849 130.981 52.252 129.661ZM143.458 133.032C141.842 133.896 139.869 134.906 138.17 135.796C138.85 135.409 142.75 133.361 143.458 133.032ZM204.633 45.9707C204.684 45.5281 205.611 33.4382 205.035 40.3026C205.002 40.7029 204.476 47.3146 204.633 45.9707ZM38.8964 87.8134C39.2133 87.9903 39.5781 88.1958 40.0003 88.4358C39.5798 88.1998 39.2146 87.9931 38.8964 87.8134ZM59.5823 107.613C60.0566 107.15 57.5532 109.357 56.8276 110.022C56.6269 110.253 59.5171 107.677 59.5823 107.613ZM138.062 135.903C137.091 136.432 135.304 137.344 134.093 137.98C134.284 137.846 137.624 136.098 138.062 135.903ZM191.115 167.746C190.776 169.8 190.389 172.308 190.376 172.6L193.411 171.642C193.399 171.632 193.391 171.626 193.388 171.626C193.361 171.589 193.291 171.508 193.173 171.377C193.054 171.244 191.409 169.564 190.709 168.82C189.133 167.145 191.066 169.13 193.451 171.603L190.321 172.591C191.204 166.961 192.407 159.529 190.805 170.16C190.908 169.355 191.012 168.551 191.115 167.746ZM246.687 92.4951C247.784 91.9036 250.765 90.0902 249.975 90.533C249.425 90.8416 245.589 93.0871 246.687 92.4951ZM205.356 116.768C205.681 116.587 208.603 114.837 208.667 114.772C206.965 115.741 203.874 117.594 205.356 116.768ZM247.604 92.4321C246.832 92.306 245.836 92.225 245.926 92.2421C246.707 92.3896 248.895 92.6726 247.604 92.4321ZM44.0097 90.8819C45.0161 91.4657 48.2818 93.2233 49.0105 93.5742C49.1373 93.6553 49.4854 93.8628 50.1271 94.2365C50.1251 94.2354 50.1232 94.2343 50.1212 94.2332C50.5948 94.5088 58.6277 98.992 62.9567 101.393L65.0506 102.573L63.2568 104.145C60.7142 106.405 59.6789 107.34 63.2877 104.18L65.1307 102.565L62.9793 101.352C62.1116 100.863 61.0109 100.243 59.6444 99.474C59.0958 99.1653 59.8264 99.6209 57.5917 98.3686C57.444 98.2858 57.3875 98.2143 56.9317 97.9588C55.8822 97.3705 50.2946 94.2356 49.1556 93.634C49.1492 93.623 49.0795 93.5771 48.9277 93.4862C47.5723 92.6741 43.2288 90.4291 44.0097 90.8819ZM199.534 120.19C200.132 119.855 201.997 118.746 202.176 118.606C201.476 119.003 199.571 120.127 199.233 120.344L198.514 120.76L198.378 121.6C198.368 121.679 198.371 121.688 198.388 121.602L198.524 120.767L199.239 120.353C199.294 120.324 199.39 120.272 199.534 120.19ZM204.787 45.6052C204.918 44.2145 205.138 40.6819 205.032 41.7465C204.967 42.3993 204.637 47.209 204.787 45.6052ZM218.272 109.181C211.346 113.201 216.625 110.15 215.59 110.81C216.484 110.267 217.378 109.724 218.272 109.181ZM11.6818 72.757C12.7924 73.387 11.4378 72.7353 10.2327 72.0092C9.85468 71.7812 11.0603 72.4046 11.6818 72.757ZM52.1097 53.3338C51.0711 53.6735 56.0146 51.6996 54.1154 52.536C54.0269 52.5742 52.183 53.307 52.1097 53.3338ZM14.8108 68.5708C14.0291 68.9492 13.5092 69.1689 11.2445 70.0818C14.5838 68.6981 11.4633 69.9243 14.8108 68.5708ZM193.401 171.647C193.392 171.636 193.385 171.626 193.388 171.626C193.398 171.639 193.401 171.645 193.401 171.647ZM240.161 91.2954C239.178 91.0971 236.401 90.6711 237.221 90.8444C237.3 90.8609 239.75 91.266 240.161 91.2954ZM49.0105 93.5742C48.8981 93.5023 48.96 93.5306 49.1556 93.634C49.1617 93.6443 49.1089 93.6216 49.0105 93.5742ZM248.468 91.5387C248.537 91.4585 244.842 93.6105 244.696 93.7008C242.609 94.9934 246.946 92.4338 248.468 91.5387ZM209.202 19.5012C209.131 19.5444 209.267 19.4801 209.503 19.3579L206.917 17.7456C206.86 18.1824 206.777 18.9364 206.757 19.4805C206.736 20.0761 206.88 18.6568 206.948 17.748L209.487 19.3309C209.382 19.3927 209.285 19.4505 209.202 19.5012ZM22.4755 65.4088C23.7285 64.8958 25.4928 64.1734 25.834 64.0788C24.992 64.4167 22.4612 65.4478 22.4755 65.4088ZM50.1595 54.0703C48.6971 54.7222 45.3141 56.1072 43.151 56.9841C43.0867 56.9406 48.7753 54.6535 50.1595 54.0703ZM40.812 89.0747C40.9078 89.1311 43.8654 90.7991 43.4811 90.5357C42.9201 90.1508 39.9864 88.5883 40.812 89.0747ZM206.426 23.9884C206.341 25.5047 206.696 22.0273 206.747 20.4243C206.773 19.6012 206.44 23.7328 206.426 23.9884ZM231.501 89.8957C229.517 89.6142 234.418 90.4173 235.11 90.4785C234.199 90.3339 232.206 89.9957 231.501 89.8957ZM210.273 114.021C215.786 110.939 212.699 112.473 211.743 113.058C211.608 113.14 210.138 114.096 210.273 114.021ZM72.8576 28.5149C72.0236 28.1928 75.0825 29.5169 75.498 29.6404C75.7548 29.7163 73.391 28.7209 72.8576 28.5149ZM172.042 149.55C172.227 149.742 172.411 149.932 172.593 150.12C172.455 149.98 172.275 149.795 172.042 149.55ZM213.553 86.9432C217.917 87.8046 217.477 87.5929 217.859 87.6527C218.684 87.7822 220.593 88.1279 222.148 88.3602C220.365 88.1054 218.582 87.8506 216.798 87.5958C218.202 87.8264 230.409 89.7827 230.67 89.7928C231.043 89.8074 227.197 89.2262 227.085 89.2051C226.925 89.1749 226.342 88.9651 225.987 88.9055C225.401 88.8077 215.185 87.2254 213.553 86.9432ZM221.652 107.322C220.77 107.824 220.497 107.929 220.096 108.178C219.959 108.262 219.959 108.314 219.492 108.602C220.212 108.175 220.932 107.749 221.652 107.322ZM205.661 85.8906C204.426 85.6443 209.998 86.527 210.176 86.5607C211.124 86.7447 206.671 86.0918 205.661 85.8906ZM250.329 90.4929C250.384 90.4618 250.774 90.2356 251.288 89.9365L251.877 93.0241C250.549 92.8147 248.499 92.4958 248.519 92.5203C249.055 92.6142 250.626 92.8644 251.871 93.0575L251.271 89.9074C250.066 90.6133 249.215 91.1222 250.329 90.4929ZM218.909 108.947C217.593 109.713 215.089 111.13 215.407 111.021C215.409 111.02 215.411 111.018 215.413 111.017C216.578 110.327 217.744 109.637 218.909 108.947ZM206.175 29.1821C206.495 26.3776 206.259 27.6998 206.036 30.1875C206.027 30.9456 206.123 29.6418 206.175 29.1821ZM206.937 20.1873C206.962 19.9387 207.039 18.9518 207.127 17.7615L209.396 19.1764C207.195 20.4748 204.198 22.262 204.942 21.8692C205.305 21.678 208.801 19.573 209.415 19.2091L207.089 17.7586C207.086 17.8092 207.083 17.8428 207.082 17.857C207.07 17.981 207.07 17.8392 207.065 17.7568L209.428 19.2302C209.387 19.2628 209.367 19.2836 209.439 19.2484L207.044 17.7552C207.025 17.8762 206.991 18.2485 206.926 19.1704C206.958 19.0274 206.91 20.4548 206.937 20.1873ZM206.42 26.8593C206.713 24.0706 206.611 23.4311 206.451 25.533C206.389 26.3543 206.378 27.2572 206.42 26.8593ZM205.542 38.275C205.633 37.2703 205.857 34.5932 205.947 32.7429C205.755 35.2135 205.564 37.6842 205.372 40.1548C205.379 40.4418 205.463 39.1539 205.543 38.2682C205.543 38.2705 205.543 38.2727 205.542 38.275ZM65.601 47.3313C63.5238 48.1357 68.2658 46.1764 68.4706 46.1039C69.0801 45.8919 66.5297 46.9716 65.601 47.3313ZM59.4115 22.0034C59.6234 22.585 59.7203 22.9817 60.2488 24.2374C59.8271 23.0703 59.4053 21.9032 58.9836 20.7362L58.4881 21.2258C58.6066 21.2786 58.7251 21.3313 58.8436 21.3841C59.4149 21.5609 59.0505 21.3976 58.5103 21.1716L58.9291 20.7577C59.0956 21.1877 59.3095 21.7233 59.4115 22.0034ZM61.0155 26.995C60.9421 26.8159 61.1959 27.8525 60.366 25.492C59.8053 23.8971 63.2458 32.4152 63.7961 33.9808C63.0938 32.2882 61.646 28.5372 61.0155 26.995ZM66.3522 42.1888C66.3804 42.2915 65.08 39.0526 64.9389 38.674C64.1983 36.6858 66.1991 41.633 66.3522 42.1888ZM62.2801 31.8259C62.8562 33.3582 61.5047 29.9934 61.1221 28.9826C61.1087 28.8752 62.1908 31.5893 62.2801 31.8259ZM43.9312 53.9265C42.2546 54.5061 40.8691 55.3035 43.3749 54.2311C43.4944 54.18 44.0029 53.9024 43.9312 53.9265ZM64.9599 39.0702C64.3837 37.5379 65.7352 40.9027 66.1178 41.9135C66.1297 42.0169 65.0478 39.3034 64.9599 39.0702ZM42.688 54.181C40.4841 55.0064 41.3412 54.9136 41.6169 54.8111C42.7519 54.3875 46.5586 52.7275 47.3347 52.3846C41.5973 54.7724 43.7256 53.7923 42.688 54.181ZM32.7018 58.4248C30.6919 59.2753 35.8716 57.2071 36.8313 56.7422C35.8287 57.1562 33.2734 58.1828 32.7018 58.4248ZM20.4153 63.3727C19.3262 63.8094 16.0888 65.1128 15.5613 65.3694C16.7442 64.8777 19.9717 63.5961 20.4153 63.3727ZM17.9142 64.2751C16.1975 64.9228 15.8468 65.2272 17.7871 64.3848C17.8625 64.3521 17.9776 64.2522 17.9142 64.2751ZM8.35191 68.1323C7.21587 68.5335 5.99953 69.1872 7.80546 68.452C8.3418 68.2334 8.47237 68.0903 8.35191 68.1323ZM39.8657 55.0589C38.2615 55.6882 36.2463 56.6248 39.6548 55.2415C38.4651 55.7457 37.2753 56.2499 36.0855 56.7541C40.5667 54.9818 40.1851 54.9834 41.4677 54.4646C43.26 53.7398 43.1636 53.9069 42.8184 54.0883C44.2579 53.4207 50.4898 50.8678 54.0864 49.3803C50.9093 50.6483 45.7524 52.703 42.6212 53.9643C41.7271 54.3243 40.8739 54.7087 40.112 55.0167C38.8905 55.5104 39.9557 55.0238 39.8719 55.0563C39.8698 55.0572 39.8677 55.058 39.8657 55.0589ZM12.0079 76.275C15.0656 78.0534 13.1818 76.8394 11.4232 75.8902C11.3476 75.8504 11.9319 76.2308 12.0079 76.275ZM66.2769 43.5924C64.5942 39.1769 65.9328 42.3407 62.1816 33.195C63.7901 37.0244 62.3238 33.3857 62.6544 34.1266C62.9193 34.7211 63.7949 36.9949 63.3252 35.6577C63.9543 37.4108 66.9444 44.9195 67.0679 45.2581C67.0666 45.2549 67.0654 45.2518 67.0641 45.2486C67.1384 45.452 66.814 45.0013 66.2769 43.5924ZM20.2562 63.0289C19.0981 63.3133 18.7755 63.7466 16.5745 64.4905C13.7974 65.856 24.4669 61.259 25.836 60.8913C14.154 65.6521 33.616 57.897 25.3659 60.9862C32.1158 58.3273 27.5532 60.0549 28.5765 59.5991C29.6714 59.1116 33.4835 57.5933 33.2659 57.6117C33.2638 57.6126 33.2617 57.6134 33.2596 57.6143C30.9389 58.5695 28.6181 59.5247 26.2973 60.4799C28.6241 59.6796 23.8619 61.5838 22.2085 62.1365C21.5577 62.434 20.907 62.7315 20.2562 63.0289ZM33.4513 57.7693C33.2212 57.86 28.177 59.9468 28.5139 59.8394C29.1953 59.5799 36.3566 56.6244 33.4513 57.7693ZM55.6717 48.6379C53.8579 49.3802 51.0428 50.5031 50.0747 50.957C51.889 50.2145 54.7044 49.0915 55.6717 48.6379ZM43.5742 93.9778C45.7785 95.1546 39.0637 91.4029 40.9829 92.5302C41.0775 92.5856 43.466 93.9199 43.5742 93.9778ZM15.0077 65.2066C12.6368 66.1194 13.8124 65.8226 15.5369 65.0684C15.6367 65.0247 15.1172 65.1644 15.0077 65.2066ZM64.8484 40.0399C64.747 39.8973 62.2512 33.5123 61.8036 32.3825C62.0939 33.0102 64.9648 40.2035 64.8484 40.0399ZM58.8046 47.186C55.1385 48.5244 50.3071 50.6905 49.7686 50.9068C49.2332 51.1219 50.0458 50.7181 49.9234 50.7663C49.6445 50.8765 43.9593 53.2103 43.6858 53.3272C43.4902 53.4112 44.5542 53.0754 43.3914 53.5829C45.6613 52.5968 56.0711 48.37 56.6065 48.1397C57.0214 47.961 53.8339 49.1612 58.7983 47.1885C58.8004 47.1877 58.8025 47.1868 58.8046 47.186ZM48.4189 51.4377C49.8543 50.8918 45.8719 52.5277 44.9023 52.9092C42.7478 53.7568 48.2349 51.5081 48.4189 51.4377ZM38.8226 55.3283C38.3643 55.5066 34.255 57.1806 33.9222 57.3635C35.8871 56.6194 39.8625 54.9244 38.8226 55.3283ZM14.2862 77.881C15.2959 78.4366 18.0489 80.0066 18.2259 80.062C17.2152 79.5059 14.4627 77.9361 14.2862 77.881ZM62.2765 20.6374C60.5168 19.8825 64.6264 21.552 65.8182 22.0565C65.8736 22.1064 62.4263 20.7017 62.2765 20.6374ZM14.4729 65.0361C14.0558 65.1988 8.37138 67.5367 4.00253 69.3391L0.806725 70.6636L3.82428 72.3261C5.992 73.525 7.81911 74.5334 8.40881 74.8546C7.83442 74.5236 6.00778 73.4994 3.84403 72.2906L0.900306 70.6688L4.01793 69.3767C8.33659 67.6166 13.9106 65.3319 14.2855 65.1686C14.4531 65.0954 14.5541 65.0048 14.4729 65.0361ZM42.327 53.6125C43.4872 53.0775 44.2832 52.8235 44.4325 52.7633C45.8963 52.1731 48.9207 50.9212 48.2768 51.2426C45.691 52.2781 40.0174 54.6772 42.327 53.6125ZM15.0286 78.5816C19.169 80.8623 11.2639 76.396 12.2764 77.0259C12.3418 77.0663 14.6004 78.3458 15.0286 78.5816ZM15.906 64.4318C16.8539 63.9953 29.755 58.7547 31.8237 57.9078C30.0019 58.7431 28.4848 59.2964 25.9973 60.3194C25.3262 60.5956 25.5185 60.554 25.4464 60.5836C24.284 61.0613 25.1394 60.6681 24.422 60.9611C23.9689 61.1463 14.5722 65.0463 15.906 64.4318ZM42.9866 53.3008C43.6951 52.9764 51.736 49.6694 52.0631 49.5446C54.5084 48.6113 43.6161 53.0551 42.9866 53.3008ZM14.696 64.8478C16.0451 64.1915 22.4694 61.6307 18.1075 63.4684C17.6908 63.6437 15.9038 64.3304 14.696 64.8478ZM14.5429 78.4161C14.7447 78.5317 19.0411 80.9447 19.1333 80.9609C18.5168 80.6043 12.2455 77.1019 14.5429 78.4161ZM12.2602 77.2641C12.3644 77.3213 11.3835 76.7079 13.3988 77.8381C13.5667 77.9323 13.8483 78.1649 16.398 79.5561C16.9154 79.8383 17.7347 80.2441 17.6784 80.2096C15.0862 78.6479 7.03012 74.3926 12.2602 77.2641ZM43.1137 53.1908C42.6694 53.3424 43.6838 52.8374 44.6428 52.4901C45.054 52.3414 44.3186 52.6964 43.1137 53.1908ZM28.1848 86.0389C25.6574 84.6899 33.511 89.0715 33.9177 89.2831C33.6806 89.1153 28.4376 86.1739 28.1848 86.0389ZM66.5721 21.9769C66.57 21.976 66.568 21.9752 66.5659 21.9743C68.7916 22.8984 67.3944 22.3713 67.4983 22.4153C72.2251 24.4181 71.0011 23.8142 71.7482 24.1081C73.3501 24.7381 73.0497 24.7398 75.7546 25.7961C71.2867 24.0422 75.3404 25.6708 75.4507 25.7603C75.8849 26.1193 69.5675 23.2656 67.3399 22.391C67.0295 22.2691 69.2872 23.2517 68.491 22.942C65.9023 21.9348 58.0317 18.4312 66.5721 21.9769ZM45.3675 52.1855C46.3832 51.7164 54.249 48.5474 52.1837 49.4368C51.8515 49.5799 43.8742 52.8745 45.3675 52.1855ZM190.204 173.662C189.462 172.923 189.955 173.47 190.697 174.259L193.498 177.138L194.1 173.184C194.272 172.173 194.483 170.853 194.533 170.429C194.573 170.085 194.238 171.952 194.039 173.175L193.456 177.006L190.742 174.216C190.523 173.987 190.333 173.79 190.204 173.662ZM199.234 141.249C199.601 138.855 199.821 136.305 199.381 139.286C199.335 139.603 199.167 141.519 199.234 141.249ZM95.1072 152.546C95.0438 155.075 95.1617 154.924 95.16 153.068C95.1595 152.412 95.1092 152.466 95.1072 152.546ZM169.748 152.557C169.921 152.742 171.955 154.842 171.901 154.746C171.163 153.957 168.632 151.359 169.748 152.557ZM95.0904 151.743C95.1117 153.242 95.197 150.662 95.1136 148.829C95.1205 149.76 95.0883 151.589 95.0904 151.743ZM9.762 66.5864C8.70286 67.0685 5.79996 68.2471 3.87957 69.0388L0.0590725 70.6222L3.66648 72.6097C3.81128 72.6898 3.95028 72.7666 4.08213 72.8393C4.11406 72.8712 3.94915 72.7894 3.654 72.6321L-1.57356e-05 70.6189L3.86985 69.0151C5.11812 68.4774 8.68282 67.0381 9.762 66.5864ZM197.57 151.394C197.882 149.122 197.085 153.969 197.213 153.533C197.226 153.471 197.558 151.483 197.57 151.394ZM47.7818 134.568C49.4032 134.182 44.2194 135.244 45.657 135.002C45.7277 134.99 47.6929 134.59 47.7818 134.568ZM25.187 139.399C26.4256 139.146 31.6962 138.01 29.637 138.415C29.3172 138.478 25.2726 139.345 25.187 139.399ZM71.897 24.1202C71.291 23.8024 74.9443 25.3155 75.4638 25.5405C75.6678 25.6291 72.6874 24.5346 71.897 24.1202ZM106.576 156.732C107.732 156.119 110.746 154.56 111.26 154.253C109.845 155.001 106.163 156.872 106.576 156.732ZM195.951 161.72C196.329 159.759 196.851 156.388 196.63 157.207C196.052 160.93 196.784 156.76 195.951 161.72ZM95.0151 143.316C95.0097 144.365 95.0976 145.169 95.1017 145.051C95.1411 143.914 95.0493 142.273 95.0151 143.316ZM150.975 133.14C150.99 133.209 153.337 135.619 153.043 135.279C152.946 135.167 150.963 133.083 150.975 133.14ZM36.5574 90.9851C37.8875 91.7646 33.7586 89.5051 32.5617 88.7932C31.9983 88.4137 36.3892 90.887 36.5574 90.9851ZM90.0866 125.531C89.9453 125.618 95.0785 124.483 93.0437 124.873C92.5343 124.971 90.1363 125.501 90.0866 125.531ZM40.8951 136.164C44.3288 135.358 29.8417 138.421 33.6634 137.685C33.9366 137.633 40.5961 136.234 40.8951 136.164ZM25.6918 132.332C25.2316 132.73 25.3343 132.388 27.2666 130.773C27.5202 130.561 26.3959 131.623 26.6056 131.452C26.7288 131.352 30.8436 127.741 31.0296 127.57C31.2293 127.387 30.9504 127.553 31.1519 127.366C31.379 127.155 33.9362 124.959 35.2577 123.789C37.7476 121.584 37.9833 121.308 38.1872 121.128C38.7817 120.6 39.8048 119.741 41.0103 118.673C46.877 113.474 55.7169 105.589 60.7184 101.281L61.0953 104.737C60.8911 104.62 60.6927 104.506 60.5007 104.395C60.7001 104.508 60.8993 104.62 61.0981 104.732L60.7222 101.285C56.5992 104.892 52.6988 108.405 48.6129 112.043C49.7929 110.858 42.3911 117.663 46.7122 113.674C44.7031 115.489 27.1994 131.026 25.6968 132.327C25.6951 132.329 25.6935 132.33 25.6918 132.332ZM200.767 131.814C200.6 133.293 201.769 125.75 201.796 125.098C201.63 126.092 200.789 131.63 200.767 131.814ZM195.464 166.631C195.365 167.333 195.384 168.017 194.745 171.68C194.745 171.683 194.744 171.687 194.744 171.69C194.557 172.761 194.719 171.533 194.677 171.728C194.669 171.766 194.492 172.769 194.4 173.231L193.706 177.787L190.479 174.469C190.302 174.271 190.246 174.197 190.499 174.45L193.687 177.726L194.372 173.227C194.396 173.053 194.437 172.773 194.501 172.355C195.151 168.111 194.656 171.97 195.012 169.709C195.055 169.432 195.66 165.141 195.606 165.388C195.6 165.413 195.412 166.703 195.373 166.915C195.224 167.715 195.247 167.318 195.227 167.431C195.185 167.682 194.712 170.885 194.347 173.223L193.669 177.671L190.518 174.432C189.74 173.626 189.102 172.956 188.893 172.713C188.828 172.637 189.535 173.358 190.551 174.4L193.637 177.573L194.301 173.216C194.785 170.01 195.612 164.621 195.666 164.324C195.715 164.051 195.803 164.183 195.858 163.901C195.887 163.756 196.548 159.281 196.648 158.702C196.678 158.534 196.701 158.406 196.718 158.312C196.579 158.983 197.216 154.936 197.234 155.066C197.238 155.138 196.792 157.923 196.774 158.022C196.766 158.066 196.759 158.103 196.752 158.139C196.883 157.568 195.402 166.999 195.781 164.973C195.385 167.712 195.754 164.571 195.464 166.631ZM185.817 169.772C186.024 169.969 186.23 170.167 186.437 170.365C183.054 166.897 179.213 162.834 175.338 158.817C174.355 157.798 175.436 159.019 174.161 157.669C173.14 156.588 172.044 155.358 172.615 155.93C172.755 156.07 174.826 158.279 175.881 159.367C178.996 162.578 178.254 161.723 178.437 161.91C178.639 162.117 180.563 164.173 181.632 165.278C184.319 168.058 185.571 169.304 189.203 173.139C187.058 170.972 188.156 172.234 185.817 169.772ZM68.4131 130.358C68.2409 130.434 65.1342 131.067 64.0091 131.314C64.1784 131.239 67.2874 130.606 68.4131 130.358ZM157.388 45.3103C156.579 45.8569 162.88 42.1718 161.195 43.1022C160.823 43.308 158.179 44.846 157.388 45.3103ZM185.675 28.7286C186.508 28.2192 183.096 30.173 183.127 30.2105C183.14 30.2208 185.568 28.7943 185.675 28.7286ZM143.054 137.991C142.891 138.078 140.504 139.311 140.428 139.347C138.821 140.113 146.672 136.05 143.054 137.991ZM209.875 32.5818C210.092 29.1853 209.301 39.3981 209.588 36.281C209.603 36.1256 209.865 32.7452 209.875 32.5818ZM208.811 46.7799C208.87 45.9663 209.164 42.3554 209.149 42.3065C209.124 42.2321 208.79 46.3654 208.811 46.7799ZM94.7819 142.608C94.7124 143.001 94.765 138.224 94.7563 136.563C94.8259 136.169 94.7731 140.948 94.7819 142.608ZM110.106 155.3C92.2847 164.681 96.1501 162.492 111.153 154.714C111.195 154.743 111.23 154.708 110.106 155.3ZM94.7389 146.972C94.7834 147.704 94.7702 149.991 94.7666 151.536C94.7357 151.258 94.7469 148.087 94.7389 146.972ZM153.927 50.3963C153.956 50.5517 153.992 50.7745 154.032 51.0435L150.404 49.2861C152.032 48.301 155.658 46.2344 154.918 46.6928C154.77 46.7847 151.733 48.5636 150.421 49.316L153.998 51.0482C153.936 50.5623 153.904 50.2849 153.927 50.3963ZM141.586 138.825C142.033 138.668 136.661 141.446 136.244 141.647C134.562 142.459 141.159 139.066 141.586 138.825ZM89.9605 125.88C88.9276 126.156 85.9564 126.766 84.0491 127.175C84.9079 126.944 88.342 126.226 89.9605 125.88ZM94.6809 128.106C94.6789 127.983 94.6836 125.262 94.6861 125.141C94.7378 122.912 94.7246 130.608 94.6809 128.106ZM63.6734 20.2397C63.7579 20.2725 65.6632 21.0566 65.7289 21.0856C67.4113 21.8298 61.6931 19.4762 63.6734 20.2397Z" fill="#E223DC"/>
</svg>
