<svg width="686" height="119" viewBox="0 0 686 119" fill="none" xmlns="http://www.w3.org/2000/svg">
<g clip-path="url(#clip0_112_303)">
<path d="M647.33 64.1561C647.702 74.7919 655.344 79.9264 662.799 79.9264C670.254 79.9264 674.352 76.6254 676.496 71.7662H685.255C682.929 80.293 675.006 87.2616 662.799 87.2616C646.957 87.2616 638.198 76.0757 638.198 61.4971C638.198 45.9099 648.82 35.916 662.517 35.916C677.8 35.916 687.027 48.5689 685.909 64.1561H647.33ZM647.425 57.0045H676.964C676.778 50.0359 671.467 43.0677 662.517 43.0677C654.971 43.0677 648.17 47.102 647.425 57.0045Z" fill="black"/>
<path d="M624.219 19.5962H632.697V86.0703H624.219V78.6433C621.144 83.8696 615.833 87.2624 607.819 87.2624C596.357 87.2624 586.385 77.9101 586.385 61.5896C586.385 45.3606 596.357 35.9167 607.819 35.9167C615.833 35.9167 621.144 39.3092 624.219 44.5354V19.5962ZM609.959 43.0684C601.295 43.0684 595.612 49.8536 595.612 61.5896C595.612 73.3257 601.295 80.1107 609.959 80.1107C617.509 80.1107 624.592 74.6091 624.592 61.5896C624.592 48.5697 617.509 43.0684 609.959 43.0684Z" fill="black"/>
<path d="M583.386 61.5889C583.386 79.468 570.993 87.2616 559.344 87.2616C547.696 87.2616 535.302 79.468 535.302 61.5889C535.302 43.7096 547.696 35.916 559.344 35.916C570.993 35.916 583.386 43.7096 583.386 61.5889ZM559.344 79.9264C566.986 79.9264 574.35 74.2417 574.35 61.5889C574.35 48.4772 566.986 43.2511 559.344 43.2511C551.703 43.2511 544.343 48.1106 544.343 61.5889C544.343 74.7001 551.703 79.9264 559.344 79.9264Z" fill="black"/>
<path d="M532.413 53.2451H523.84C522.627 47.3768 517.412 43.2511 510.888 43.2511C503.338 43.2511 496.441 49.0273 496.441 61.4053C496.441 73.9668 503.433 79.9264 510.888 79.9264C517.971 79.9264 523 75.2503 524.213 70.0239H532.972C531.296 79.2845 522.255 87.2616 510.607 87.2616C496.255 87.2616 487.219 76.5341 487.219 61.4971C487.219 46.8271 496.628 35.916 511.447 35.916C523.559 35.916 531.296 44.9015 532.413 53.2451Z" fill="black"/>
<path d="M449.524 24.3633H458.003V36.7412H467.511V43.4344H458.003V72.683C458.003 77.8176 458.375 79.101 463.222 79.101H467.511V86.0696H461.36C451.761 86.0696 449.524 83.9607 449.524 73.6916V43.4344H441.604V36.7412H449.524V24.3633Z" fill="black"/>
<path d="M406.134 44.168C409.023 39.4919 413.869 35.916 422.349 35.916C434.463 35.916 438.842 43.6178 438.842 54.8956V86.0695H430.363V57.3711C430.363 49.761 429.058 43.1594 419.367 43.1594C411.166 43.1594 406.134 48.7525 406.134 59.2964V86.0695H397.654V36.7412H406.134V44.168Z" fill="black"/>
<path d="M353.619 64.1561C353.992 74.7919 361.633 79.9264 369.088 79.9264C376.543 79.9264 380.643 76.6254 382.787 71.7662H391.546C389.216 80.293 381.295 87.2616 369.088 87.2616C353.246 87.2616 344.487 76.0757 344.487 61.4971C344.487 45.9099 355.11 35.916 368.808 35.916C384.091 35.916 393.316 48.5689 392.198 64.1561H353.619ZM353.712 57.0045H383.252C383.066 50.0359 377.754 43.0677 368.808 43.0677C361.26 43.0677 354.458 47.102 353.712 57.0045Z" fill="black"/>
<path d="M277.029 86.0695H268.549V36.7412H277.029V44.168C279.917 39.4919 284.577 35.916 292.125 35.916C299.766 35.916 304.332 39.2168 306.569 44.6264C310.576 38.575 316.447 35.916 323.435 35.916C335.084 35.916 339.65 43.6178 339.65 54.8956V86.0695H331.17V57.3711C331.17 49.761 329.679 43.1594 320.454 43.1594C313.185 43.1594 308.339 48.7525 308.339 59.2964V86.0695H299.859V57.3711C299.859 49.761 298.368 43.1594 289.143 43.1594C281.874 43.1594 277.029 48.7525 277.029 59.2964V86.0695Z" fill="black"/>
<path d="M251.106 36.7412H259.586V79.468C259.586 89.5536 257.722 93.6796 254.834 96.797C251.199 100.923 244.956 103.307 237.501 103.307C226.132 103.307 218.491 98.1722 216.907 88.1784H225.946C227.064 92.5793 229.766 95.972 237.594 95.972C242.16 95.972 245.608 94.6881 247.845 92.3044C249.708 90.3791 251.106 88.0866 251.106 81.3934V76.7172C248.031 81.9435 243.185 85.2445 235.171 85.2445C224.082 85.2445 213.925 76.4424 213.925 60.5803C213.925 44.8098 224.082 35.916 235.171 35.916C243.185 35.916 248.031 39.3085 251.106 44.5347V36.7412ZM237.314 43.0677C229.021 43.0677 223.15 49.3944 223.15 60.5803C223.15 71.858 229.021 78.1842 237.314 78.1842C244.862 78.1842 251.479 73.1414 251.479 60.5803C251.479 48.1106 244.862 43.0677 237.314 43.0677Z" fill="black"/>
<path d="M199.867 79.0122C196.978 83.6879 192.412 87.2637 184.118 87.2637C172.471 87.2637 168.091 79.5619 168.091 68.2843V36.7437H176.571V65.8087C176.571 73.4188 177.875 80.0208 187.1 80.0208C195.114 80.0208 199.867 74.4274 199.867 63.8834V36.7437H208.347V86.0721H199.867V79.0122Z" fill="black"/>
<path d="M118.227 73.0492C118.227 61.4049 131.552 58.0121 152.147 55.7202V54.5281C152.147 45.5424 147.022 42.5168 140.778 42.5168C133.789 42.5168 129.689 46.2761 129.316 52.3274H120.556C121.395 41.6916 130.9 35.7319 140.685 35.7319C154.476 35.7319 160.72 42.2418 160.627 56.0868L160.533 67.4562C160.44 75.7082 160.906 81.3929 161.838 86.0686H153.265C152.985 84.235 152.706 82.2179 152.613 79.284C149.537 84.3268 144.319 87.2607 135.466 87.2607C126.054 87.2607 118.227 82.1262 118.227 73.0492ZM152.799 62.3217C137.423 63.8804 127.639 66.0806 127.639 72.8656C127.639 77.5418 131.273 80.6592 137.33 80.6592C145.251 80.6592 152.799 77.0834 152.799 65.4391V62.3217Z" fill="black"/>
<path d="M18.6828 91.0318C17.1667 91.0318 15.8899 90.772 14.8523 90.2545C13.8175 89.7371 13.033 88.9489 12.5072 87.909C11.9815 86.8691 11.7116 85.5961 11.7116 84.1019V68.6919C11.7116 66.7924 11.3306 65.41 10.5767 64.5481C9.81722 63.6886 8.47084 63.2343 6.54027 63.1902C5.93941 63.1902 5.45817 62.9658 5.09377 62.5088C4.72378 62.0572 4.54297 61.5343 4.54297 60.9514C4.54297 60.319 4.72378 59.7966 5.09377 59.3886C5.46094 58.9806 5.94777 58.7562 6.54027 58.7126C8.47084 58.6658 9.81722 58.2142 10.5767 57.3547C11.3361 56.4956 11.7116 55.135 11.7116 53.2796V37.8696C11.7116 35.606 12.3125 33.8844 13.5059 32.7102C14.6993 31.536 16.4268 30.9448 18.6828 30.9448H37.0927C37.7853 30.9448 38.3556 31.1501 38.8174 31.5552C39.2764 31.963 39.5101 32.4858 39.5101 33.1126C39.5101 33.7038 39.3153 34.2101 38.9259 34.6426C38.5364 35.075 38.019 35.2913 37.3708 35.2913H20.2768C19.3059 35.2913 18.5715 35.5403 18.068 36.0385C17.5617 36.5367 17.3086 37.3058 17.3086 38.3514V53.8325C17.3086 55.1899 17.0304 56.4215 16.4796 57.5301C15.9288 58.6413 15.1916 59.5117 14.2709 60.1496C13.3501 60.7815 12.2736 61.0991 11.0301 61.0991V60.8256C12.2736 60.8256 13.3501 61.1431 14.2709 61.7751C15.1916 62.4075 15.9288 63.2806 16.4796 64.3946C17.0304 65.5031 17.3086 66.7347 17.3086 68.0926V83.6417C17.3086 84.6875 17.5617 85.4539 18.068 85.9545C18.5743 86.4584 19.3115 86.7019 20.2768 86.7019H37.3708C38.0135 86.7019 38.5309 86.9181 38.9259 87.3479C39.3209 87.7804 39.5101 88.2892 39.5101 88.878C39.5101 89.4663 39.282 89.9701 38.8174 90.4026C38.3556 90.8347 37.7826 91.0482 37.0927 91.0482H18.6828V91.0318Z" fill="black" stroke="black" stroke-width="1.17691" stroke-miterlimit="10"/>
<path d="M63.8151 91.0332C63.1222 91.0332 62.5521 90.8169 62.0905 90.3871C61.6285 89.9546 61.3977 89.4458 61.3977 88.8629C61.3977 88.2796 61.5921 87.7653 61.9819 87.3328C62.3713 86.9003 62.8887 86.6868 63.537 86.6868H80.6311C81.602 86.6868 82.3362 86.4433 82.8395 85.9395C83.3461 85.4416 83.5991 84.6724 83.5991 83.6266V68.0771C83.5991 66.7197 83.8772 65.4881 84.4282 64.3795C84.9788 63.2683 85.7162 62.3979 86.6366 61.76C87.5575 61.1281 88.6342 60.8105 89.8776 60.8105V61.084C88.6342 61.084 87.5575 60.7665 86.6366 60.1345C85.7162 59.5021 84.9788 58.629 84.4282 57.515C83.8772 56.4065 83.5991 55.1749 83.5991 53.817V38.3362C83.5991 37.2961 83.3461 36.527 82.8395 36.0234C82.3334 35.5253 81.5961 35.2762 80.6311 35.2762H63.537C62.8942 35.2762 62.3767 35.06 61.9819 34.6275C61.5921 34.2005 61.3977 33.6886 61.3977 33.0974C61.3977 32.4652 61.6258 31.9479 62.0905 31.54C62.5494 31.1322 63.1222 30.9297 63.8151 30.9297H82.2249C84.4809 30.9297 86.2027 31.5209 87.4017 32.6951C88.6006 33.8693 89.1961 35.5909 89.1961 37.8545V53.2641C89.1961 55.1199 89.5773 56.4833 90.331 57.3396C91.0906 58.1992 92.4367 58.6535 94.3675 58.6976C94.9681 58.7412 95.4497 58.9656 95.814 59.3736C96.1838 59.7811 96.3646 60.304 96.3646 60.9364C96.3646 61.5274 96.1838 62.0449 95.814 62.4937C95.4497 62.9453 94.9599 63.1752 94.3675 63.1752C92.4367 63.2188 91.0933 63.6736 90.331 64.5326C89.5714 65.3922 89.1961 66.7719 89.1961 68.6768V84.0864C89.1961 85.5838 88.9318 86.8481 88.4007 87.8939C87.8691 88.9393 87.0904 89.7166 86.0555 90.2395C85.0179 90.7569 83.7409 91.0168 82.2249 91.0168H63.8151V91.0332Z" fill="black" stroke="black" stroke-width="1.17691" stroke-miterlimit="10"/>
<path d="M68.5463 66.8469C71.8986 66.8469 74.6162 64.1729 74.6162 60.8746C74.6162 57.5768 71.8986 54.9023 68.5463 54.9023C65.1944 54.9023 62.4763 57.5768 62.4763 60.8746C62.4763 64.1729 65.1944 66.8469 68.5463 66.8469Z" fill="black" stroke="black" stroke-width="1.17691" stroke-miterlimit="10"/>
<path d="M34.5472 66.8469C37.8992 66.8469 40.617 64.1729 40.617 60.8746C40.617 57.5768 37.8992 54.9023 34.5472 54.9023C31.1951 54.9023 28.4773 57.5768 28.4773 60.8746C28.4773 64.1729 31.1951 66.8469 34.5472 66.8469Z" fill="black" stroke="black" stroke-width="1.17691" stroke-miterlimit="10"/>
<path d="M48.3864 13.6644L47.9221 25.8691C47.9221 26.5533 47.2656 26.8955 45.9522 26.8955C44.6394 26.8955 43.9829 26.5533 43.9829 25.8691C43.866 22.8282 43.7714 20.4688 43.6936 18.7965C43.6546 17.0858 43.6157 15.8678 43.5767 15.1452C43.5378 14.4226 43.5183 13.9846 43.5183 13.8341V13.6069C43.5183 12.7338 44.3306 12.2959 45.9522 12.2959C47.5741 12.2959 48.3864 12.753 48.3864 13.6644ZM58.2393 13.6644L57.775 25.8691C57.775 26.5533 57.1186 26.8955 55.8056 26.8955C54.4927 26.8955 53.8358 26.5533 53.8358 25.8691C53.719 22.8282 53.6245 20.4688 53.5468 18.7965C53.5077 17.0858 53.4687 15.8678 53.4301 15.1452C53.391 14.4226 53.3715 13.9846 53.3715 13.8341V13.6069C53.3715 12.7338 54.1837 12.2959 55.8056 12.2959C57.4275 12.2959 58.2393 12.753 58.2393 13.6644Z" fill="black" stroke="black" stroke-width="1.17691" stroke-miterlimit="10"/>
</g>
<defs>
<clipPath id="clip0_112_303">
<rect width="686" height="118.119" fill="white"/>
</clipPath>
</defs>
</svg>
