<svg width="612" height="160" viewBox="0 0 612 160" fill="none" xmlns="http://www.w3.org/2000/svg">
<path d="M54.644 8.34014C66.2704 7.52173 76.5283 15.6166 78.0251 26.7906C79.4462 37.4054 72.1814 47.6718 61.2655 50.0757C58.5296 50.6781 55.4888 50.5106 52.5934 50.8779C45.5476 51.7729 39.5144 54.7133 34.4939 59.6993L34.4418 59.7262L34.383 59.7212L34.3366 59.6859L34.3177 59.6318C34.3159 59.5922 34.3261 59.5571 34.3485 59.5265C34.3802 59.4814 34.396 59.4319 34.396 59.3779C34.327 51.1453 34.3056 41.1778 34.3317 29.4753C34.3541 18.4175 43.0905 9.15046 54.644 8.34014Z" fill="black"/>
<path d="M55.8678 100.784C41.0693 100.668 30.4614 86.1073 35.6087 72.4647C38.4481 64.9341 45.4585 59.443 53.7669 58.5787C56.293 58.3166 59.3282 58.3841 61.7649 57.9304C74.2776 55.6048 83.9427 46.0353 85.8986 33.8512C86.3319 31.1475 86.1053 27.9252 86.7435 25.0568C89.6976 11.7814 104.91 4.3321 117.686 10.3337C124.347 13.4668 128.811 19.382 129.916 26.4478C130.144 27.8972 130.217 29.6925 130.137 31.8335C128.688 70.3008 95.8351 101.103 55.8678 100.784Z" fill="black"/>
<path d="M74.5061 106.903C74.4389 106.872 74.3935 106.827 74.3691 106.768L74.3632 106.731L74.3737 106.694L74.3981 106.665C74.4086 106.658 74.4205 106.652 74.4336 106.649C89.6159 103.174 102.77 96.183 113.894 85.6756C114.094 85.4866 114.276 85.5011 114.44 85.7191C116.224 88.0687 118.088 90.5941 119.581 93.0063C125.719 102.914 129.197 113.645 130.013 125.2C130.177 127.53 130.229 129.329 130.167 130.599C129.616 141.827 120.22 150.885 108.375 150.953C97.887 151.01 88.667 143.855 86.675 133.845C86.2054 131.477 86.3503 128.195 85.9506 125.691C84.7158 117.987 80.9517 111.753 74.6575 106.987C74.6292 106.963 74.5792 106.935 74.5061 106.903Z" fill="black"/>
<path d="M52.319 150.631C43.412 149.081 36.2449 142.164 34.6504 133.558C34.4322 132.381 34.3231 130.586 34.3231 128.175C34.3212 118.684 34.3193 109.192 34.3175 99.6986C34.3175 99.6051 34.3529 99.5899 34.4238 99.6525C40.2481 104.83 46.3689 107.993 54.364 108.52C54.364 108.52 55.0876 108.545 56.5124 108.59C66.9217 108.923 75.7394 115.745 77.7729 125.655C80.783 140.308 67.5177 153.276 52.319 150.631Z" fill="black"/>
<path d="M206.21 137V31.0236H221.125V84.4043L268.94 31.0236H287.494L247.887 74.2706L291.99 137H274.149L237.753 85.2607L221.125 103.673V137H206.21ZM303.551 137V31.0236H337.164C341.731 31.0236 345.823 31.1902 349.439 31.5232C353.055 31.8562 356.599 32.4509 360.072 33.3073C363.545 34.1161 366.519 35.2817 368.993 36.8042C371.467 38.279 373.655 40.1345 375.558 42.3706C377.509 44.5591 378.96 47.271 379.911 50.5062C380.863 53.7414 381.339 57.4285 381.339 61.5677C381.339 69.6557 379.531 75.9595 375.915 80.4793C372.347 84.9515 367.137 88.1153 360.286 89.9708L384.836 137H368.136L345.228 92.2544C343.468 92.3496 340.78 92.3972 337.164 92.3972H318.467V137H303.551ZM318.467 79.837H338.377C341.898 79.837 344.848 79.7418 347.226 79.5515C349.653 79.3612 352.151 78.9093 354.72 78.1956C357.289 77.482 359.311 76.5066 360.786 75.2697C362.308 73.9851 363.545 72.2248 364.497 69.9887C365.496 67.7526 365.995 65.0407 365.995 61.8531C365.995 58.6655 365.496 55.9537 364.497 53.7176C363.545 51.4339 362.308 49.6498 360.786 48.3652C359.263 47.0807 357.241 46.0816 354.72 45.3679C352.198 44.6067 349.7 44.1309 347.226 43.9406C344.8 43.7027 341.85 43.5838 338.377 43.5838H318.467V79.837ZM402.748 137V31.0236H474.683V43.8693H417.663V76.0547H471.329V88.9003H417.663V124.154H474.683V137H402.748ZM479.822 137L519.144 31.0236H536.414L576.307 137H560.178L551.9 114.021H503.229L495.022 137H479.822ZM507.725 101.318H547.19L527.351 46.0816L507.725 101.318Z" fill="black"/>
</svg>
