<svg width="719" height="177" viewBox="0 0 719 177" fill="none" xmlns="http://www.w3.org/2000/svg">
<path d="M166.725 74.7124L103.457 10.4893C95.3691 2.2664 82.0941 2.17376 73.8854 10.2613L9.65521 73.5224C1.43939 81.6171 1.33963 94.885 9.43432 103.094L71.3131 165.913C75.5956 170.267 81.3245 172.697 87.4383 172.739H87.6236C96.0674 172.739 101.654 168.15 103.67 166.162L166.49 104.284C174.706 96.189 174.805 82.9211 166.718 74.7124H166.725ZM160.811 98.5262L128.781 130.078C128.076 130.777 126.893 130.121 127.107 129.152C133.926 97.835 138.771 67.259 124.513 57.9459C116.197 52.5162 103.585 55.8652 86.0203 68.1711C83.9183 66.6605 81.4029 65.841 78.7593 65.8197H78.6382C76.643 65.8197 74.6479 66.2329 72.8878 67.1806C68.5341 69.5178 66.0259 73.7647 65.9974 78.4035C65.9546 83.4342 68.8405 88.0373 73.8213 90.2676C75.2179 90.8947 76.757 91.1654 78.289 91.1654H78.3745C81.1179 91.1654 83.847 90.4101 86.0631 88.7926C89.4192 86.3414 91.3146 82.629 91.336 78.5959C91.3431 77.2634 91.1508 75.9665 90.7588 74.7409C104.689 65.0002 115.05 61.4445 120.081 64.7294C123.244 66.7959 126.722 73.0664 125.297 91.1939C124.249 104.619 120.872 119.86 118.413 130.99C117.601 134.66 116.896 137.824 116.39 140.41C116.097 141.921 115.349 143.303 114.252 144.387L97.9913 160.405C96.9652 161.417 93.1958 164.737 87.5024 164.652C83.5549 164.623 79.8495 163.063 77.0777 160.241L15.1989 97.4146C10.2395 92.3839 10.2965 84.2536 15.3343 79.2799L47.3568 47.742C48.0622 47.0437 49.2451 47.6992 49.0313 48.6683C42.2192 79.9782 37.3738 110.533 51.6321 119.839C54.1974 121.513 57.1759 122.354 60.5677 122.354C68.1992 122.354 77.9755 118.129 90.1318 109.607C92.2338 111.124 94.742 111.944 97.3856 111.965H97.4997C99.4948 111.965 101.497 111.552 103.257 110.604C107.611 108.267 110.119 104.02 110.155 99.3813C110.183 95.9966 108.886 92.8043 106.514 90.3959C104.134 87.9803 100.963 86.6407 97.578 86.6122H97.4712C95.476 86.6122 93.4808 87.0255 91.7208 87.966C87.3599 90.3032 84.8517 94.5501 84.8161 99.1817C84.809 100.514 85.0014 101.811 85.3861 103.037C71.4485 112.777 61.095 116.333 56.0643 113.048C52.9005 110.982 49.4303 104.711 50.8483 86.5837C51.9029 73.159 55.2805 57.9174 57.7388 46.7872C58.544 43.1317 59.2423 39.9822 59.7553 37.3956C60.0546 35.8921 60.7957 34.5169 61.893 33.4338L79.5716 16.0117C81.9872 13.6317 85.1795 12.3206 88.5642 12.3206H88.6639C92.0842 12.3491 95.2978 13.7101 97.6992 16.1471L160.953 80.3773C165.913 85.4079 165.856 93.5383 160.818 98.5119L160.811 98.5262ZM83.2342 78.5246C83.2128 81.0471 81.1535 83.0636 78.6239 83.0636C77.4055 83.0565 76.2582 82.572 75.396 81.7026C74.5338 80.8262 74.0707 79.679 74.0849 78.4462C74.0921 77.2277 74.5766 76.0805 75.4459 75.2255C76.3081 74.3775 77.4553 73.9001 78.6596 73.9001H78.6952C79.9137 73.9072 81.0609 74.3989 81.9231 75.2682C82.7853 76.1375 83.2485 77.2919 83.2342 78.5175V78.5246ZM93.0533 100.479C92.4761 98.234 93.5735 96.0037 95.7325 95.0275C96.2313 94.7995 96.78 94.714 97.3286 94.714C98.1053 94.714 99.3096 94.999 99.958 95.4337C101.946 96.759 102.68 99.2744 101.469 101.654C100.756 103.051 99.2526 103.87 97.6778 103.87H97.635C95.6826 103.87 93.5378 102.367 93.0533 100.479Z" fill="black"/>
<path opacity="0.92" d="M213.07 65.0855C213.07 71.8905 218.628 77.4556 225.44 77.4556H256.992V85.5431H225.44C214.196 85.5431 204.982 76.3368 204.982 65.0855V30.0347H213.07V65.0855Z" fill="black"/>
<path opacity="0.92" d="M286.677 85.7856C275.433 85.7856 266.22 76.5793 266.22 65.328V50.7276C266.22 39.4834 275.426 30.27 286.677 30.27H322.911V38.3576H286.677C279.872 38.3576 274.307 43.9156 274.307 50.7205V53.9769H318.728V62.0645H274.307V65.3209C274.307 72.1258 279.872 77.6838 286.677 77.6838H322.911V85.7713H286.677V85.7856Z" fill="black"/>
<path opacity="0.92" d="M390.754 35.1793C392.742 32.2934 395.948 30.4906 399.447 30.2982C399.661 30.284 399.875 30.2769 400.088 30.2769C400.936 30.2769 401.784 30.3695 402.611 30.5619C407.535 31.6877 411.126 35.9488 411.404 40.9938V41.0365V41.0793C411.432 41.4356 411.454 41.7918 411.454 42.1481V85.543H403.366V42.1481C403.366 41.97 403.352 41.7847 403.331 41.6066C403.331 40.0959 402.283 38.7848 400.808 38.4499C400.573 38.3929 400.331 38.3715 400.081 38.3715C399.112 38.3715 398.2 38.7991 397.587 39.5401L397.359 39.8109L380.892 75.9734C379.731 78.5172 377.914 83.0348 375.519 84.6025C374.408 85.3364 373.132 85.543 371.814 85.543C370.496 85.543 369.227 85.3293 368.116 84.6025C365.722 83.0348 363.905 78.5172 362.743 75.9734L346.276 39.8109L346.048 39.5401C345.428 38.7991 344.516 38.3715 343.554 38.3715C343.312 38.3715 343.069 38.4 342.827 38.4499C341.352 38.7848 340.305 40.0959 340.305 41.6066C340.283 41.7847 340.269 41.97 340.269 42.1481V85.543H332.181V42.1481C332.181 41.7918 332.196 41.4356 332.231 41.0793V41.0365V40.9938C332.502 35.9488 336.1 31.6877 341.024 30.5619C341.851 30.3766 342.699 30.2769 343.547 30.2769C343.761 30.2769 343.974 30.2769 344.188 30.2982C347.687 30.4977 350.893 32.3005 352.881 35.1793L353.38 35.9061L371.814 76.3866L390.248 35.9061L390.747 35.1793H390.754Z" fill="black"/>
<path opacity="0.92" d="M482.774 30.2769V65.3277C482.774 76.5719 473.568 85.7853 462.316 85.7853H441.16C429.916 85.7853 420.703 76.579 420.703 65.3277V30.2769H428.79V65.3277C428.79 72.1326 434.355 77.6977 441.16 77.6977H462.316C469.121 77.6977 474.679 72.1398 474.679 65.3277V30.2769H482.767H482.774Z" fill="black"/>
<path opacity="0.92" d="M492.03 85.7853V69.8881C492.03 63.1686 496.313 57.1546 502.633 54.9029C504.336 54.2973 506.125 53.9909 507.927 53.9909H532.817C537.085 53.9909 540.584 50.5207 540.627 46.2525V46.1028C540.584 41.8346 537.085 38.3644 532.817 38.3644H492.03V30.2769H532.817C534.62 30.2769 536.415 30.5833 538.111 31.1889C544.432 33.4406 548.714 39.4546 548.714 46.1741C548.714 48.9673 547.973 51.6465 546.648 53.9837C544.995 56.8981 542.429 59.2852 539.259 60.6961L539.102 60.7673C539.002 60.8101 538.902 60.8528 538.803 60.8956L548.714 85.7782H540.007L530.558 62.0713H507.92C503.652 62.0713 500.153 65.5343 500.11 69.8097V85.7853H492.023H492.03Z" fill="black"/>
<path opacity="0.92" d="M566.072 30.2769V85.7853H557.985V30.2769H566.072Z" fill="black"/>
<path opacity="0.92" d="M575.279 85.7853L592.622 42.255C595.565 34.8729 602.342 30.2769 610.287 30.2769C618.232 30.2769 625.008 34.8729 627.951 42.255L645.295 85.7853H636.587L631.863 73.9283H588.703L583.979 85.7853H575.271H575.279ZM628.642 65.8407L620.441 45.2477C618.723 40.9439 614.925 38.3644 610.287 38.3644C605.648 38.3644 601.85 40.9439 600.133 45.2477L591.931 65.8407H628.642Z" fill="black"/>
<path opacity="0.92" d="M654.558 40.3453C654.558 34.7874 659.068 30.2769 664.626 30.2769H667.861C670.07 30.2769 672.244 30.8255 674.189 31.8801C676.911 33.348 678.578 35.3645 680.032 38.058C680.317 38.5782 680.581 39.1126 680.837 39.6542C681.051 40.1102 681.258 40.5662 681.464 41.0223C681.628 41.3928 681.792 41.7633 681.956 42.1267L694.803 70.6149C694.974 70.9926 695.138 71.3773 695.309 71.755C695.487 72.154 695.665 72.5531 695.858 72.9521C696.057 73.3654 696.257 73.7715 696.471 74.1706C697.133 75.4033 697.76 76.3795 699.043 77.0707C699.805 77.484 700.653 77.6978 701.523 77.6978H702.713C704.929 77.6978 706.739 75.8878 706.739 73.6718V30.2769H714.826V75.7168C714.826 81.2748 710.316 85.7853 704.758 85.7853H701.523C699.314 85.7853 697.14 85.2366 695.195 84.182C692.48 82.7142 690.806 80.6976 689.352 78.0041C689.067 77.484 688.804 76.9496 688.547 76.408C688.333 75.952 688.127 75.4959 687.92 75.0399C687.756 74.6694 687.592 74.2988 687.428 73.9354L674.581 45.4473C674.41 45.0696 674.239 44.6848 674.075 44.3072C673.897 43.9081 673.719 43.5091 673.526 43.1172C673.334 42.7039 673.127 42.2977 672.913 41.8987C672.251 40.666 671.624 39.6898 670.341 38.9986C669.579 38.5853 668.731 38.3715 667.861 38.3715H666.671C664.455 38.3715 662.645 40.1814 662.645 42.3975V85.7924H654.558V40.3596V40.3453Z" fill="black"/>
<path opacity="0.92" d="M213.07 131.689C213.07 138.493 218.628 144.059 225.44 144.059H256.992V152.146H225.44C214.196 152.146 204.982 142.94 204.982 131.689V96.6377H213.07V131.689Z" fill="black"/>
<path opacity="0.92" d="M266.22 152.388L283.563 108.858C286.506 101.476 293.283 96.8799 301.228 96.8799C309.173 96.8799 315.949 101.476 318.892 108.858L336.236 152.388H327.528L322.804 140.531H279.644L274.92 152.388H266.212H266.22ZM319.583 132.444L311.382 111.851C309.664 107.547 305.866 104.967 301.228 104.967C296.589 104.967 292.791 107.547 291.074 111.851L282.872 132.444H319.583Z" fill="black"/>
<path opacity="0.92" d="M400.658 124.634L402.076 126.337C404.463 129.195 405.767 132.765 405.767 136.491C405.767 145.234 398.606 152.389 389.87 152.389H355.568C350.01 152.389 345.499 147.878 345.499 142.32V106.956C345.499 101.398 350.01 96.8872 355.568 96.8872H389.87C398.613 96.8872 405.767 104.048 405.767 112.784C405.767 116.511 404.463 120.081 402.076 122.938L400.658 124.641V124.634ZM397.687 112.777C397.687 108.502 394.153 104.968 389.877 104.968H357.092C355.161 104.968 353.587 106.542 353.587 108.473V120.594H389.877C394.153 120.594 397.687 117.06 397.687 112.784V112.777ZM357.085 144.301H389.87C394.146 144.301 397.68 140.767 397.68 136.491C397.68 132.216 394.146 128.682 389.87 128.682H353.579V140.802C353.579 142.733 355.154 144.308 357.085 144.308V144.301Z" fill="black"/>
<path opacity="0.92" d="M424.059 123.131C418.665 121.221 415.059 116.112 415.059 110.397C415.059 102.937 421.116 96.8872 428.569 96.8872H471.751V104.975H428.569C425.577 104.975 423.147 107.405 423.147 110.397C423.147 112.67 424.572 114.708 426.71 115.492L426.824 115.535L465.979 126.024L466.349 126.159C471.743 128.069 475.342 133.178 475.342 138.893C475.342 146.353 469.292 152.403 461.832 152.403H418.651V144.315H461.832C464.825 144.315 467.254 141.885 467.254 138.893C467.254 136.62 465.829 134.582 463.699 133.798L463.585 133.755L424.43 123.266L424.059 123.131Z" fill="black"/>
</svg>
