<svg width="664" height="123" viewBox="0 0 664 123" fill="none" xmlns="http://www.w3.org/2000/svg">
<path d="M143.032 60.7198C143.032 50.0152 144.783 41.2914 148.285 34.5484C151.787 27.8055 156.356 22.8747 161.994 19.7561C167.716 16.5531 173.91 14.9517 180.571 14.9517C187.233 14.9517 193.383 16.5531 199.021 19.7561C204.743 22.8747 209.356 27.8055 212.857 34.5484C216.359 41.2914 218.111 50.0152 218.111 60.7198C218.111 71.4242 216.359 80.148 212.857 86.8909C209.356 93.6339 204.743 98.6069 199.021 101.81C193.383 104.929 187.233 106.488 180.571 106.488C173.91 106.488 167.716 104.929 161.994 101.81C156.356 98.6069 151.787 93.6339 148.285 86.8909C144.783 80.148 143.032 71.4242 143.032 60.7198ZM159.303 60.7198C159.303 67.6313 160.243 73.3629 162.122 77.9144C164.001 82.4659 166.521 85.9217 169.682 88.2817C172.927 90.5575 176.514 91.6954 180.444 91.6954C184.373 91.6954 187.96 90.5575 191.205 88.2817C194.537 85.9217 197.142 82.4659 199.021 77.9144C200.984 73.3629 201.967 67.6313 201.967 60.7198C201.967 53.7239 200.984 47.9502 199.021 43.3987C197.057 38.8472 194.451 35.4335 191.205 33.1577C187.96 30.882 184.414 29.7442 180.571 29.7442C176.558 29.7442 172.927 30.9241 169.682 33.2841C166.521 35.56 164.001 38.9736 162.122 43.5251C160.243 48.0766 159.303 53.8082 159.303 60.7198Z" fill="black"/>
<path d="M225.627 104.97V16.4688H255.992C261.458 16.4688 266.242 17.4801 270.341 19.503C274.527 21.5259 277.773 24.6446 280.079 28.859C282.471 33.0733 283.666 38.5941 283.666 45.4214C283.666 52.0802 282.384 57.6431 279.823 62.1104C277.346 66.5775 274.015 69.907 269.83 72.0985C265.643 74.2899 261.032 75.3857 255.992 75.3857H241.387V104.97H225.627ZM241.387 61.9839H253.942C256.59 61.9839 258.938 61.3518 260.989 60.0875C263.039 58.8232 264.619 57.0109 265.729 54.6509C266.925 52.2909 267.522 49.4673 267.522 46.18C267.522 42.8928 266.925 40.1113 265.729 37.8355C264.619 35.4755 263.039 33.7055 260.989 32.5254C258.938 31.2611 256.59 30.6289 253.942 30.6289H241.387V61.9839Z" fill="black"/>
<path d="M334.991 16.4688V30.6289H305.012V55.0301C307.744 54.0188 310.649 53.218 313.723 52.628C316.884 51.9537 320.045 51.5744 323.204 51.4902C326.364 51.3216 329.311 51.4058 332.045 51.7429V65.2711L330.891 66.0297C328.841 65.4397 326.364 65.1447 323.461 65.1447C320.556 65.0605 317.482 65.2711 314.236 65.7768C310.989 66.1983 307.915 66.9569 305.012 68.0526V90.8101H334.991V104.97H289.252V16.4688H334.991Z" fill="black"/>
<path d="M387.069 16.4688H402.444V104.97H384.122L359.267 44.7893H357.73L358.371 104.97H342.868V16.4688H361.189L386.172 77.2821H387.71L387.069 16.4688Z" fill="black"/>
<path d="M413.624 104.97V16.4688H438.351L452.957 77.7878H454.11L468.46 16.4688H493.186V104.97H477.813L478.324 36.9506H476.915L460.132 104.97H446.679L430.023 36.9506H428.486L429.127 104.97H413.624Z" fill="black"/>
<path d="M504.399 16.4688H520.158V104.97H504.399V16.4688Z" fill="black"/>
<path d="M575.691 16.4688H591.066V104.97H572.745L547.89 44.7893H546.351L546.992 104.97H531.49V16.4688H549.81L574.795 77.2821H576.332L575.691 16.4688Z" fill="black"/>
<path d="M626.333 16.4688C633.507 16.4688 639.913 18.0702 645.551 21.273C651.188 24.3917 655.672 29.1961 659.003 35.6863C662.335 42.1763 664 50.5209 664 60.7196C664 70.834 662.335 79.1786 659.003 85.753C655.672 92.243 651.188 97.0895 645.551 100.293C639.913 103.411 633.507 104.97 626.333 104.97H602.246V16.4688H626.333ZM626.077 90.3045C632.653 90.3045 637.906 87.7338 641.836 82.5922C645.85 77.3663 647.856 70.0755 647.856 60.7196C647.856 51.1951 645.85 43.9042 641.836 38.847C637.82 33.7055 632.568 31.1346 626.077 31.1346H618.005V90.3045H626.077Z" fill="black"/>
<path d="M79.8255 17.9392C77.1178 13.3816 74.0777 9.69988 70.8331 6.88525C67.6132 9.68227 64.582 13.3464 61.861 17.8643C61.888 17.9105 61.9172 17.9546 61.9441 18.0007C69.0154 29.871 72.5633 45.4185 72.5857 60.9573C72.561 76.496 69.0154 92.0435 61.9441 103.914C57.0682 112.058 51.1903 117.446 45.0022 120.018C42.3754 121.121 39.6769 121.794 36.9895 121.917H53.8798C63.2587 121.917 72.6981 115.978 79.8255 103.978C86.9057 92.0941 90.4536 76.5247 90.4692 60.9595C90.4536 45.3966 86.9057 29.8248 79.8255 17.9413V17.9392Z" fill="#246BEE"/>
<path d="M43.8966 103.976C46.6042 108.534 49.6444 112.215 52.889 115.03C56.1087 112.233 59.1399 108.569 61.861 104.051C61.8341 104.005 61.8049 103.961 61.778 103.914C54.7067 92.0442 51.1588 76.4965 51.1364 60.9579C51.1609 45.4191 54.7067 29.8715 61.778 18.0013C66.6537 9.85668 72.5318 4.46952 78.7199 1.89696C81.3467 0.796634 84.0452 0.123236 86.7326 0H70.8421H69.8422C60.4634 0 51.024 5.93954 43.8966 17.9397C36.8164 29.8231 33.2685 45.3927 33.2527 60.9579C33.2685 76.5208 36.8164 92.0925 43.8966 103.976Z" fill="#FFA600"/>
<path d="M45.2335 119.918C39.1285 117.307 33.3381 111.956 28.5229 103.914C21.4517 92.0442 17.9038 76.4967 17.8814 60.9578C17.9061 45.4192 21.4517 29.8715 28.5229 18.0012C33.3989 9.85668 39.2768 4.46951 45.4649 1.89695C48.0917 0.796633 50.7902 0.123236 53.4799 0H36.5894C27.2107 0 17.7711 5.93954 10.6438 17.9396C3.56367 29.8232 0.0157287 45.3949 0 60.9578C0.0157287 76.5207 3.56367 92.0925 10.6438 103.976C17.7711 115.976 27.2107 121.916 36.5894 121.916H36.9894C39.6768 121.792 42.3776 121.119 45.0021 120.017C45.0785 119.984 45.1571 119.951 45.2335 119.918Z" fill="#FD015F"/>
<path d="M112.901 17.9397C105.775 5.93954 96.3339 0 86.9572 0H86.7348C84.0474 0.123236 81.3466 0.796634 78.7221 1.89915C78.6142 1.94317 78.5087 1.99159 78.4009 2.0378C84.4722 4.66096 90.2311 9.99972 95.0217 18.0034C102.093 29.8737 105.641 45.4213 105.663 60.96C105.639 76.4988 102.093 92.0463 95.0217 103.917C90.1458 112.061 84.2677 117.448 78.0796 120.021C75.4528 121.124 72.7543 121.797 70.0669 121.92H86.9572C96.3361 121.92 105.775 115.981 112.903 103.98C119.983 92.097 123.531 76.5273 123.547 60.9623C123.531 45.3992 119.983 29.8275 112.903 17.9441L112.901 17.9397Z" fill="#3DD695"/>
</svg>
