<svg width="518" height="96" viewBox="0 0 518 96" fill="none" xmlns="http://www.w3.org/2000/svg">
<path fill-rule="evenodd" clip-rule="evenodd" d="M88.5023 47.4304C88.5023 18.6262 67.0158 1.63916 44.1903 1.63916C21.3647 1.63916 0 18.5954 0 47.4608C0 76.3266 21.3647 93.3445 44.1903 93.3445C67.0158 93.3445 88.5023 76.2344 88.5023 47.4304ZM73.4068 47.4304C73.4068 68.6333 58.9202 79.1887 44.1903 79.1887C29.5819 79.1887 15.0344 68.7254 15.0344 47.4608C15.0344 26.1965 29.4602 15.6719 44.1903 15.6719C58.9202 15.6719 73.4068 26.2272 73.4068 47.4304ZM205.076 47.5533C205.076 68.1409 219.075 79.0654 233.927 79.0654C239.769 79.2549 245.503 77.4432 250.198 73.9241C254.894 70.405 258.276 65.3846 259.796 59.6781L273.309 64.1709C269.383 79.0654 256.114 93.3445 233.927 93.3445C210.462 93.3445 189.98 76.2344 189.98 47.5533C189.98 18.8724 211.223 1.63916 233.806 1.63916C255.87 1.63916 269.018 14.7795 272.944 30.1663L259.066 34.8748C256.509 24.2269 248.17 15.6411 233.806 15.6411C219.441 15.6411 205.076 26.1965 205.076 47.5533ZM444.867 3.63939V91.621H475.393C499.1 91.621 518 76.0803 518 47.7995C518 19.5186 499.345 3.63939 475.665 3.63939H444.867ZM502.66 47.7995C502.66 68.1717 490.244 77.9576 475.026 77.9576H459.689V17.2721H475.272C490.274 17.2721 502.66 27.4274 502.66 47.7995ZM353.715 39.8597H312.843V3.48531H298.114V91.4669H312.843V53.8618H353.715V91.4669H368.567V3.48531H353.715V39.8597ZM399.247 3.57776H414.22V91.5594H399.247V3.57776ZM155.681 62.7559C152.638 59.0631 151.116 57.0937 149.868 55.3394H150.69C156.36 54.1673 161.438 51.0085 165.03 46.4199C168.621 41.8314 170.495 36.1081 170.32 30.259C170.32 15.3646 159.881 3.57832 142.929 3.57832H109.452V91.4676H124.304V56.6013H132.186L132.366 56.855C134.592 59.9938 141.498 69.7332 147.829 76.9426C157.629 88.4825 165.664 93.2216 175.524 93.2216C177.56 93.2193 179.593 93.0855 181.611 92.8216L183.467 92.6062V79.2811H178.841C171.477 79.2811 166.698 77.0039 155.681 62.7559ZM124.547 16.5955H140.373C149.503 16.5955 155.347 21.9194 155.347 30.1051C155.347 38.2909 149.473 43.5224 140.373 43.5224H124.547V16.5955Z" fill="black"/>
</svg>
