<svg xmlns="http://www.w3.org/2000/svg" viewBox="0 0 305 36" fill="none">
  <path fill="currentColor" d="M0 35.131 14.822 9.56a31.637 31.637 0 0 1 2.185-3.525l-.199-.373c-1.44.071-2.656.1-4.17.1H.523V.618H27.09l.072.249-14.028 24.926a39.54 39.54 0 0 1-2.458 4.171l.174.348c1.192-.075 2.482-.1 3.873-.1h12.935v5.165H.077L0 35.13Zm55.614-4.842v5.09h-25.77V.62H55.12v5.09H37.17v9.211h16.808v4.618h-16.81v10.75h18.446Zm32.597-12.165v-.1C88.21 6.059 94.066 0 105.34 0c11.297 0 17.156 6.058 17.156 18.025v.099c0 11.867-5.859 17.875-17.156 17.875-11.272 0-17.13-6.008-17.13-17.875Zm26.714.67v-1.44c0-8.242-3.103-12.138-9.584-12.138-6.455 0-9.583 3.898-9.583 12.138v1.44c0 8.119 3.128 11.995 9.583 11.995 6.481-.003 9.584-3.876 9.584-11.995ZM125.533.62h9.113l6.976 17.553a74.346 74.346 0 0 1 2.954 8.64h.398a79.671 79.671 0 0 1 2.927-8.64L154.779.62h9.113v34.758h-7.15V17.925c-.012-2.57.112-5.14.372-7.697l-.496-.071-9.313 25.221h-5.239l-9.359-25.249-.522.072c.249 3.079.348 5.212.348 7.721v17.454h-7.002L125.533.62Zm60.859 0h-8.861l-12.117 34.758h7.226s8.597-27.903 8.839-28.903h.522c.257 1 8.861 28.903 8.861 28.903h7.697L186.392.62Zm7.21 0v5.437h10.824V35.38h7.349V6.057h13.547V35.38h7.349V6.057h10.85V.62h-49.919ZM57.805.62h16.733c7.895 0 12.042 3.302 12.042 9.51v.098c0 4.717-2.747 7.771-7.772 8.75v.473l9.758 15.927h-8.293c-.894-1.29-8.788-14.896-8.788-14.896H65.13v14.896h-7.325V.62Zm15.269 15.17c4.096 0 6.083-1.515 6.083-5.04v-.071c0-3.551-1.937-5.09-5.934-5.09H65.13v10.203l7.945-.003Zm198.282 14.499v5.09h-25.77V.62h25.276v5.09h-17.954v9.211h16.808v4.618h-16.808v10.75h18.448ZM273.539.62h16.734c7.895 0 12.042 3.302 12.042 9.51v.098c0 4.717-2.747 7.771-7.772 8.75v.473l9.757 15.927h-8.294c-.894-1.29-8.788-14.896-8.788-14.896h-6.355v14.896h-7.324V.62Zm15.269 15.17c4.097 0 6.083-1.515 6.083-5.04v-.071c0-3.551-1.937-5.09-5.933-5.09h-8.096v10.203l7.946-.003Z"/>
</svg>